<?xml version="1.0" encoding="utf-8"?>
<!-- Generator: Adobe Illustrator 25.2.1, SVG Export Plug-In . SVG Version: 6.00 Build 0)  -->
<svg version="1.1" id="Capa_1" xmlns="http://www.w3.org/2000/svg" xmlns:xlink="http://www.w3.org/1999/xlink" x="0px" y="0px"
	 viewBox="0 0 1024 1115.4" style="enable-background:new 0 0 1024 1115.4;" xml:space="preserve">
<style type="text/css">
	.st0{fill:#2565AF;}
	.st1{fill:#FFFFFF;}
	.st2{fill:#FFFFFF;stroke:#2565AF;stroke-width:2;}
	.st3{fill:#2565AF;stroke:#2565AF;stroke-width:2;}
	.st4{fill:#1D54A5;}
	.st5{fill:#231F20;}
	.st6{fill:none;stroke:#231F20;stroke-width:0.2679;}
	.st7{fill:#1856A0;}
	.st8{fill:#3DB83D;}
	.st9{fill:#FDCE12;}
	.st10{fill:#4AC5F4;}
	.st11{fill:#ED1C24;}
	.st12{fill:#47BB3A;}
	.st13{fill:none;stroke:#FDCE12;stroke-width:2;}
</style>
<path class="st0" d="M512,0C229.2,0,0,229.2,0,512s229.2,512,512,512s512-229.2,512-512S794.8,0,512,0z M512,959.5
	C264.8,959.5,64.5,759.2,64.5,512S264.8,64.5,512,64.5S959.5,264.8,959.5,512S759.2,959.5,512,959.5z"/>
<path class="st1" d="M512,22C241.4,22,22,241.4,22,512s219.4,490,490,490s490-219.4,490-490S782.6,22,512,22z M512,978.8
	c-257.8,0-466.8-209-466.8-466.8S254.2,45.2,512,45.2s466.8,209,466.8,466.8S769.8,978.8,512,978.8L512,978.8z"/>
<g>
	<circle class="st2" cx="512.2" cy="991" r="107.2"/>
	<circle class="st3" cx="511.5" cy="990.3" r="79"/>
	<g>
		<path class="st4" d="M556.1,1010.8h-89.4l45.5,14.1L556.1,1010.8L556.1,1010.8z"/>
		<path class="st5" d="M568.4,1031.8c0,0-10,2.1-14.1,1.2c0,0,4.1,5.3,5.6,6.8C559.8,1039.8,567.8,1033,568.4,1031.8"/>
		<path class="st6" d="M568.4,1031.8c0,0-10,2.1-14.1,1.2c0,0,4.1,5.3,5.6,6.8C559.8,1039.8,567.8,1033,568.4,1031.8L568.4,1031.8z"
			/>
		<path class="st1" d="M507.4,1012.1l-25,3.4l8.6,2.8L507.4,1012.1L507.4,1012.1z M509.2,1012.7L496,1020l8.1,2.5L509.2,1012.7
			L509.2,1012.7z M515.3,1012.1l25,3.4l-8.6,2.8L515.3,1012.1L515.3,1012.1z M513.4,1012.7l13.3,7.3l-8.1,2.5L513.4,1012.7
			L513.4,1012.7z"/>
		<path class="st7" d="M495.5,963.9l-18-18c0,0-8.7,6.9-13.5,27.9c0,0-2.1,23.6,6.5,33.9L495.5,963.9z"/>
		<path class="st1" d="M486.4,954.6c0,0-0.4,2.3-0.9,2.8c0,0-0.9,1.6-0.8,3l0.1,2.7c0,0,0.2,3.4-0.9,3.2l-5.7-3.3
			c0,0,0.9-1.7,0.6-3.3c0,0,0.3-4.1,0.8-5.1c0,0,0.9-3.6,2.2-4.4L486.4,954.6L486.4,954.6z"/>
		<path class="st1" d="M472.4,959.1c0,0-0.9,6,0,8.1c0,0,0.9,3,0,5.3l6.6,3.2c0,0,0.7-2,0-3.5c0,0-0.9-2.4-0.6-3.8
			c0,0,1-3.7,0.4-5.1L472.4,959.1L472.4,959.1z M468.7,970.8c0,0-0.2,7.2,1.4,9.5c0,0,1.8,3.6,1.2,6.5c0,0-2.3,7.7,3.9,12.6l3.6-6.3
			c0,0-2.1-2.6-1.4-5.4c0,0,1.6-3.8-0.5-5.9c0,0-1.7-3.3-1.4-7.7L468.7,970.8L468.7,970.8z"/>
		<path class="st5" d="M466.4,937.8l-0.1-0.3l-1.6-4.3l4.4,1.6l0.3,0.1l0.1,0.3l1.3,3.4l31.9,31.4l-0.6,0.6l-31.9-31.4l-3.4-1.2
			L466.4,937.8L466.4,937.8z M454.2,950l-0.2-0.3l-2.5-3.9l4.6,0.6h0.3l0.2,0.2l1.9,3.1l37.8,23.9l-0.5,0.7l-37.8-24l-3.6-0.5
			L454.2,950z M448.2,963.9l-0.2-0.2l-3-3.5h4.6h0.3l0.2,0.2l2.4,2.7l40.8,18.5l-0.3,0.8l-40.8-18.5h-3.6H448.2L448.2,963.9z"/>
		<path class="st8" d="M491.2,933.4c0,0,0,7.4-9.5,11.7C481.7,945.1,484,934.6,491.2,933.4"/>
		<path class="st6" d="M491.2,933.4c0,0,0,7.4-9.5,11.7C481.7,945.1,484,934.6,491.2,933.4L491.2,933.4z"/>
		<path class="st8" d="M475.7,950.9c0,0-1.8-9.9,8.2-17.9C484,933,485.9,948.9,475.7,950.9z"/>
		<path class="st6" d="M475.7,950.9c0,0-1.8-9.9,8.2-17.9C484,933,485.9,948.9,475.7,950.9z"/>
		<path class="st8" d="M469.4,959.1c0,0-3.5-10.1,4.9-18.9C474.3,940.2,478.9,957.6,469.4,959.1z"/>
		<path class="st6" d="M469.4,959.1c0,0-3.5-10.1,4.9-18.9C474.3,940.2,478.9,957.6,469.4,959.1z"/>
		<path class="st8" d="M465.1,968.9c0,0-5.3-9.5,1.1-19.7C466.1,949.2,474.1,966.3,465.1,968.9z"/>
		<path class="st6" d="M465.1,968.9c0,0-5.3-9.5,1.1-19.7C466.1,949.2,474.1,966.3,465.1,968.9z"/>
		<path class="st8" d="M463.4,978.9c0,0-9-6.6-3.6-19.7C459.8,959.3,469.6,973.1,463.4,978.9"/>
		<path class="st6" d="M463.4,978.9c0,0-9-6.6-3.6-19.7C459.8,959.3,469.6,973.1,463.4,978.9L463.4,978.9z"/>
		<path class="st8" d="M463,988.1c0,0-8.3,0.9-8-17.4C455,970.7,465.7,977.4,463,988.1"/>
		<path class="st6" d="M463,988.1c0,0-8.3,0.9-8-17.4C455,970.7,465.7,977.4,463,988.1L463,988.1z"/>
		<path class="st8" d="M463.6,998c0,0-8.2,3-10.8-15.5C452.8,982.6,466.3,989.3,463.6,998z"/>
		<path class="st6" d="M463.6,998c0,0-8.2,3-10.8-15.5C452.8,982.6,466.3,989.3,463.6,998z"/>
		<path class="st8" d="M466.3,1007.9c0,0-7.5,4.2-13.5-13.2C452.8,994.7,467.9,998.6,466.3,1007.9"/>
		<path class="st6" d="M466.3,1007.9c0,0-7.5,4.2-13.5-13.2C452.8,994.7,467.9,998.6,466.3,1007.9L466.3,1007.9z"/>
		<path class="st8" d="M469.7,1016.9c0,0-5.9,5.6-14.7-10.5C455,1006.4,471.5,1007.3,469.7,1016.9z"/>
		<path class="st6" d="M469.7,1016.9c0,0-5.9,5.6-14.7-10.5C455,1006.4,471.5,1007.3,469.7,1016.9z"/>
		<path class="st8" d="M475.6,1024.9c0,0-4,7.4-16.1-7.1C459.5,1017.8,476.3,1015.7,475.6,1024.9"/>
		<path class="st6" d="M475.6,1024.9c0,0-4,7.4-16.1-7.1C459.5,1017.8,476.3,1015.7,475.6,1024.9L475.6,1024.9z"/>
		<path class="st8" d="M482.8,1033.1c0,0-5.6,5.3-16.5-5.1C466.3,1028,482.4,1023.2,482.8,1033.1z"/>
		<path class="st6" d="M482.8,1033.1c0,0-5.6,5.3-16.5-5.1C466.3,1028,482.4,1023.2,482.8,1033.1z"/>
		<path class="st8" d="M491.1,1038.9c0,0-4.6,6.1-17.1-2.3C473.9,1036.7,489,1029.2,491.1,1038.9z"/>
		<path class="st6" d="M491.1,1038.9c0,0-4.6,6.1-17.1-2.3C473.9,1036.7,489,1029.2,491.1,1038.9z"/>
		<path class="st8" d="M501,1042.4c0,0-3.1,7-17.2,1.6C483.7,1044,496.7,1033.4,501,1042.4z"/>
		<path class="st6" d="M501,1042.4c0,0-3.1,7-17.2,1.6C483.7,1044,496.7,1033.4,501,1042.4z"/>
		<path class="st8" d="M488.3,939l2.9-2.7c0,0,3.9-5.3,8.6-4.1c0,0-0.9,1.4-1.2,2C498.5,934.2,494.3,940.5,488.3,939z"/>
		<path class="st6" d="M488.3,939l2.9-2.7c0,0,3.9-5.3,8.6-4.1c0,0-0.9,1.4-1.2,2C498.5,934.2,494.3,940.5,488.3,939z"/>
		<path class="st8" d="M482.2,943.8l4.2-2c0,0,5.3-3.3,8.4-0.9c0,0-1.4,1.4-1.7,1.8C493.1,942.7,486.7,947.4,482.2,943.8z"/>
		<path class="st6" d="M482.2,943.8l4.2-2c0,0,5.3-3.3,8.4-0.9c0,0-1.4,1.4-1.7,1.8C493.1,942.7,486.7,947.4,482.2,943.8z"/>
		<path class="st8" d="M471.5,951.8c0,0,6.6-9,18-4.7C489.5,947.1,481.6,955.1,471.5,951.8z"/>
		<path class="st6" d="M471.5,951.8c0,0,6.6-9,18-4.7C489.5,947.1,481.6,955.1,471.5,951.8z"/>
		<path class="st8" d="M466.1,960.8c0,0,4.4-9.8,16.2-8C482.3,952.8,473.6,963,466.1,960.8z"/>
		<path class="st6" d="M466.1,960.8c0,0,4.4-9.8,16.2-8C482.3,952.8,473.6,963,466.1,960.8z"/>
		<path class="st8" d="M461.7,970.8c0,0,2.7-11,14.7-11C476.5,959.9,471.2,970.7,461.7,970.8z"/>
		<path class="st6" d="M461.7,970.8c0,0,2.7-11,14.7-11C476.5,959.9,471.2,970.7,461.7,970.8z"/>
		<path class="st8" d="M459.7,981.2c0,0-0.3-10.5,12.2-13.5C471.8,967.7,468.4,980,459.7,981.2z"/>
		<path class="st6" d="M459.7,981.2c0,0-0.3-10.5,12.2-13.5C471.8,967.7,468.4,980,459.7,981.2z"/>
		<path class="st8" d="M459.4,992.3c0,0-2-10.4,9.5-15.8C468.8,976.5,467.6,989.4,459.4,992.3z"/>
		<path class="st6" d="M459.4,992.3c0,0-2-10.4,9.5-15.8C468.8,976.5,467.6,989.4,459.4,992.3z"/>
		<path class="st8" d="M460.9,1003.1c0,0-3.2-11.6,6.7-17.3C467.6,985.8,468.4,998.8,460.9,1003.1"/>
		<path class="st6" d="M460.9,1003.1c0,0-3.2-11.6,6.7-17.3C467.6,985.8,468.4,998.8,460.9,1003.1L460.9,1003.1z"/>
		<path class="st8" d="M476.9,1030.9c0,0-8.1-6.4-3.1-18.2C473.8,1012.7,481.5,1023.8,476.9,1030.9z"/>
		<path class="st6" d="M476.9,1030.9c0,0-8.1-6.4-3.1-18.2C473.8,1012.7,481.5,1023.8,476.9,1030.9z"/>
		<path class="st8" d="M510.8,1044.8c0,0-2.7,6-11.9,4.7c0,0,0.6-4.8,5.9-5.2c0,0-3.6-5.4-0.3-9.9
			C504.4,1034.3,508.5,1036.7,510.8,1044.8"/>
		<path class="st6" d="M510.8,1044.8c0,0-2.7,6-11.9,4.7c0,0,0.6-4.8,5.9-5.2c0,0-3.6-5.4-0.3-9.9
			C504.4,1034.3,508.5,1036.7,510.8,1044.8L510.8,1044.8z"/>
		<path class="st8" d="M523.5,1049c0,0-1.3,2.7-1.2,3.6c0,0-4.4-4.8-7.8-5.4l0.2-1.9C514.7,1045.3,520.1,1046.8,523.5,1049"/>
		<path class="st6" d="M523.5,1049c0,0-1.3,2.7-1.2,3.6c0,0-4.4-4.8-7.8-5.4l0.2-1.9C514.7,1045.3,520.1,1046.8,523.5,1049
			L523.5,1049z"/>
		<path class="st8" d="M515.1,1043.5c0,0,1.2,3.2-1.2,5.9c0,0-1.2,1.7-2.5,0c0,0-3.2-4.6-1.2-6.9
			C510.1,1042.4,513.2,1041.1,515.1,1043.5"/>
		<path class="st6" d="M515.1,1043.5c0,0,1.2,3.2-1.2,5.9c0,0-1.2,1.7-2.5,0c0,0-3.2-4.6-1.2-6.9
			C510.1,1042.4,513.2,1041.1,515.1,1043.5L515.1,1043.5z"/>
		<path class="st8" d="M464.5,1013.3c0,0-5.3-9.6,3.2-17.9C467.6,995.5,471.4,1008.2,464.5,1013.3"/>
		<path class="st6" d="M464.5,1013.3c0,0-5.3-9.6,3.2-17.9C467.6,995.5,471.4,1008.2,464.5,1013.3L464.5,1013.3z"/>
		<path class="st8" d="M469.9,1022.6c0,0-6.8-8.3-0.1-18.2C469.7,1004.5,475.4,1015.4,469.9,1022.6z"/>
		<path class="st6" d="M469.9,1022.6c0,0-6.8-8.3-0.1-18.2C469.7,1004.5,475.4,1015.4,469.9,1022.6z"/>
		<path class="st8" d="M486,1037.6c0,0-9.2-4.2-7.5-17C478.5,1020.7,487.9,1028,486,1037.6z"/>
		<path class="st6" d="M486,1037.6c0,0-9.2-4.2-7.5-17C478.5,1020.7,487.9,1028,486,1037.6z"/>
		<path class="st8" d="M495,1042.8c0,0-10.1-3.9-9.9-15.9C485.1,1026.8,496.9,1033.9,495,1042.8"/>
		<path class="st6" d="M495,1042.8c0,0-10.1-3.9-9.9-15.9C485.1,1026.8,496.9,1033.9,495,1042.8L495,1042.8z"/>
		<path class="st8" d="M505.5,1045.4c0,0-11.1-0.9-12.5-14.1C493,1031.3,504.6,1036,505.5,1045.4z"/>
		<path class="st6" d="M505.5,1045.4c0,0-11.1-0.9-12.5-14.1C493,1031.3,504.6,1036,505.5,1045.4z"/>
		<path class="st7" d="M529,963.9l18-18c0,0,8.7,6.9,13.5,27.9c0,0,2.1,23.6-6.4,33.9L529,963.9L529,963.9z"/>
		<path class="st1" d="M538.1,954.6c0,0,0.5,2.2,0.9,2.8c0,0,0.9,1.7,0.8,3l-0.2,2.7c0,0-0.1,3.5,0.9,3.2l5.7-3.3
			c0,0-0.9-1.7-0.6-3.3c0,0-0.3-4.1-0.8-5.1c0,0-0.9-3.6-2.2-4.3L538.1,954.6z"/>
		<path class="st1" d="M552.1,959.1c0,0,0.9,6,0,8.1c0,0-0.9,3,0,5.3l-6.6,3.2c0,0-0.7-2,0-3.5c0,0,0.9-2.4,0.6-3.8
			c0,0-1-3.8-0.5-5.1L552.1,959.1L552.1,959.1z M555.9,970.8c0,0,0.2,7.2-1.4,9.5c0,0-1.8,3.6-1.2,6.4c0,0,2.2,7.7-3.9,12.6
			l-3.6-6.3c0,0,2.1-2.5,1.3-5.4c0,0-1.6-3.8,0.5-5.9c0,0,1.6-3.3,1.3-7.7L555.9,970.8L555.9,970.8z"/>
		<path class="st5" d="M558.1,937.8l0.1-0.3l1.6-4.3l-4.3,1.6l-0.3,0.1l-0.1,0.3l-1.3,3.4L521.9,970l0.6,0.6l31.9-31.4l3.4-1.2
			L558.1,937.8L558.1,937.8z M570.3,950l0.2-0.2l2.5-3.9l-4.6,0.6h-0.3l-0.1,0.2l-2,3l-37.8,24l0.4,0.7l37.8-24l3.6-0.5L570.3,950
			L570.3,950z M576.3,963.8l0.2-0.2l3-3.5h-4.6h-0.3l-0.2,0.2L572,963l-40.8,18.5l0.4,0.8l40.8-18.5h3.6H576.3L576.3,963.8z"/>
		<path class="st8" d="M533.3,933.4c0,0,0,7.3,9.5,11.7C542.8,945.1,540.5,934.6,533.3,933.4z"/>
		<path class="st6" d="M533.3,933.4c0,0,0,7.3,9.5,11.7C542.8,945.1,540.5,934.6,533.3,933.4z"/>
		<path class="st8" d="M548.8,950.8c0,0,1.8-9.9-8.3-17.9C540.5,933,538.6,948.9,548.8,950.8z"/>
		<path class="st6" d="M548.8,950.8c0,0,1.8-9.9-8.3-17.9C540.5,933,538.6,948.9,548.8,950.8z"/>
		<path class="st8" d="M555.1,959.1c0,0,3.5-10.1-5-18.9C550.1,940.2,545.6,957.6,555.1,959.1z"/>
		<path class="st6" d="M555.1,959.1c0,0,3.5-10.1-5-18.9C550.1,940.2,545.6,957.6,555.1,959.1z"/>
		<path class="st8" d="M559.5,968.8c0,0,5.2-9.5-1.1-19.7C558.4,949.2,550.5,966.3,559.5,968.8z"/>
		<path class="st6" d="M559.5,968.8c0,0,5.2-9.5-1.1-19.7C558.4,949.2,550.5,966.3,559.5,968.8z"/>
		<path class="st8" d="M561.1,978.9c0,0,9-6.6,3.6-19.7C564.7,959.2,555,973,561.1,978.9z"/>
		<path class="st6" d="M561.1,978.9c0,0,9-6.6,3.6-19.7C564.7,959.2,555,973,561.1,978.9z"/>
		<path class="st8" d="M561.6,988c0,0,8.3,0.9,7.9-17.4C569.5,970.6,558.9,977.4,561.6,988z"/>
		<path class="st6" d="M561.6,988c0,0,8.3,0.9,7.9-17.4C569.5,970.6,558.9,977.4,561.6,988z"/>
		<path class="st8" d="M561,998c0,0,8.3,3,10.8-15.5C571.8,982.5,558.3,989.3,561,998"/>
		<path class="st6" d="M561,998c0,0,8.3,3,10.8-15.5C571.8,982.5,558.3,989.3,561,998L561,998z"/>
		<path class="st8" d="M558.3,1007.9c0,0,7.5,4.2,13.5-13.2C571.8,994.7,556.6,998.6,558.3,1007.9"/>
		<path class="st6" d="M558.3,1007.9c0,0,7.5,4.2,13.5-13.2C571.8,994.7,556.6,998.6,558.3,1007.9L558.3,1007.9z"/>
		<path class="st8" d="M554.8,1016.9c0,0,5.9,5.5,14.7-10.5C569.6,1006.4,553,1007.3,554.8,1016.9z"/>
		<path class="st6" d="M554.8,1016.9c0,0,5.9,5.5,14.7-10.5C569.6,1006.4,553,1007.3,554.8,1016.9z"/>
		<path class="st8" d="M549,1024.9c0,0,4.1,7.4,16.1-7.1C565.1,1017.8,548.2,1015.7,549,1024.9z"/>
		<path class="st6" d="M549,1024.9c0,0,4.1,7.4,16.1-7.1C565.1,1017.8,548.2,1015.7,549,1024.9z"/>
		<path class="st8" d="M541.8,1033.1c0,0,5.6,5.3,16.5-5.1C558.3,1028,542.2,1023.2,541.8,1033.1"/>
		<path class="st6" d="M541.8,1033.1c0,0,5.6,5.3,16.5-5.1C558.3,1028,542.2,1023.2,541.8,1033.1L541.8,1033.1z"/>
		<path class="st8" d="M533.5,1038.9c0,0,4.6,6.1,17.2-2.3C550.7,1036.6,535.6,1029.2,533.5,1038.9"/>
		<path class="st6" d="M533.5,1038.9c0,0,4.6,6.1,17.2-2.3C550.7,1036.6,535.6,1029.2,533.5,1038.9L533.5,1038.9z"/>
		<path class="st8" d="M523.6,1042.4c0,0,3.1,7,17.2,1.6C540.8,1044,527.9,1033.4,523.6,1042.4z"/>
		<path class="st6" d="M523.6,1042.4c0,0,3.1,7,17.2,1.6C540.8,1044,527.9,1033.4,523.6,1042.4z"/>
		<path class="st8" d="M536.2,939l-2.9-2.7c0,0-3.9-5.3-8.6-4.1c0,0,0.9,1.4,1.2,1.9C526,934.2,530.2,940.5,536.2,939z"/>
		<path class="st6" d="M536.2,939l-2.9-2.7c0,0-3.9-5.3-8.6-4.1c0,0,0.9,1.4,1.2,1.9C526,934.2,530.2,940.5,536.2,939z"/>
		<path class="st8" d="M542.3,943.8l-4.2-2c0,0-5.3-3.3-8.4-0.9c0,0,1.4,1.4,1.7,1.8C531.4,942.7,537.8,947.4,542.3,943.8"/>
		<path class="st6" d="M542.3,943.8l-4.2-2c0,0-5.3-3.3-8.4-0.9c0,0,1.4,1.4,1.7,1.8C531.4,942.7,537.8,947.4,542.3,943.8
			L542.3,943.8z"/>
		<path class="st8" d="M553,951.7c0,0-6.6-9-18-4.6C535,947.1,542.9,955,553,951.7z"/>
		<path class="st6" d="M553,951.7c0,0-6.6-9-18-4.6C535,947.1,542.9,955,553,951.7z"/>
		<path class="st8" d="M558.4,960.7c0,0-4.4-9.8-16.2-8C542.2,952.8,550.9,963,558.4,960.7z"/>
		<path class="st6" d="M558.4,960.7c0,0-4.4-9.8-16.2-8C542.2,952.8,550.9,963,558.4,960.7z"/>
		<path class="st8" d="M562.8,970.8c0,0-2.7-11-14.7-11C548,959.8,553.3,970.6,562.8,970.8"/>
		<path class="st6" d="M562.8,970.8c0,0-2.7-11-14.7-11C548,959.8,553.3,970.6,562.8,970.8L562.8,970.8z"/>
		<path class="st8" d="M564.9,981.1c0,0,0.3-10.5-12.2-13.5C552.7,967.6,556.2,979.9,564.9,981.1z"/>
		<path class="st6" d="M564.9,981.1c0,0,0.3-10.5-12.2-13.5C552.7,967.6,556.2,979.9,564.9,981.1z"/>
		<path class="st8" d="M565.2,992.3c0,0,1.9-10.4-9.5-15.8C555.7,976.5,556.9,989.4,565.2,992.3z"/>
		<path class="st6" d="M565.2,992.3c0,0,1.9-10.4-9.5-15.8C555.7,976.5,556.9,989.4,565.2,992.3z"/>
		<path class="st8" d="M563.7,1003.1c0,0,3.1-11.6-6.8-17.3C556.9,985.8,556.2,998.7,563.7,1003.1z"/>
		<path class="st6" d="M563.7,1003.1c0,0,3.1-11.6-6.8-17.3C556.9,985.8,556.2,998.7,563.7,1003.1z"/>
		<path class="st8" d="M547.6,1030.9c0,0,8.1-6.4,3.1-18.2C550.8,1012.6,543.1,1023.8,547.6,1030.9z"/>
		<path class="st6" d="M547.6,1030.9c0,0,8.1-6.4,3.1-18.2C550.8,1012.6,543.1,1023.8,547.6,1030.9z"/>
		<path class="st8" d="M513.8,1044.8c0,0,2.7,6,11.9,4.6c0,0-0.6-4.8-5.9-5.2c0,0,3.6-5.4,0.3-9.9
			C520.1,1034.3,516.1,1036.7,513.8,1044.8"/>
		<path class="st6" d="M513.8,1044.8c0,0,2.7,6,11.9,4.6c0,0-0.6-4.8-5.9-5.2c0,0,3.6-5.4,0.3-9.9
			C520.1,1034.3,516.1,1036.7,513.8,1044.8L513.8,1044.8z"/>
		<path class="st8" d="M501.1,1049c0,0,1.3,2.7,1.2,3.6c0,0,4.4-4.8,7.8-5.4l-0.1-1.9C509.9,1045.3,504.5,1046.8,501.1,1049z"/>
		<path class="st6" d="M501.1,1049c0,0,1.3,2.7,1.2,3.6c0,0,4.4-4.8,7.8-5.4l-0.1-1.9C509.9,1045.3,504.5,1046.8,501.1,1049z"/>
		<path class="st8" d="M509.5,1043.5c0,0-1.2,3.2,1.2,5.9c0,0,1.2,1.7,2.5,0c0,0,3.2-4.6,1.2-6.9
			C514.5,1042.4,511.4,1041.1,509.5,1043.5"/>
		<path class="st6" d="M509.5,1043.5c0,0-1.2,3.2,1.2,5.9c0,0,1.2,1.7,2.5,0c0,0,3.2-4.6,1.2-6.9
			C514.5,1042.4,511.4,1041.1,509.5,1043.5L509.5,1043.5z"/>
		<path class="st8" d="M560.1,1013.3c0,0,5.3-9.6-3.2-17.9C556.9,995.4,553.2,1008.2,560.1,1013.3z"/>
		<path class="st6" d="M560.1,1013.3c0,0,5.3-9.6-3.2-17.9C556.9,995.4,553.2,1008.2,560.1,1013.3z"/>
		<path class="st8" d="M554.7,1022.6c0,0,6.8-8.3,0.1-18.2C554.8,1004.4,549.1,1015.4,554.7,1022.6z"/>
		<path class="st6" d="M554.7,1022.6c0,0,6.8-8.3,0.1-18.2C554.8,1004.4,549.1,1015.4,554.7,1022.6z"/>
		<path class="st8" d="M538.6,1037.6c0,0,9.2-4.2,7.5-17C546.1,1020.7,536.7,1028,538.6,1037.6"/>
		<path class="st6" d="M538.6,1037.6c0,0,9.2-4.2,7.5-17C546.1,1020.7,536.7,1028,538.6,1037.6L538.6,1037.6z"/>
		<path class="st8" d="M529.6,1042.7c0,0,10.1-3.9,9.9-15.9C539.5,1026.8,527.7,1033.9,529.6,1042.7"/>
		<path class="st6" d="M529.6,1042.7c0,0,10.1-3.9,9.9-15.9C539.5,1026.8,527.7,1033.9,529.6,1042.7L529.6,1042.7z"/>
		<path class="st8" d="M519.1,1045.4c0,0,11.1-0.9,12.4-14.1C531.6,1031.3,520,1036,519.1,1045.4z"/>
		<path class="st6" d="M519.1,1045.4c0,0,11.1-0.9,12.4-14.1C531.6,1031.3,520,1036,519.1,1045.4z"/>
		<path class="st9" d="M541.4,1039.6c-0.2,0.8,0.3,1.5,1.1,1.8c0.8,0.2,1.6-0.2,1.8-1l0.5-2c0.2-0.8-0.2-1.5-1-1.8
			c-0.8-0.2-1.6,0.2-1.8,1L541.4,1039.6L541.4,1039.6z"/>
		<path class="st6" d="M541.4,1039.6c-0.2,0.8,0.3,1.5,1.1,1.8c0.8,0.2,1.6-0.2,1.8-1l0.5-2c0.2-0.8-0.2-1.5-1-1.8
			c-0.8-0.2-1.6,0.2-1.8,1L541.4,1039.6L541.4,1039.6z"/>
		<path class="st9" d="M470.9,1017.3l1.7-4.6l66.4,20.2c0,0,4.5,0.9,3.2,5.6c0,0-1.1,4.3-6,3.2L470.9,1017.3z"/>
		<path class="st6" d="M470.9,1017.3l1.7-4.6l66.4,20.2c0,0,4.5,0.9,3.2,5.6c0,0-1.1,4.3-6,3.2L470.9,1017.3z"/>
		<path class="st9" d="M532.5,1039c-0.4,1.4,0.3,2.8,1.6,3.3c1.3,0.4,2.8-0.3,3.2-1.7l2-6.4c0.4-1.4-0.3-2.8-1.6-3.2
			c-1.3-0.4-2.8,0.3-3.2,1.7L532.5,1039L532.5,1039z"/>
		<path class="st6" d="M532.5,1039c-0.4,1.4,0.3,2.8,1.6,3.3c1.3,0.4,2.8-0.3,3.2-1.7l2-6.4c0.4-1.4-0.3-2.8-1.6-3.2
			c-1.3-0.4-2.8,0.3-3.2,1.7L532.5,1039L532.5,1039z"/>
		<path class="st9" d="M544,1041.3l0.9-3.2c0,0,0.5-1.9,2.3-1.3c0,0,1.2,0.8,0.7,2.4l-0.8,2.5c0,0-0.7,2.3-2.3,1.7
			C544.8,1043.4,543.4,1043,544,1041.3"/>
		<path class="st6" d="M477.3,1014.1l-1.7,4.8 M544,1041.3l0.9-3.2c0,0,0.5-1.9,2.3-1.3c0,0,1.2,0.8,0.7,2.4l-0.8,2.5
			c0,0-0.7,2.3-2.3,1.7C544.8,1043.4,543.4,1043,544,1041.3L544,1041.3z"/>
		<path class="st10" d="M511.7,933.4l-45,77h89L511.7,933.4z"/>
		<path class="st1" d="M513.1,936.6l-1.3-1.7l-1.1,2.2v36.1l-0.6,0.4l-10.3-18.5l-1.3,2.2l10.4,17.2l-0.4,0.6l-15.4-8.6l-1.6,2.4
			l16.3,7.3l-0.4,0.7l-18.7-3.5l-1.8,2.6l19.8,2.2l-0.2,0.7l-22.1,1.8l-1.1,2.2l22.9-2.4l0.2,0.7l-26,6.4l-1.8,2.9l28.2-8.4l0.4,0.7
			l-32.6,14.5l-1.3,2.2l34.8-16.1l0.7,0.4l-8.1,7.1l1.5,1.1l7.3-7.7l0.8,0.2l-4.2,9.3l1.8,0.4l3.3-9.5l-0.6,7.1h1.1v-7l2.7,8.2
			l2,0.2l-3.9-9l9,9l1.8-1.5l-9.5-7.9l0.5-0.6l35.6,17.2l-1.7-2.6l-33-15.4l0.2-0.6l28.8,8.8l-1.5-2.4l-26.9-7.3l-0.2-0.7l24.4,3.1
			l-1.3-2.4l-23.1-2V978l20-2.8l-1.3-2l-18.9,3.5L515,976l17-7l-1.3-2l-15.9,8.1l-0.4-0.6l10.6-17.6l-1.5-2.6l-10.2,19.1l-0.7-0.2
			L513.1,936.6L513.1,936.6z"/>
		<path class="st11" d="M511.9,976.3c0,0-2.4,1.1-1.5,1.8c0,0,0.7,0.9,0.1,1.3c0,0-1.4,0.4-1.3,1.3c0,0,0.1,0.7,1,0.7h2.9
			c0,0,1.1-0.1,1.1-1.3C514.2,980.3,514.3,976,511.9,976.3z"/>
		<path class="st7" d="M550.1,1000.3h-77.5l-5.9,10.1h89L550.1,1000.3z"/>
		<path class="st1" d="M492.2,1001.6c-0.1,0.1-0.6,0.6-1.1,0.9c-1.5,0.3-3.9,0-4.4-0.1c-0.2-0.2-1-1-1-1s-1.7,0.9-1.9,1
			c-1.4,0.2-2.7,0.1-3.1,0.1c-1.2-1.2-3.6-0.2-3.7-0.2c-1.3,0.6-2.8-0.8-2.8-0.8l-0.6,0.7c0.1,0.1,2,1.9,3.8,0.9
			c0.6-0.2,2.2-0.7,2.7,0.1l0.1,0.2h0.2c0.1,0,1.7,0.1,3.5-0.1h0.1c0,0,1-0.5,1.4-0.8c0.3,0.3,0.7,0.8,0.7,0.8h0.2
			c0.1,0,3.1,0.4,4.9,0.1h0.1l0.1-0.1c0.2-0.1,0.7-0.5,1.1-0.8c0.3,0.3,0.7,0.7,1.3,0.9h0.1h0.1c0.4,0,3.5,0.5,4.8-0.2h-0.1
			c0.1,0,0.9-0.3,1.4-0.8c0.1-0.1,0.5-0.2,0.8,0.3v0.1v0.1c0.1,0.1,1,0.8,1.8,0.6h-0.1h3.6h0.1c0.1,0,0.7-0.3,1-0.7
			c0.2-0.1,0.5-0.2,0.7-0.2l0.2,0.1l0,0l0.1,0.1c0.1,0.1,0.6,0.6,1.4,0.6l3.3,0.1l0,0l0,0c0.1,0,1-0.2,1.4-1l-0.1,0.2
			c0,0,0.2-0.2,0.3-0.2s0.3,0.2,0.5,0.4l0.1,0.1l0.1,0.1c0.1,0,0.7,0.4,1.2,0.4l2.6-0.1c0.1,0,0.8-0.2,1.1-0.6
			c0.1-0.1,0.6-0.4,1,0.1l0,0l0,0c0.1,0.1,0.7,0.5,1.4,0.4l3.1,0.1c0.3,0.1,1,0,1.3-0.5c0.2-0.1,0.5-0.2,0.6-0.1l0.5,0.6h0.2
			c0.1,0,2.4,0.4,3.9,0c0,0,0.6-0.1,1-0.5c0.3-0.1,0.9-0.2,1.2,0c0,0,1.1,0.8,2.6,0.7c0,0,0.1,0,0.2,0l0,0l0,0
			c0.4,0,1.8-0.2,2.4-0.7l-0.1,0.1c0,0,0.9-0.4,1.7,0c0.1,0.1,1,0.5,1.9,0.4c0.2,0,3,0.2,4.6,0h0.1l0.1-0.1c0.2-0.2,0.8-0.6,1.4-0.5
			l0.2-0.9c-0.9-0.2-1.8,0.3-2.1,0.6c-1.5,0.2-4.3,0-4.3,0H543l0,0c-0.5,0.1-1.2-0.2-1.4-0.3c-1.2-0.7-2.5,0-2.5,0H539v0.1
			c-0.2,0.2-0.8,0.3-1.4,0.4h-0.1c-0.1,0-0.3,0-0.5,0c-1.1,0.1-1.9-0.4-1.9-0.5c-0.7-0.6-1.9-0.2-2.1-0.2h-0.1l-0.1,0.1
			c-0.2,0.2-0.5,0.3-0.7,0.3c-1.2,0.3-3,0.1-3.4,0c-0.1-0.1-0.3-0.3-0.3-0.3c-0.6-0.6-1.4-0.2-1.8,0.1l-0.1,0.1v0.1
			c-0.1,0.2-0.5,0.2-0.5,0.2l-3.2-0.1l0,0l0,0c-0.3,0.1-0.6-0.2-0.7-0.2l0.1,0.1c-0.8-1-1.9-0.6-2.3-0.3l-0.1,0.1v0.1
			c-0.1,0.1-0.4,0.3-0.5,0.3l-2.5,0.1c-0.2,0-0.5-0.1-0.7-0.2c-0.3-0.4-0.7-0.7-1.1-0.7c-0.6,0-1,0.4-1.1,0.5h-0.1v0.1
			c-0.1,0.2-0.5,0.3-0.6,0.4c-0.1,0-3.2-0.1-3.2-0.1c-0.5,0-0.8-0.3-0.8-0.3l0.1,0.1c-0.2-0.3-0.4-0.5-0.7-0.6
			c-0.7-0.2-1.4,0.2-1.5,0.3l-0.1,0.1l-0.1,0.1c-0.1,0.2-0.4,0.4-0.6,0.4s-3.5,0-3.5,0l0,0c-0.3,0.1-0.9-0.3-1.1-0.5l0.1,0.1
			c-0.6-1-1.6-0.8-2-0.6l-0.1,0.1l-0.1,0.1c-0.2,0.3-0.8,0.5-0.9,0.6l0,0l0,0c-0.9,0.4-3.3,0.2-4.2,0.1c-0.6-0.3-1.2-0.9-1.2-1
			l-0.4-0.5L492.2,1001.6L492.2,1001.6z"/>
		<path class="st1" d="M491.4,1003.7c-0.1,0.1-0.6,0.6-1.1,0.9c-1.5,0.3-3.9,0-4.4-0.1l-1-1c0,0-1.7,0.9-1.9,1
			c-1.4,0.2-2.7,0.1-3.1,0.1c-1.2-1.2-3.6-0.2-3.7-0.2c-1.3,0.6-2.8-0.8-2.8-0.8l-0.6,0.7c0.1,0.1,2,1.9,3.8,1
			c0.6-0.2,2.2-0.7,2.7,0.1l0.1,0.2h0.2c0.1,0,1.7,0.1,3.5-0.1h0.1c0,0,1-0.5,1.4-0.8c0.2,0.2,0.8,0.7,0.8,0.7h0.1
			c0.1,0,3.1,0.4,4.9,0.1h0.1l0.1-0.1c0.2-0.1,0.7-0.5,1.1-0.8c0.3,0.3,0.7,0.6,1.2,0.9h0.1h0.1c0.4,0.1,3.5,0.4,4.8-0.1h-0.1
			c0.1,0,0.9-0.3,1.4-0.8c0.1-0.1,0.5-0.1,0.8,0.3v0.1v0.1c0.1,0.1,1,0.8,1.8,0.6h-0.1h3.6h0.1c0.1,0,0.7-0.3,1-0.7
			c0.2-0.1,0.5-0.2,0.7-0.2l0.2,0.1v0.1h0.1c0.1,0.1,0.6,0.6,1.4,0.6l3.3,0.1l0,0l0,0c0.1,0,1.1-0.2,1.4-0.9l-0.1,0.1
			c0,0,0.2-0.2,0.3-0.2s0.3,0.2,0.5,0.4v0.1l0.1,0.1c0.1,0.1,0.7,0.4,1.2,0.4l2.5-0.1c0.1,0,0.8-0.2,1.2-0.6c0.1-0.1,0.6-0.3,1,0.1
			l0,0l0,0c0.1,0.1,0.7,0.5,1.4,0.4l3.1,0.1c0.3,0.1,1,0,1.3-0.5c0.2-0.1,0.5-0.2,0.6-0.1l0.5,0.5h0.2c0.1,0,2.4,0.4,3.9,0
			c0.1,0,0.6-0.1,1-0.5c0.3-0.1,0.9-0.2,1.2,0c0,0.1,1.1,0.8,2.5,0.7h0.2l0,0c0.4,0,1.9-0.2,2.4-0.7l-0.1,0.1c0,0,0.9-0.4,1.7,0
			c0.1,0.1,1,0.5,1.9,0.4c0.2,0,3.1,0.2,4.6,0h0.1l0.1-0.1c2.9,0,3.1-1,3.7-0.8l-0.5-1c-0.9-0.2-0.6,1.1-3.7,1.1
			c-1.5,0.2-4.3,0-4.3,0l0,0h-0.1c-0.5,0.1-1.2-0.2-1.4-0.3c-1.2-0.6-2.5,0-2.5,0h-0.1h-0.1c-0.2,0.2-0.8,0.3-1.4,0.4h-0.1
			c-0.1,0-0.3,0-0.5,0c-1.1,0.1-1.9-0.5-1.9-0.5c-0.7-0.6-1.9-0.2-2.1-0.2h-0.1l-0.1,0.1c-0.2,0.2-0.5,0.3-0.7,0.3
			c-1.2,0.3-2.9,0.1-3.4,0c-0.1-0.1-0.3-0.3-0.3-0.3c-0.6-0.6-1.4-0.2-1.8,0.1l-0.1,0.1v0.1c-0.1,0.2-0.5,0.1-0.5,0.1l-3.1-0.1h-0.1
			h-0.1c-0.3,0.1-0.6-0.2-0.7-0.2h0.1c-0.8-1-1.9-0.6-2.3-0.3l-0.1,0.1v0.1c-0.1,0.2-0.4,0.3-0.5,0.3l-2.5,0.1
			c-0.2,0-0.5-0.2-0.7-0.2c-0.3-0.4-0.7-0.7-1.1-0.7c-0.6-0.1-1.1,0.4-1.1,0.5v0.1v0.1c-0.1,0.3-0.5,0.4-0.6,0.4
			c-0.1,0-3.3-0.1-3.3-0.1c-0.5,0-0.8-0.3-0.8-0.3l0.1,0.1c-0.2-0.3-0.4-0.5-0.7-0.6c-0.7-0.2-1.4,0.3-1.5,0.3l-0.1,0.1l-0.1,0.1
			c-0.1,0.2-0.4,0.3-0.6,0.4c-0.2,0-3.5,0-3.5,0l0,0c-0.3,0.1-0.9-0.3-1.1-0.4l0.1,0.1c-0.6-1-1.6-0.8-2-0.6h-0.1l-0.1,0.1
			c-0.2,0.3-0.8,0.5-0.9,0.6l0,0l0,0c-0.9,0.4-3.3,0.2-4.2,0.1c-0.6-0.3-1.2-0.9-1.2-1l-0.4-0.5L491.4,1003.7L491.4,1003.7z"/>
		<path class="st1" d="M490.6,1005.6c-0.1,0.2-0.6,0.6-1.1,0.9c-1.6,0.3-4,0-4.5-0.1c-0.2-0.2-1-1-1-1s-1.8,0.9-1.9,1
			c-1.5,0.2-2.8,0.1-3.2,0.1c-1.2-1.2-3.7-0.2-3.8-0.2c-1.3,0.6-2.9-0.8-2.9-0.8l-0.7,0.7c0.1,0.1,2.1,1.9,3.9,1
			c0.6-0.2,2.3-0.7,2.8,0.1l0.1,0.2h0.2c0.1,0,1.8,0.1,3.6-0.1h0.1c0,0,1-0.5,1.5-0.8l0.8,0.8h0.2c0.1,0,3.2,0.4,5,0.1h0.1l0.1-0.1
			c0.2-0.1,0.7-0.5,1.1-0.8c0.3,0.3,0.8,0.7,1.3,0.9h0.1h0.1c0.4,0.1,3.6,0.4,4.9-0.1h-0.1c0.1,0,0.9-0.3,1.4-0.8
			c0.1,0,0.5-0.2,0.8,0.3v0.1l0.1,0.1c0.1,0.1,1,0.8,1.9,0.7h-0.1h3.7h0.1c0.1,0,0.7-0.3,1.1-0.7c0.2-0.1,0.5-0.2,0.7-0.2l0.2,0.1
			l0,0v0.1c0.1,0,0.6,0.6,1.5,0.6l3.4,0.1h0.1c0.1,0,1.1-0.2,1.4-0.9l-0.1,0.1c0,0,0.2-0.2,0.4-0.2c0.1,0,0.3,0.2,0.5,0.4v0.1
			l0.1,0.1c0.1,0,0.7,0.4,1.3,0.4l2.6-0.1c0.1,0,0.8-0.2,1.2-0.6c0.1-0.1,0.6-0.4,1.1,0.1l0,0l0,0c0.1,0.1,0.7,0.5,1.4,0.4l3.2,0.1
			c0.3,0.1,1,0,1.4-0.5c0.2-0.1,0.5-0.2,0.6-0.1l0.6,0.5h0.2c0.1,0,2.5,0.3,4,0c0,0,0.6-0.1,1-0.5c0.3-0.1,0.9-0.2,1.2,0
			c0,0,1.1,0.8,2.6,0.6c0,0,0.1,0,0.2,0l0,0l0,0c0.4,0,1.9-0.2,2.4-0.7l-0.1,0.1c0,0,0.9-0.4,1.7,0c0.1,0.1,1,0.5,1.9,0.4
			c0.2,0,3.1,0.2,4.7,0h0.1l0.1-0.1c2.9,0,3.2-1,3.8-0.8l-0.5-1c-0.9-0.2-0.6,1.1-3.8,1.1c-1.5,0.2-4.4,0-4.4,0h-0.1l0,0
			c-0.5,0.1-1.2-0.2-1.4-0.3c-1.2-0.7-2.5,0-2.6,0l-0.1,0.1h-0.1c-0.2,0.2-0.8,0.3-1.5,0.4l0,0h-0.1c-0.1,0-0.3,0-0.5,0
			c-1.1,0.1-1.9-0.5-1.9-0.5c-0.7-0.6-2-0.2-2.1-0.2h-0.1l-0.1,0.1c-0.2,0.2-0.6,0.3-0.7,0.3c-1.2,0.3-3,0.1-3.5,0
			c-0.1-0.1-0.3-0.3-0.3-0.3c-0.6-0.6-1.4-0.2-1.9,0.1l-0.1,0.1l-0.1,0.2c-0.1,0.2-0.5,0.1-0.5,0.1l-3.2-0.1H522h-0.1
			c-0.3,0.1-0.6-0.2-0.7-0.2l0.1,0.1c-0.9-1-1.9-0.6-2.3-0.3l-0.1,0.1v0.1c-0.1,0.2-0.4,0.3-0.6,0.3l-2.5,0.1
			c-0.2,0-0.5-0.2-0.7-0.3c-0.3-0.4-0.7-0.7-1.1-0.7c-0.6-0.1-1.1,0.4-1.1,0.5l-0.1,0.1v0.1c-0.1,0.2-0.5,0.4-0.6,0.4
			s-3.3-0.1-3.3-0.1c-0.5,0-0.8-0.3-0.8-0.3l0.1,0.1c-0.2-0.3-0.4-0.5-0.7-0.6c-0.7-0.2-1.4,0.3-1.5,0.3l-0.1,0.1l-0.1,0.1
			c-0.1,0.2-0.4,0.3-0.6,0.4c-0.2,0-3.6,0-3.6,0l0,0c-0.4,0.1-0.9-0.3-1.1-0.4l0.1,0.1c-0.6-1-1.6-0.8-2.1-0.6l-0.1,0.1l-0.1,0.1
			c-0.2,0.3-0.8,0.5-0.9,0.6h-0.1l0,0c-0.9,0.4-3.3,0.2-4.3,0.1c-0.7-0.3-1.3-1-1.3-1l-0.4-0.5L490.6,1005.6L490.6,1005.6z"/>
		<path class="st1" d="M490.2,1007.8c-0.1,0.2-0.7,0.6-1.2,0.9c-1.6,0.3-4.1,0-4.6-0.1c-0.2-0.2-1.1-1-1.1-1s-1.8,0.9-2,1
			c-1.5,0.2-2.9,0.1-3.3,0.1c-1.2-1.2-3.8-0.2-3.9-0.2c-1.3,0.6-3-0.8-3-0.8l-0.7,0.7c0.1,0.1,2.1,1.9,4.1,1
			c0.6-0.2,2.3-0.7,2.9,0.1l0.1,0.2h0.2c0.1,0,1.8,0.1,3.7-0.1h0.1c0,0,1.1-0.6,1.5-0.8c0.3,0.2,0.8,0.8,0.8,0.8h0.2
			c0.1,0,3.3,0.4,5.2,0.1h0.1h0.1c0.2-0.1,0.7-0.5,1.1-0.8c0.3,0.3,0.8,0.6,1.3,0.9h0.1h0.1c0.4,0,3.7,0.4,5.1-0.1H497
			c0.1,0,0.9-0.3,1.4-0.8c0.1-0.1,0.5-0.2,0.8,0.3v0.1h0.1c0.1,0.1,1,0.8,1.9,0.7h-0.1h3.8h0.1c0.1,0,0.7-0.3,1.1-0.7
			c0.2-0.1,0.5-0.2,0.7-0.2c0.1,0,0.1,0,0.2,0.1l0,0v0.1c0.1,0,0.6,0.6,1.5,0.6l3.5,0.1h0.1c0.1,0,1.1-0.2,1.4-1l-0.1,0.1
			c0,0,0.2-0.2,0.3-0.2c0.2,0,0.3,0.2,0.5,0.4l0.1,0.1l0.1,0.1c0.1,0,0.7,0.4,1.3,0.4l2.7-0.1c0.1,0,0.8-0.2,1.2-0.7
			c0.1-0.1,0.6-0.3,1.1,0.2l0,0l0,0c0.1,0.1,0.7,0.5,1.5,0.4l3.3,0.1c0.4,0.1,1.1,0,1.4-0.5c0.2-0.1,0.5-0.2,0.6-0.1l0.6,0.5h0.2
			c0.1,0,2.6,0.3,4.1,0c0.1,0,0.6-0.2,1-0.5c0.3-0.1,1-0.2,1.2,0c0.1,0,1.1,0.8,2.7,0.6c0,0,0.1,0,0.2,0l0,0l0,0
			c0.5,0,2-0.2,2.5-0.7l-0.1,0.1c0,0,1-0.4,1.8,0c0.1,0.1,1.1,0.5,2,0.4c0.2,0,3.2,0.2,4.9,0h0.1l0.1-0.1c3,0,3.3-1,3.9-0.8l-0.5-1
			c-1-0.2-0.6,1.1-3.9,1.1c-1.6,0.2-4.5,0-4.6,0h-0.1l0,0c-0.5,0.1-1.2-0.2-1.5-0.3c-1.2-0.7-2.6,0-2.7,0h-0.1h-0.1
			c-0.2,0.2-0.9,0.3-1.5,0.4h-0.1c-0.1,0-0.3,0-0.5,0c-1.2,0.1-2-0.5-2-0.5c-0.8-0.6-2-0.2-2.2-0.2h-0.1l-0.1,0.1
			c-0.2,0.2-0.6,0.3-0.7,0.3c-1.2,0.3-3.1,0.1-3.6,0c-0.1-0.1-0.3-0.3-0.3-0.3c-0.6-0.6-1.5-0.2-1.9,0.1l-0.1,0.1l-0.1,0.1
			c-0.1,0.2-0.5,0.1-0.5,0.1l-3.3-0.1h-0.1l0,0c-0.3,0-0.7-0.2-0.8-0.2l0.1,0.1c-0.9-1-2-0.6-2.4-0.3l-0.1,0.1v0.1
			c-0.1,0.2-0.4,0.3-0.6,0.3l-2.6,0.1c-0.2,0-0.5-0.1-0.7-0.3c-0.3-0.4-0.7-0.7-1.1-0.7c-0.7-0.1-1.1,0.4-1.2,0.5h-0.1v0.1
			c-0.1,0.2-0.5,0.4-0.6,0.4c-0.1,0-3.4-0.1-3.4-0.1c-0.5,0-0.8-0.3-0.8-0.3l0.1,0.1c-0.2-0.3-0.5-0.5-0.8-0.6
			c-0.7-0.2-1.5,0.2-1.6,0.3l-0.1,0.1l-0.1,0.1c-0.1,0.2-0.4,0.4-0.6,0.4s-3.7,0-3.7,0l0,0c-0.4,0.1-0.9-0.3-1.1-0.4l0.1,0.1
			c-0.6-1-1.7-0.8-2.1-0.6l-0.1,0.1l-0.1,0.1c-0.2,0.3-0.8,0.5-1,0.6l0,0l0,0c-0.9,0.4-3.4,0.2-4.4,0.1c-0.7-0.3-1.3-1-1.3-1
			l-0.4-0.5L490.2,1007.8L490.2,1007.8z"/>
		<path class="st12" d="M485.6,994l-6.3,4.3c0,0,0.4-6.5,1.6-10.7l12.4-21.2c0,0,5.6-6.4,18.2-6.8c0,0,10.8-0.4,17.9,6.5l12.3,21.2
			c0,0,2.1,7.5,2,10.4l-6.5-4.7c0,0-2-15.6-11.6-22.9c0,0-12.9-10.1-28.3-0.2C497.3,969.9,487.2,976.4,485.6,994"/>
		<path class="st9" d="M541.4,996.9c0,0-1.5-14.7-9.6-25.3c0,0-8-10.1-20.3-9.6c0,0-10.5-1.1-20.1,9.1c0,0-10.9,13.6-9.8,26.8
			l4.4-2.4c0,0,1.9-23.6,18.1-28.3c0,0,11.5-3.1,19.6,2.5c0,0,11.3,7.3,12.4,23L541.4,996.9L541.4,996.9z"/>
		<path class="st11" d="M511.8,967.1c0,0-19.4-2.3-24.8,25.1l-2.4,1.9c0,0,1.7-28.7,27-29.3c0,0,22.4-1.2,26.3,28.4l-2.5-1.7
			C535.4,991.3,532.2,967.6,511.8,967.1"/>
		<path class="st8" d="M519.4,1000.9h29.4c0,0-5.5-5.2-12.5-10.3c0,0-1.7-1.9-3.7-0.2C532.7,990.3,523.4,997.2,519.4,1000.9z"/>
		<path class="st6" d="M519.4,1000.9h29.4c0,0-5.5-5.2-12.5-10.3c0,0-1.7-1.9-3.7-0.2C532.7,990.3,523.4,997.2,519.4,1000.9z"/>
		<path class="st8" d="M508.3,1000.9h29.4c0,0-5.5-5.1-12.5-10.3c0,0-1.7-1.9-3.7-0.2C521.5,990.3,512.3,997.2,508.3,1000.9"/>
		<path class="st6" d="M508.3,1000.9h29.4c0,0-5.5-5.1-12.5-10.3c0,0-1.7-1.9-3.7-0.2C521.5,990.3,512.3,997.2,508.3,1000.9
			L508.3,1000.9z"/>
		<path class="st8" d="M497.3,1000.9h29.4c0,0-5.5-5.1-12.5-10.3c0,0-1.7-1.8-3.7-0.2C510.5,990.3,501.3,997.2,497.3,1000.9"/>
		<path class="st6" d="M497.3,1000.9h29.4c0,0-5.5-5.1-12.5-10.3c0,0-1.7-1.8-3.7-0.2C510.5,990.3,501.3,997.2,497.3,1000.9
			L497.3,1000.9z"/>
		<path class="st8" d="M486.2,1000.9h29.4c0,0-5.5-5.1-12.5-10.3c0,0-1.7-1.9-3.7-0.2C499.5,990.3,490.2,997.2,486.2,1000.9"/>
		<path class="st6" d="M486.2,1000.9h29.4c0,0-5.5-5.1-12.5-10.3c0,0-1.7-1.9-3.7-0.2C499.5,990.3,490.2,997.2,486.2,1000.9
			L486.2,1000.9z"/>
		<path class="st8" d="M475.1,1000.9h29.4c0,0-5.5-5.2-12.4-10.3c0,0-1.7-1.9-3.7-0.2C488.3,990.3,479.1,997.2,475.1,1000.9z"/>
		<path class="st6" d="M475.1,1000.9h29.4c0,0-5.5-5.2-12.4-10.3c0,0-1.7-1.9-3.7-0.2C488.3,990.3,479.1,997.2,475.1,1000.9z"/>
		<path class="st13" d="M511.7,933.8l-45,77h89L511.7,933.8z"/>
		<path class="st5" d="M547.7,934.1l10.7-2.7c0,0-7.7-2.2-9.5-2.4L547.7,934.1L547.7,934.1z"/>
		<path class="st6" d="M547.7,934.1l10.7-2.7c0,0-7.7-2.2-9.5-2.4L547.7,934.1L547.7,934.1z"/>
		<path class="st5" d="M477.4,934.2l-11.9-3c0,0,9.2-2.6,10.8-2.2L477.4,934.2z"/>
		<path class="st6" d="M477.4,934.2l-11.9-3c0,0,9.2-2.6,10.8-2.2L477.4,934.2z"/>
		<path class="st9" d="M482,1039.6c0.2,0.8-0.3,1.5-1,1.8c-0.8,0.2-1.6-0.2-1.8-1l-0.5-1.9c-0.2-0.8,0.2-1.5,1-1.8
			c0.8-0.2,1.6,0.2,1.8,1L482,1039.6L482,1039.6z"/>
		<path class="st6" d="M482,1039.6c0.2,0.8-0.3,1.5-1,1.8c-0.8,0.2-1.6-0.2-1.8-1l-0.5-1.9c-0.2-0.8,0.2-1.5,1-1.8
			c0.8-0.2,1.6,0.2,1.8,1L482,1039.6L482,1039.6z"/>
		<path class="st9" d="M552.5,1017.3l-1.7-4.7l-66.3,20.3c0,0-4.5,0.9-3.2,5.6c0,0,1.1,4.3,6,3.2L552.5,1017.3z"/>
		<path class="st6" d="M552.5,1017.3l-1.7-4.7l-66.3,20.3c0,0-4.5,0.9-3.2,5.6c0,0,1.1,4.3,6,3.2L552.5,1017.3z"/>
		<path class="st9" d="M491,1039c0.4,1.4-0.3,2.8-1.6,3.3c-1.3,0.4-2.8-0.3-3.2-1.7l-2.1-6.4c-0.4-1.4,0.3-2.8,1.6-3.2
			c1.3-0.4,2.8,0.3,3.2,1.7L491,1039L491,1039z"/>
		<path class="st6" d="M491,1039c0.4,1.4-0.3,2.8-1.6,3.3c-1.3,0.4-2.8-0.3-3.2-1.7l-2.1-6.4c-0.4-1.4,0.3-2.8,1.6-3.2
			c1.3-0.4,2.8,0.3,3.2,1.7L491,1039L491,1039z"/>
		<path class="st9" d="M479.5,1041.3l-0.9-3.2c0,0-0.5-1.9-2.3-1.4c0,0-1.2,0.8-0.7,2.4l0.8,2.5c0,0,0.7,2.3,2.3,1.7
			C478.7,1043.4,480,1043,479.5,1041.3z"/>
		<path class="st6" d="M546.1,1014.1l1.7,4.8 M479.5,1041.3l-0.9-3.2c0,0-0.5-1.9-2.3-1.4c0,0-1.2,0.8-0.7,2.4l0.8,2.5
			c0,0,0.7,2.3,2.3,1.7C478.7,1043.4,480,1043,479.5,1041.3z"/>
		<path class="st0" d="M413.1,990.3l11,0.7l0.1-1.6l-4.3-0.3l0.3-5.3l4.6-3.3l0.1-2l-4.8,3.5c-0.2-1.1-0.8-2.3-1.9-2.7
			c-1-0.4-2.2-0.4-3.1,0.3c-1.1,0.8-1.3,2.3-1.4,3.5L413.1,990.3z M414.8,988.8l0.4-5.4c0.1-0.9,0.3-1.9,1.1-2.5
			c0.7-0.5,1.7-0.1,2,0.7c0.6,1.4,0.3,2.9,0.2,4.3l-0.2,3.1L414.8,988.8L414.8,988.8z M414.5,973.4l10.7,2.5l2.4-10.4l-1.5-0.4
			L424,974l-3.3-0.8l1.9-8l-1.5-0.4l-1.9,8l-2.9-0.7l2-8.5l-1.5-0.4L414.5,973.4z M418.4,959l10.4,3.6l0.5-1.5l-4.1-1.4l1.6-4.7
			c0.4-1.3,0.6-2.8-0.1-4c-0.6-0.9-1.7-1.5-2.8-1.4c-1.2,0.1-2.2,0.9-2.7,2c-0.8,1.5-1.2,3.1-1.8,4.7L418.4,959z M420.4,958l1.7-4.7
			c0.4-0.8,0.8-1.8,1.8-2.1c0.8-0.2,1.6,0.4,1.7,1.2c0.2,1.5-0.5,2.9-0.9,4.2l-0.9,2.5L420.4,958z M424.2,945.7l5.9,3.4
			c1.1,0.6,2.5,0.9,3.7,0.3c1.6-0.9,2.6-2.5,3.4-4.1c0.6-1.3,1.1-3,0.3-4.3c-0.8-1.4-2.4-2-3.7-2.8L430,936l-0.8,1.4l5.6,3.3
			c0.9,0.5,1.6,1.5,1.5,2.6c-0.2,1.3-0.9,2.4-1.7,3.5c-0.6,0.8-1.6,1.5-2.7,1.3s-2.1-1-3-1.5l-3.7-2.2L424.2,945.7z M432.1,932.7
			l8.7,6.7l4.1-5.3c0.8-1.1,1.5-2.6,1-4c-0.5-1.1-1.6-1.9-2.8-2c-0.5-0.1-1.3,0.3-1.6,0.5c0.3-1.2-0.6-2.3-1.7-2.6
			c-1.3-0.5-2.6,0.4-3.5,1.3c-1,1.1-1.9,2.3-2.8,3.5L432.1,932.7z M434.3,932.4l3.1-3.9c0.5-0.6,1.3-1.2,2.1-0.8
			c0.7,0.3,0.9,1.2,0.5,1.8c-0.5,1.1-1.4,2.1-2.2,3.1l-1.2,1.6L434.3,932.4z M437.9,935.1l3.2-4.1c0.6-0.6,1.3-1.4,2.2-1.2
			c0.8,0.2,1.3,1,1.1,1.8c-0.4,1.4-1.5,2.5-2.4,3.7l-1.4,1.8L437.9,935.1z M442,921l7.6,8l6.5-6.1l-1.1-1.1l-5.2,4.9l-0.1,0.1
			l-0.1-0.1l-6.4-6.8L442,921z M451.7,912.6l6.7,8.7l1.3-1l-6.7-8.7L451.7,912.6z M461.6,905.9c-1.1,0.7-2,1.5-2.6,2.4
			c-0.7,0.9-1,1.9-1.1,2.9s0.2,2,0.8,2.9c0.5,0.9,1.3,1.6,2.2,2c0.9,0.5,1.9,0.7,2.9,0.5c1.1-0.1,2.3-0.6,3.6-1.4
			c1.3-0.8,2.2-1.7,2.8-2.8c0.5-1,0.7-2.1,0.5-3.2l-1.5,0.6c0.4,2.2-1,3.3-2.6,4.3c-2.5,1.5-4.9,1.4-6.4-0.9
			c-1.5-2.6,0.1-4.7,2.3-6.1c1.5-0.9,3-1.6,4.4-0.7l1.2-1.1c-0.8-0.6-1.8-0.8-2.8-0.8C463.9,904.7,462.8,905.1,461.6,905.9z
			 M474.6,899.4l-1.2,12.3l1.7-0.7l0.3-3.8l0,0l5.6-2.2l2.9,2.5l1.7-0.7l-9.4-8.1L474.6,899.4L474.6,899.4z M476.1,900.6l3.7,3.2
			l-4.1,1.7L476.1,900.6L476.1,900.6z M498.7,892.6l0.7,11l6-0.4c1.6-0.2,3.2-0.6,4.3-1.8c1.4-1.5,1.6-3.8,1-5.7
			c-0.5-1.7-2-2.9-3.7-3.3c-1.7-0.3-3.4-0.1-5.1,0L498.7,892.6z M500.4,894l4.7-0.2c0.9,0,1.8,0.2,2.5,0.8c1.1,0.8,1.7,2.1,1.6,3.4
			c-0.1,1.5-1.2,2.9-2.7,3.3c-0.8,0.2-1.7,0.3-2.6,0.4l-3.1,0.2L500.4,894L500.4,894z M514,891.9l-0.6,11l10.7,0.6l0.1-1.6l-9.1-0.5
			l0.2-3.3l8.2,0.5l0.1-1.6l-8.2-0.5l0.2-3l8.8,0.5l0.1-1.6L514,891.9z M542.8,896.5l-4,10.3l1.4,0.6l3.2-8.1l0.2-0.4l0.2,0.5
			l3.8,10.9l1.9,0.7l4-10.3l-1.4-0.6l-3.2,8.1l-0.2,0.4l-0.2-0.5l-3.8-10.9L542.8,896.5z M557.6,902.9l-5,9.8l-1.5-0.8l5-9.8
			L557.6,902.9z M565.9,907.7c-1.1-0.7-2.2-1.2-3.3-1.4s-2.1-0.2-3.1,0.2c-0.9,0.4-1.7,1-2.3,2c-0.6,0.8-0.9,1.8-0.9,2.8
			c-0.1,1,0.2,2,0.7,2.9c0.6,0.9,1.5,1.8,2.8,2.7c1.3,0.8,2.5,1.3,3.7,1.3c1.1,0.1,2.2-0.2,3.1-0.9l-1.2-1.1c-1.8,1.3-3.4,0.4-5-0.6
			c-2.4-1.6-3.3-3.9-1.9-6.2c1.7-2.5,4.3-1.8,6.4-0.5c1.5,1,2.7,2.1,2.5,3.7l1.5,0.6c0.2-1,0-1.9-0.5-2.9
			C568,909.4,567.1,908.5,565.9,907.7L565.9,907.7z M576.4,915.6l-11.5,4.6l1.4,1.2l3.6-1.4l0,0l4.5,3.9l-0.9,3.7l1.4,1.2l2.9-12
			L576.4,915.6L576.4,915.6z M575.9,917.5l-1.2,4.7l-3.3-2.9L575.9,917.5z M584.7,923.3l-8.5,7l1,1.2l3.3-2.8l3.4,4.1l-1.1,5.6
			l1.3,1.6l1.1-5.9c1,0.8,2.3,1.2,3.5,0.6c1-0.5,1.8-1.4,1.9-2.5c0.1-1.5-1-2.7-1.8-3.9L584.7,923.3z M584.5,925.5l3.6,4.4
			c0.5,0.8,1.2,1.9,0.6,2.8c-0.5,0.8-1.6,0.7-2.2,0.2c-1.3-0.9-2.2-2.3-3.3-3.5l-1.3-1.6L584.5,925.5z M597.6,940.8l-12.4,0.6
			l0.9,1.6l3.8-0.2l0,0l3,5.2l-2.1,3.2l0.9,1.6l6.7-10.4L597.6,940.8z M596.5,942.5l-2.6,4.1l-2.2-3.8L596.5,942.5L596.5,942.5z
			 M604.6,955.4c-0.7-1.9-1.8-3.8-3.6-4.7c-2-1-4.8-0.5-6.2,1.3c-1.3,1.5-1.3,3.6-1,5.5c0.4,2.1,1.4,4.1,2.8,5.7l-0.8,0.3l0.5,1.5
			l5.2-1.9l-2-5.6l-1.2,0.4l1.5,4.1l-1.7,0.6c-1.5-1.3-2.4-3.3-2.8-5.2c-0.3-1.5-0.3-3.2,0.8-4.4c1.3-1.3,3.5-1.7,5.1-0.6
			c1.5,1.1,2.4,2.9,2.8,4.7c0.3,1.2,0.2,2.6-0.6,3.5c-0.2,0.2,0.1,0.4,0.2,0.7l0.4,0.7c0.5-0.4,0.8-0.8,1.1-1.4
			c0.3-0.5,0.4-1.1,0.4-1.7C605.3,957.6,605,956.5,604.6,955.4L604.6,955.4z M607.8,964l-6.2,1.2c-1.1,0.2-2,0.6-2.6,1.1
			s-0.9,1.2-1.1,2.1c-0.2,0.9-0.1,2,0.1,3.3l0,0c0.3,1.3,0.6,2.4,1.1,3.1c0.5,0.8,1.1,1.3,1.8,1.5s1.6,0.2,2.8,0l6.2-1.2l-0.3-1.6
			l-6,1.2c-2.7,0.5-3.6-0.9-4.1-3.3l0,0c-0.5-2.4-0.2-4.1,2.5-4.6l6-1.2L607.8,964z M611.2,982.7l-11.4-4.9l0.1,1.8l3.5,1.5l0,0
			l0.4,6l-3.3,2l0.1,1.8l10.6-6.5L611.2,982.7z M609.5,983.8l-4.1,2.5l-0.3-4.4L609.5,983.8L609.5,983.8z M421.7,1011.2l-1.6,0.4
			l1.8,6.7l1.6-0.4L421.7,1011.2z M602.8,1011.2l1.6,0.4l-1.8,6.7l-1.6-0.4L602.8,1011.2z M438.7,1039.4l-12.3,1.4l1,1.5l3.8-0.5
			l0,0l3.3,5l-1.9,3.4l1,1.5l6-10.9L438.7,1039.4z M437.8,1041.2l-2.3,4.2l-2.5-3.7L437.8,1041.2z M443.4,1046.2l-7.8,7.3l1,1.1
			l6.6-6.2l-3.5,9.5l1.2,1.3l9.5-2.9l-6.5,6.1l1,1.1l7.8-7.3l-1.6-1.7l-9.6,2.9l3.6-9.3L443.4,1046.2z M454.8,1057.8l-6.6,8.8
			l8.6,6.4l0.9-1.2l-7.3-5.5l2-2.7l6.6,4.9l0.9-1.2l-6.6-4.9l1.8-2.4l7,5.3l0.9-1.3L454.8,1057.8z M465.6,1065.7l-5.2,9.7l1.4,0.8
			l2-3.8l4.7,2.5l1.1,5.5l1.8,1l-1.2-5.8c1.2,0.4,2.6,0.2,3.4-0.8c0.7-0.8,1.2-1.9,0.8-2.9c-0.4-1.4-1.8-2.2-3-2.9L465.6,1065.7z
			 M466.3,1067.8l5,2.7c0.8,0.5,1.7,1.2,1.6,2.2c-0.1,0.9-1.1,1.4-1.9,1.2c-1.6-0.3-3-1.2-4.4-1.9l-2-1.1L466.3,1067.8z M478,1072.2
			l-4.2,10.2l1.5,0.6l4.2-10.2L478,1072.2z M488,1075.6c-1.2-0.4-2.4-0.6-3.5-0.5s-2.1,0.4-2.9,1s-1.4,1.4-1.7,2.5
			c-0.3,1-0.4,2-0.2,3c0.2,1,0.7,1.9,1.5,2.6s1.9,1.4,3.4,1.9c1.4,0.5,2.7,0.6,3.9,0.3c1.1-0.2,2.1-0.8,2.8-1.7l-1.4-0.8
			c-1.4,1.7-3.2,1.3-4.9,0.7c-2.8-0.9-4.2-2.9-3.4-5.5c1-2.8,3.7-2.9,6.1-2.1c1.7,0.6,3.1,1.3,3.3,2.9l1.6,0.2
			c-0.1-1-0.5-1.9-1.2-2.7C490.4,1076.7,489.3,1076.1,488,1075.6z M499,1078.1l-7.2,10.1l1.8,0.3l2.2-3.1l0,0l5.9,0.9l1.2,3.6
			l1.8,0.3l-4-11.7L499,1078.1z M499.7,1080l1.6,4.6l-4.4-0.6L499.7,1080L499.7,1080z M524.8,1078.2c-1.3,0.2-2.4,0.7-3.3,1.3
			c-1,0.6-1.6,1.4-2.1,2.3c-0.4,0.9-0.5,1.9-0.3,3c0.2,1,0.6,1.9,1.3,2.7c0.7,0.8,1.6,1.3,2.6,1.6c1,0.3,2.3,0.3,3.9,0
			c1.5-0.3,2.7-0.8,3.6-1.6c0.9-0.8,1.4-1.7,1.6-2.9h-1.6c-0.4,2.2-2.1,2.7-4,3c-2.9,0.5-5.1-0.4-5.7-3.1c-0.5-2.9,1.8-4.3,4.3-4.8
			c1.7-0.3,3.3-0.4,4.3,0.9l1.5-0.6c-0.6-0.8-1.4-1.4-2.4-1.7C527.5,1077.9,526.3,1077.9,524.8,1078.2L524.8,1078.2z M532.2,1076.9
			l3.1,10.6l10.3-3l-0.4-1.5l-8.7,2.6l-1-3.2l7.9-2.3l-0.4-1.5l-7.9,2.3l-0.8-2.8l8.4-2.5l-0.4-1.5L532.2,1076.9z M544.1,1073.1
			l4.6,10l1.4-0.6l-3.9-8.3l10.7,4.9c0.2,0.2,0.5,0.1,0.7-0.1l1.4-0.6l-4.6-10l-1.4,0.6l3.9,8.3l-11-5L544.1,1073.1z M556.2,1067.5
			l0.9,1.3l3.9-2.6l0.1-0.1l0.1,0.1l5.1,7.8l1.3-0.9l-5.1-7.8l-0.1-0.1l0.2-0.1l4-2.6l-0.9-1.3L556.2,1067.5z M567.3,1059.9l7.5,8.1
			l1.2-1.1l-2.9-3.2l3.9-3.6l5.6,0.7l1.5-1.4l-5.9-0.8c0.7-1,1-2.4,0.4-3.5c-0.5-1-1.5-1.8-2.6-1.8c-1.5,0-2.7,1.1-3.8,2
			L567.3,1059.9z M569.5,1059.9l4.2-3.8c0.7-0.6,1.8-1.3,2.7-0.7c0.8,0.5,0.8,1.5,0.3,2.2c-0.8,1.4-2.2,2.4-3.3,3.5l-1.6,1.4
			L569.5,1059.9z M580.1,1047.1l4.9,11.4l1.2-1.4l-1.5-3.5l0,0l3.8-4.6l3.8,0.8l1.2-1.4l-12.1-2.6L580.1,1047.1L580.1,1047.1z
			 M582,1047.4l4.7,1l-2.8,3.4L582,1047.4z M584.9,1040.8l9.2,6l4.8-7.5l-1.3-0.8l-3.9,6l-0.1,0.2l-0.1-0.1l-7.8-5.1L584.9,1040.8z"
			/>
	</g>
</g>
</svg>
