<?xml version="1.0" encoding="UTF-8"?>
<svg id="Capa_1" data-name="Capa 1" xmlns="http://www.w3.org/2000/svg" viewBox="0 0 800 799.99">
  <defs>
    <style>
      .cls-1 {
        fill: #fff;
        fill-rule: evenodd;
      }
    </style>
  </defs>
  <g id="Page-1">
    <g id="Dribbble-Light-Preview">
      <g id="icons">
        <path id="instagram-_167_" data-name="instagram-[#167]" class="cls-1" d="m234.79,4.9c-65.12,2.95-121.55,18.87-167.13,64.24C21.93,114.77,6.21,171.43,3.26,235.86c-1.83,40.21-12.54,344.06,18.51,423.75,20.94,53.75,62.17,95.1,116.42,116.09,25.31,9.84,54.21,16.52,96.6,18.46,354.43,16.04,485.82,7.3,541.22-134.55,9.83-25.25,16.6-54.12,18.47-96.41,16.2-355.33-2.63-432.36-64.4-494.06C681.08,20.27,623.45-12.99,234.79,4.9m3.26,717.79c-38.81-1.74-59.86-8.22-73.91-13.65-35.34-13.73-61.89-40.18-75.54-75.31-23.64-60.55-15.8-348.12-13.69-394.65,2.07-45.59,11.3-87.23,43.46-119.39,39.8-39.71,91.23-59.16,441.36-43.36,45.69,2.07,87.44,11.29,119.68,43.36,39.8,39.71,59.54,91.52,43.46,440.31-1.75,38.71-8.24,59.71-13.69,73.73-36.02,92.3-118.89,105.14-471.13,88.96M563.59,187.58c0,26.29,21.37,47.66,47.76,47.66s47.8-21.37,47.8-47.66-21.41-47.64-47.8-47.64-47.76,21.37-47.76,47.64m-369.08,211.93c0,112.6,91.5,203.89,204.38,203.89s204.38-91.29,204.38-203.89-91.5-203.83-204.38-203.83-204.38,91.23-204.38,203.83m71.72,0c0-73.05,59.38-132.32,132.66-132.32s132.66,59.28,132.66,132.32-59.38,132.38-132.66,132.38-132.66-59.28-132.66-132.38"/>
      </g>
    </g>
  </g>
</svg>