<?xml version="1.0" encoding="utf-8"?>
<!-- Generator: Adobe Illustrator 27.1.0, SVG Export Plug-In . SVG Version: 6.00 Build 0)  -->
<svg version="1.1" id="Capa_1" xmlns="http://www.w3.org/2000/svg" xmlns:xlink="http://www.w3.org/1999/xlink" x="0px" y="0px"
	 viewBox="0 0 1000 1000" style="enable-background:new 0 0 1000 1000;" xml:space="preserve">
<style type="text/css">
	.st0{fill:#262B37;stroke:#A5B7DF;stroke-width:13;stroke-miterlimit:10;}
	.st1{fill:#A5B7DF;}
</style>
<path class="st0" d="M774.5,973.09h-549c-109.68,0-198.59-88.91-198.59-198.59v-549c0-109.68,88.91-198.59,198.59-198.59h549
	c109.68,0,198.59,88.91,198.59,198.59v549C973.09,884.18,884.18,973.09,774.5,973.09z"/>
<g>
	<g>
		<path class="st1" d="M439.08,655.1L131.35,529.47v-62.81l228.98-90.94v63.28l-155.16,55.08v7.97l235.08,90.47L439.08,655.1z
			 M377.44,708.77L559.08,286.9h64.45L441.89,708.77H377.44z M634.31,619.94v-63.28l153.98-54.61v-7.97l-237.19-92.34v-63.05
			L862.6,466.66v62.81L634.31,619.94z"/>
	</g>
</g>
</svg>
