<svg id="Capa_1" data-name="Capa 1" xmlns="http://www.w3.org/2000/svg" xmlns:xlink="http://www.w3.org/1999/xlink" viewBox="0 0 1024 1115.41"><defs><style>.cls-1,.cls-19{fill:none;}.cls-2{fill:#2565af;}.cls-15,.cls-3{fill:#fff;}.cls-4{fill:#1f65ae;}.cls-5{clip-path:url(#clip-path);}.cls-6{fill:#7bcce7;}.cls-7,.cls-8{fill:#e52421;}.cls-7{stroke:#921913;stroke-width:2px;}.cls-15,.cls-16,.cls-19,.cls-7{stroke-miterlimit:10;}.cls-9{fill:#ec671b;}.cls-10{fill:#ffcf02;}.cls-11{fill:#008648;}.cls-12{fill:#008cd3;}.cls-13{fill:#312783;}.cls-14{fill:#622483;}.cls-15{stroke:#2565af;stroke-width:6px;}.cls-16,.cls-17{fill:#98c32a;}.cls-16{stroke:#eee64f;}.cls-18{fill:#eee64f;}.cls-19{stroke:#c8a501;stroke-width:5px;}</style><clipPath id="clip-path" transform="translate(0 0)"><polygon class="cls-1" points="512.6 937.01 452.95 1040.31 572.24 1040.31 512.6 937.01"/></clipPath></defs><path class="cls-2" d="M512,0C229.23,0,0,229.23,0,512s229.23,512,512,512,512-229.23,512-512S794.77,0,512,0Zm0,959.52C264.84,959.52,64.48,759.16,64.48,512S264.84,64.48,512,64.48,959.52,264.84,959.52,512,759.16,959.52,512,959.52Z" transform="translate(0 0)"/><path class="cls-3" d="M512,22C241.36,22,22,241.36,22,512s219.39,490,490,490,490-219.39,490-490S782.64,22,512,22Zm0,956.84c-257.81,0-466.81-209-466.81-466.81S254.19,45.19,512,45.19,978.81,254.19,978.81,512,769.81,978.81,512,978.81Z" transform="translate(0 0)"/><circle class="cls-4" cx="512" cy="1002.03" r="113.38"/><circle class="cls-3" cx="512" cy="1002.03" r="87.35"/><g class="cls-5"><polygon class="cls-6" points="512.88 937.01 453.24 1040.31 572.52 1040.31 512.88 937.01"/><path class="cls-3" d="M514.08,936.26l-.75,41.08a.45.45,0,0,1-.9,0l-.76-41.08a1.21,1.21,0,0,1,1.19-1.22,1.19,1.19,0,0,1,1.22,1.22Z" transform="translate(0 0)"/><path class="cls-3" d="M504.9,945.91l5.94,31.6a.44.44,0,0,1-.36.52.45.45,0,0,1-.51-.34l-7.43-31.28a1.21,1.21,0,1,1,2.36-.5Z" transform="translate(0 0)"/><path class="cls-3" d="M492.43,940.35l16,37.84a.45.45,0,0,1-.24.58.44.44,0,0,1-.58-.22l-17.4-37.22a1.2,1.2,0,1,1,2.2-1Z" transform="translate(0 0)"/><path class="cls-3" d="M488,952.9l18.28,26.45a.44.44,0,0,1-.12.62.45.45,0,0,1-.61-.1L486,954.32a1.21,1.21,0,1,1,2-1.42Z" transform="translate(0 0)"/><path class="cls-3" d="M474.32,952.9l30,28a.46.46,0,0,1,0,.64.45.45,0,0,1-.62,0l-31-26.92a1.2,1.2,0,1,1,1.61-1.79Z" transform="translate(0 0)"/><path class="cls-3" d="M475.34,966.17,502.8,982.9a.45.45,0,0,1,.15.62.46.46,0,0,1-.6.16l-28.21-15.42a1.21,1.21,0,1,1,1.2-2.09Z" transform="translate(0 0)"/><path class="cls-3" d="M462.87,971.72l38.83,13.41a.45.45,0,0,1-.27.86l-39.3-12a1.2,1.2,0,0,1-.81-1.5,1.22,1.22,0,0,1,1.55-.79Z" transform="translate(0 0)"/><path class="cls-3" d="M469.21,983.43l31.88,4.12a.45.45,0,0,1-.09.89L469,985.83a1.21,1.21,0,1,1,.26-2.4Z" transform="translate(0 0)"/><path class="cls-3" d="M460.07,993.57,501,990a.45.45,0,0,1,.48.41.44.44,0,0,1-.39.48L460.32,996a1.21,1.21,0,1,1-.25-2.4Z" transform="translate(0 0)"/><path class="cls-3" d="M470.62,1001.7l30.81-9.21a.45.45,0,0,1,.27.85L471.37,1004a1.21,1.21,0,1,1-.75-2.29Z" transform="translate(0 0)"/><path class="cls-3" d="M466.4,1014.68l36-19.88a.45.45,0,0,1,.45.77l-35.19,21.2a1.21,1.21,0,1,1-1.21-2.09Z" transform="translate(0 0)"/><path class="cls-3" d="M479.34,1017.81l24.4-20.95a.44.44,0,0,1,.63,0,.46.46,0,0,1,0,.62L481,1019.6a1.21,1.21,0,1,1-1.62-1.79Z" transform="translate(0 0)"/><path class="cls-3" d="M480.77,1031.38l24.75-32.78a.45.45,0,0,1,.63-.09.46.46,0,0,1,.1.61l-23.53,33.68a1.21,1.21,0,1,1-2-1.42Z" transform="translate(0 0)"/><path class="cls-3" d="M493.86,1029l13.77-29.06a.45.45,0,0,1,.6-.21.46.46,0,0,1,.22.58L496.07,1030a1.21,1.21,0,1,1-2.21-1Z" transform="translate(0 0)"/><path class="cls-3" d="M500.69,1040.8l9.28-40a.45.45,0,0,1,.87.19L503,1041.3a1.2,1.2,0,1,1-2.35-.5Z" transform="translate(0 0)"/><path class="cls-3" d="M511.67,1033.28l.76-32.15a.45.45,0,0,1,.9,0l.75,32.15a1.21,1.21,0,1,1-2.41,0Z" transform="translate(0 0)"/><path class="cls-3" d="M522.71,1041.3l-7.8-40.33a.45.45,0,0,1,.88-.19l9.28,40a1.21,1.21,0,1,1-2.36.5Z" transform="translate(0 0)"/><path class="cls-3" d="M529.69,1030l-12.38-29.67a.45.45,0,0,1,.24-.59.46.46,0,0,1,.58.22L531.89,1029a1.2,1.2,0,1,1-2.2,1Z" transform="translate(0 0)"/><path class="cls-3" d="M543,1032.8l-23.53-33.68a.45.45,0,0,1,.11-.62.44.44,0,0,1,.61.1L545,1031.38a1.21,1.21,0,1,1-2,1.42Z" transform="translate(0 0)"/><path class="cls-3" d="M544.8,1019.6l-23.38-22.07a.44.44,0,0,1,0-.63.45.45,0,0,1,.62,0l24.39,20.95a1.2,1.2,0,1,1-1.61,1.79Z" transform="translate(0 0)"/><path class="cls-3" d="M558.15,1016.77,523,995.57a.44.44,0,0,1,.44-.77l36,19.88a1.21,1.21,0,1,1-1.21,2.09Z" transform="translate(0 0)"/><path class="cls-3" d="M554.39,1004l-30.34-10.65a.45.45,0,0,1-.27-.57.44.44,0,0,1,.55-.28l30.8,9.21a1.2,1.2,0,1,1-.74,2.29Z" transform="translate(0 0)"/><path class="cls-3" d="M565.43,996l-40.77-5.05a.45.45,0,0,1-.39-.49.46.46,0,0,1,.49-.4l40.93,3.54a1.21,1.21,0,0,1,1.09,1.31,1.2,1.2,0,0,1-1.35,1.09Z" transform="translate(0 0)"/><path class="cls-3" d="M556.8,985.83l-32,2.61a.46.46,0,0,1-.49-.41.45.45,0,0,1,.39-.48l31.89-4.12a1.22,1.22,0,0,1,1.35,1.05,1.2,1.2,0,0,1-1.1,1.35Z" transform="translate(0 0)"/><path class="cls-3" d="M563.63,974l-39.3,12a.45.45,0,0,1-.56-.3.46.46,0,0,1,.28-.56l38.83-13.41a1.21,1.21,0,1,1,.75,2.29Z" transform="translate(0 0)"/><path class="cls-3" d="M551.62,968.26,523.4,983.68a.46.46,0,0,1-.6-.18.44.44,0,0,1,.16-.6l27.45-16.73a1.22,1.22,0,0,1,1.66.41,1.2,1.2,0,0,1-.45,1.68Z" transform="translate(0 0)"/><path class="cls-3" d="M553.05,954.69l-31,26.92a.45.45,0,0,1-.6-.67l30-28a1.2,1.2,0,1,1,1.61,1.79Z" transform="translate(0 0)"/><path class="cls-3" d="M539.74,954.32l-19.51,25.55a.45.45,0,0,1-.63.09.44.44,0,0,1-.09-.61l18.28-26.45a1.21,1.21,0,1,1,2,1.42Z" transform="translate(0 0)"/><path class="cls-3" d="M535.52,941.33l-17.39,37.22a.47.47,0,0,1-.6.22.44.44,0,0,1-.22-.58l16-37.84a1.2,1.2,0,1,1,2.2,1Z" transform="translate(0 0)"/><path class="cls-3" d="M523.21,946.41l-7.42,31.28a.45.45,0,0,1-.88-.18l5.94-31.6a1.21,1.21,0,1,1,2.36.5Z" transform="translate(0 0)"/><polygon class="cls-1" points="512.88 937.52 453.83 1039.8 571.93 1039.8 512.88 937.52"/><path class="cls-7" d="M509.44,986.42c-.1-.16-1.49-2.48-.57-3.86s4-1,5.83.08c3.74,2.32,4,8.74,2.38,9.7-.6.37-1.47-.05-1.92.55s.23,1.45-.31,2.2a1.61,1.61,0,0,1-1.4.61,1.56,1.56,0,0,1-1.17-.7c-.49-.78.25-1.46,0-2.19-.49-1.34-3.5-.63-4.32-1.9C507.56,990.32,507.53,989.13,509.44,986.42Z" transform="translate(0 0)"/><path class="cls-8" d="M512.88,962.08a45.07,45.07,0,1,0,45.06,45.07A45.07,45.07,0,0,0,512.88,962.08Zm0,83a37.9,37.9,0,1,1,37.9-37.89A37.89,37.89,0,0,1,512.88,1045Z" transform="translate(0 0)"/><path class="cls-9" d="M512.88,963a44.17,44.17,0,1,0,44.17,44.17A44.16,44.16,0,0,0,512.88,963Zm0,82.17a38,38,0,1,1,38-38A38,38,0,0,1,512.88,1045.15Z" transform="translate(0 0)"/><path class="cls-10" d="M512.88,963.73a43.42,43.42,0,1,0,43.41,43.42A43.42,43.42,0,0,0,512.88,963.73Zm0,81.53A38.11,38.11,0,1,1,551,1007.15,38.11,38.11,0,0,1,512.88,1045.26Z" transform="translate(0 0)"/><path class="cls-11" d="M512.88,964.44a42.71,42.71,0,1,0,42.7,42.71A42.71,42.71,0,0,0,512.88,964.44Zm0,80.82A38.11,38.11,0,1,1,551,1007.15,38.11,38.11,0,0,1,512.88,1045.26Z" transform="translate(0 0)"/><path class="cls-12" d="M512.88,965.31a41.84,41.84,0,1,0,41.83,41.84A41.84,41.84,0,0,0,512.88,965.31Zm0,79.57a37.74,37.74,0,1,1,37.73-37.73A37.73,37.73,0,0,1,512.88,1044.88Z" transform="translate(0 0)"/><path class="cls-13" d="M512.88,966.46a40.69,40.69,0,1,0,40.69,40.69A40.69,40.69,0,0,0,512.88,966.46ZM512.6,1046a38.88,38.88,0,1,1,38.87-38.88A38.88,38.88,0,0,1,512.6,1046Z" transform="translate(0 0)"/><path class="cls-14" d="M512.88,968.55a38.6,38.6,0,1,0,38.59,38.6A38.6,38.6,0,0,0,512.88,968.55Zm0,76.13a37.53,37.53,0,1,1,37.53-37.53A37.53,37.53,0,0,1,512.88,1044.68Z" transform="translate(0 0)"/><rect class="cls-15" x="448.51" y="1018.19" width="130.39" height="22.94"/><path class="cls-2" d="M447.52,1037.54a24.81,24.81,0,0,1,20-5.08,43.12,43.12,0,0,1,5,1.26,21.9,21.9,0,0,0,4,.73,26.83,26.83,0,0,0,4.1,0,19.75,19.75,0,0,0,3.9-.68,28.37,28.37,0,0,1,5.24-.87,18.5,18.5,0,0,1,5.26.29,24.81,24.81,0,0,1,5.06,1.89,16,16,0,0,0,4.5,1.49,13.32,13.32,0,0,0,4.32,0,19.83,19.83,0,0,0,4.22-1.12,15.87,15.87,0,0,0,1.81-.85c.57-.3,1.11-.67,1.76-1a18.18,18.18,0,0,1,5.21-2.09,21.39,21.39,0,0,1,2.9-.43,14.34,14.34,0,0,1,2.78,0,11.45,11.45,0,0,1,5.38,2.44,22.38,22.38,0,0,0,4.33,3,15.37,15.37,0,0,0,4.15,1,21,21,0,0,0,4.34-.09,12.92,12.92,0,0,0,3.94-1.12c1.23-.55,2.48-1.35,4.15-2.13a22.92,22.92,0,0,1,5.32-1.7,27.12,27.12,0,0,1,5.39-.45,24.43,24.43,0,0,1,5.48.73c3.5.93,5.89,2.09,8.73,3,5.61,2,12,2.85,17.9,1.51l.66,4.58c-6.54.44-13,1.22-19.8,1.08a36.15,36.15,0,0,1-5.11-.57c-1.66-.31-3.19-.74-4.5-1.06a28.67,28.67,0,0,0-3.86-.69,36.72,36.72,0,0,0-4.06-.25,18.29,18.29,0,0,0-3.9.32c-1.32.23-2.93.78-4.73,1.13a23.63,23.63,0,0,1-5.38.41,46.13,46.13,0,0,1-5.11-.43,31,31,0,0,1-5-1.2,7.38,7.38,0,0,0-4.65.07,18.53,18.53,0,0,1-4,1.25,18.15,18.15,0,0,1-2,0c-.31,0-.62,0-.93,0s-.59,0-.88,0a27.11,27.11,0,0,0-3.93.34,24.5,24.5,0,0,1-5.63.19,51.68,51.68,0,0,1-5.24-.84,44.76,44.76,0,0,1-5-1.32,15,15,0,0,0-4.59-1.13,19.89,19.89,0,0,0-4.3.59c-1.4.29-2.86.34-4.19.58a33.46,33.46,0,0,0-4,1,23,23,0,0,1-5.4,1,36.55,36.55,0,0,1-5.35-.12,31.3,31.3,0,0,1-5.29-1,29.85,29.85,0,0,0-4.18-.92,39.44,39.44,0,0,0-8.12.07c-2.78.28-5.59.84-8.67,1.3Z" transform="translate(0 0)"/><path class="cls-2" d="M426.87,1029.28a24.77,24.77,0,0,1,20-5.08,42.61,42.61,0,0,1,5,1.26,23,23,0,0,0,4,.73,26.83,26.83,0,0,0,4.1,0,21.34,21.34,0,0,0,3.9-.68,27.55,27.55,0,0,1,5.24-.87,18.5,18.5,0,0,1,5.26.29,24.81,24.81,0,0,1,5.06,1.89,16.47,16.47,0,0,0,4.5,1.49,13.32,13.32,0,0,0,4.32,0,19.83,19.83,0,0,0,4.22-1.12,17.78,17.78,0,0,0,1.81-.85c.57-.31,1.11-.67,1.76-1a18.3,18.3,0,0,1,5.21-2.09,21.44,21.44,0,0,1,2.9-.44,16.13,16.13,0,0,1,2.78,0,11.47,11.47,0,0,1,5.38,2.45,22.38,22.38,0,0,0,4.33,3,15.37,15.37,0,0,0,4.15,1,20.33,20.33,0,0,0,4.34-.1,12.64,12.64,0,0,0,3.94-1.11c1.23-.55,2.48-1.35,4.15-2.14a23.05,23.05,0,0,1,5.32-1.69,27.12,27.12,0,0,1,5.39-.45,24.43,24.43,0,0,1,5.48.73c3.5.92,5.89,2.09,8.73,3,5.61,2,12,2.85,17.91,1.51l.65,4.58c-6.53.44-13,1.22-19.8,1.08a36.33,36.33,0,0,1-5.11-.58c-1.66-.31-3.19-.73-4.5-1.05a28.71,28.71,0,0,0-3.86-.7,39.31,39.31,0,0,0-4.06-.24,18.29,18.29,0,0,0-3.9.32c-1.32.23-2.93.78-4.73,1.13a23.63,23.63,0,0,1-5.38.41,48.68,48.68,0,0,1-5.11-.43,31,31,0,0,1-5-1.2,7.31,7.31,0,0,0-4.65.07,18.53,18.53,0,0,1-4,1.25c-.66.07-1.3,0-1.95,0-.31,0-.62,0-.93,0s-.59,0-.88,0a28.12,28.12,0,0,0-3.92.33,24.6,24.6,0,0,1-5.64.2c-1.85-.18-3.53-.51-5.23-.84a44.38,44.38,0,0,1-5-1.32,15,15,0,0,0-4.59-1.13,19.89,19.89,0,0,0-4.3.59c-1.4.29-2.86.33-4.19.58a33.46,33.46,0,0,0-4,1,23,23,0,0,1-5.39,1,36.64,36.64,0,0,1-5.36-.13,29.43,29.43,0,0,1-5.29-1,31.17,31.17,0,0,0-4.18-.91,39.34,39.34,0,0,0-8.11.07c-2.78.27-5.6.84-8.68,1.3Z" transform="translate(0 0)"/><path class="cls-2" d="M432.9,1022.27a24.79,24.79,0,0,1,20-5.08,40.83,40.83,0,0,1,5,1.25,22.09,22.09,0,0,0,4,.74,26.85,26.85,0,0,0,4.1.05,21.58,21.58,0,0,0,3.91-.68,27.29,27.29,0,0,1,5.23-.88,18.48,18.48,0,0,1,5.26.29,24.59,24.59,0,0,1,5.06,1.89,15.82,15.82,0,0,0,4.5,1.49,13.32,13.32,0,0,0,4.32,0,19.24,19.24,0,0,0,4.22-1.11,17.81,17.81,0,0,0,1.81-.86c.57-.3,1.11-.67,1.76-1a18.3,18.3,0,0,1,5.21-2.09,21.62,21.62,0,0,1,2.9-.43,14.34,14.34,0,0,1,2.78,0,11.4,11.4,0,0,1,5.38,2.44,22.48,22.48,0,0,0,4.33,3,16.22,16.22,0,0,0,4.16,1,21,21,0,0,0,4.34-.1,12.67,12.67,0,0,0,3.93-1.12c1.23-.55,2.48-1.35,4.16-2.13a22.36,22.36,0,0,1,5.31-1.69,27.25,27.25,0,0,1,5.39-.45,24,24,0,0,1,5.49.73c3.49.92,5.88,2.09,8.72,3,5.61,2,12,2.84,17.91,1.51l.65,4.57c-6.53.44-13,1.22-19.8,1.08a36,36,0,0,1-5.1-.57c-1.66-.31-3.2-.74-4.51-1.05a28.71,28.71,0,0,0-3.86-.7,39.32,39.32,0,0,0-4.06-.25,18.3,18.3,0,0,0-3.9.33c-1.31.23-2.93.77-4.73,1.13a24.19,24.19,0,0,1-5.38.4,43.48,43.48,0,0,1-5.1-.43,29.84,29.84,0,0,1-5-1.19,7.24,7.24,0,0,0-4.65.07,18.36,18.36,0,0,1-4,1.25,18.13,18.13,0,0,1-2,0c-.31,0-.62,0-.93,0s-.59,0-.88,0a30.16,30.16,0,0,0-3.92.34,24.61,24.61,0,0,1-5.64.19,48.83,48.83,0,0,1-5.23-.84,42.37,42.37,0,0,1-5-1.32,15,15,0,0,0-4.59-1.13,19.89,19.89,0,0,0-4.3.59c-1.4.3-2.86.34-4.18.58a33.14,33.14,0,0,0-4,1,22.93,22.93,0,0,1-5.39,1,36.47,36.47,0,0,1-5.35-.13,30.45,30.45,0,0,1-5.3-1,29.85,29.85,0,0,0-4.18-.92,38.66,38.66,0,0,0-8.11.08c-2.78.27-5.6.83-8.68,1.29Z" transform="translate(0 0)"/><path class="cls-2" d="M450.06,1041.67a24.76,24.76,0,0,1,19.95-5.08,42.11,42.11,0,0,1,5,1.26,22.89,22.89,0,0,0,4,.73,26.82,26.82,0,0,0,4.1.05,21.48,21.48,0,0,0,3.9-.68,26.78,26.78,0,0,1,5.24-.87,18.52,18.52,0,0,1,5.26.29,24.5,24.5,0,0,1,5,1.89,16.53,16.53,0,0,0,4.51,1.49,13.32,13.32,0,0,0,4.32,0,19.74,19.74,0,0,0,4.21-1.12,16,16,0,0,0,1.81-.85c.58-.31,1.11-.67,1.77-1a17.78,17.78,0,0,1,5.21-2.09,21.44,21.44,0,0,1,2.9-.44,15.19,15.19,0,0,1,2.78,0,11.51,11.51,0,0,1,5.38,2.45,21.79,21.79,0,0,0,4.33,3,15.37,15.37,0,0,0,4.15,1,20.33,20.33,0,0,0,4.34-.1,12.92,12.92,0,0,0,3.94-1.11c1.22-.55,2.48-1.35,4.15-2.14a22.75,22.75,0,0,1,5.32-1.69,27.12,27.12,0,0,1,5.39-.45,24,24,0,0,1,5.48.73c3.5.92,5.88,2.09,8.73,3,5.61,2,12,2.85,17.9,1.51l.66,4.57c-6.54.45-13,1.23-19.8,1.09a36.16,36.16,0,0,1-5.11-.58c-1.66-.31-3.2-.73-4.5-1a29.29,29.29,0,0,0-3.86-.7,39.48,39.48,0,0,0-4.06-.24,18.44,18.44,0,0,0-3.91.32c-1.31.23-2.92.78-4.73,1.13a23.5,23.5,0,0,1-5.37.41,48.45,48.45,0,0,1-5.11-.43,30.5,30.5,0,0,1-5-1.2,7.34,7.34,0,0,0-4.66.07,18.19,18.19,0,0,1-4,1.25c-.65.07-1.3,0-2,0-.3,0-.61,0-.92,0s-.59,0-.88,0a28.36,28.36,0,0,0-3.93.33,24.56,24.56,0,0,1-5.64.2c-1.84-.18-3.53-.51-5.23-.84a44.76,44.76,0,0,1-5-1.32,15,15,0,0,0-4.59-1.13,19.89,19.89,0,0,0-4.3.59c-1.41.29-2.86.33-4.19.58a33,33,0,0,0-4,1,23,23,0,0,1-5.4,1,36.5,36.5,0,0,1-5.35-.13,29.43,29.43,0,0,1-5.29-1,31.28,31.28,0,0,0-4.19-.91,39.35,39.35,0,0,0-8.11.07c-2.78.27-5.59.84-8.68,1.3Z" transform="translate(0 0)"/><path class="cls-2" d="M429.41,1033.41a24.77,24.77,0,0,1,20-5.08,40.53,40.53,0,0,1,5,1.26,23.06,23.06,0,0,0,4,.73,26.82,26.82,0,0,0,4.1,0,21.34,21.34,0,0,0,3.9-.68,27.53,27.53,0,0,1,5.24-.88,18.89,18.89,0,0,1,5.26.29A26,26,0,0,1,482,1031a15.72,15.72,0,0,0,4.5,1.49,13.32,13.32,0,0,0,4.32,0,19.58,19.58,0,0,0,4.21-1.12,15.29,15.29,0,0,0,1.82-.86c.57-.3,1.1-.66,1.76-1a17.78,17.78,0,0,1,5.21-2.09,21.44,21.44,0,0,1,2.9-.44,15.19,15.19,0,0,1,2.78,0,11.54,11.54,0,0,1,5.38,2.44,21.89,21.89,0,0,0,4.33,3,15.37,15.37,0,0,0,4.15,1,21,21,0,0,0,4.34-.1,12.65,12.65,0,0,0,3.94-1.12c1.22-.54,2.48-1.34,4.15-2.13a22.9,22.9,0,0,1,5.32-1.69,27.12,27.12,0,0,1,5.39-.45,24,24,0,0,1,5.48.73c3.5.92,5.89,2.09,8.73,3,5.61,2,12,2.85,17.9,1.51l.66,4.57c-6.54.45-13,1.23-19.8,1.08a34.74,34.74,0,0,1-5.11-.57c-1.66-.31-3.19-.74-4.5-1a29,29,0,0,0-3.86-.7,39.48,39.48,0,0,0-4.06-.24,18.44,18.44,0,0,0-3.91.32c-1.31.23-2.92.77-4.73,1.13a24.68,24.68,0,0,1-5.37.41,45.94,45.94,0,0,1-5.11-.44,29.73,29.73,0,0,1-5-1.19,7.34,7.34,0,0,0-4.66.07,18.19,18.19,0,0,1-4,1.25c-.65.07-1.3,0-1.95,0-.3,0-.61,0-.92,0s-.59,0-.88,0a30.29,30.29,0,0,0-3.93.34,24.57,24.57,0,0,1-5.64.19,52,52,0,0,1-5.23-.83,44.76,44.76,0,0,1-5-1.32,15.34,15.34,0,0,0-4.59-1.14,20.54,20.54,0,0,0-4.3.6c-1.4.29-2.86.33-4.19.57a31.8,31.8,0,0,0-4,1,23.55,23.55,0,0,1-5.4,1,36.5,36.5,0,0,1-5.35-.13,30.33,30.33,0,0,1-5.29-1,33.13,33.13,0,0,0-4.19-.92,39.36,39.36,0,0,0-8.11.08c-2.78.27-5.59.84-8.67,1.29Z" transform="translate(0 0)"/><path class="cls-2" d="M435.44,1026.39a24.77,24.77,0,0,1,20-5.07,40.64,40.64,0,0,1,5,1.25,21.32,21.32,0,0,0,4,.73,26.84,26.84,0,0,0,4.1.06,21.34,21.34,0,0,0,3.9-.68,27.53,27.53,0,0,1,5.24-.88,18.5,18.5,0,0,1,5.26.29A24.81,24.81,0,0,1,488,1024a16,16,0,0,0,4.5,1.49,13.32,13.32,0,0,0,4.32,0,19,19,0,0,0,4.21-1.12,15.26,15.26,0,0,0,1.82-.85c.57-.3,1.1-.67,1.76-1a18.18,18.18,0,0,1,5.21-2.09,21.39,21.39,0,0,1,2.9-.43,14.34,14.34,0,0,1,2.78,0,11.45,11.45,0,0,1,5.38,2.44,22.18,22.18,0,0,0,4.33,3,15.73,15.73,0,0,0,4.15,1,20.32,20.32,0,0,0,4.34-.09,12.65,12.65,0,0,0,3.94-1.12c1.22-.55,2.48-1.35,4.15-2.13a22.43,22.43,0,0,1,5.32-1.69,27.13,27.13,0,0,1,5.39-.46,25.1,25.1,0,0,1,5.48.73c3.5.93,5.89,2.09,8.73,3,5.61,2,11.95,2.84,17.9,1.5l.66,4.58c-6.54.44-13,1.22-19.8,1.08a36.15,36.15,0,0,1-5.11-.57c-1.66-.31-3.19-.74-4.5-1.06a28.67,28.67,0,0,0-3.86-.69,39.5,39.5,0,0,0-4.06-.25,19.11,19.11,0,0,0-3.91.32c-1.31.24-2.92.78-4.73,1.13a23.5,23.5,0,0,1-5.37.41,45.93,45.93,0,0,1-5.11-.43,30,30,0,0,1-5-1.2,7.34,7.34,0,0,0-4.66.08,18.79,18.79,0,0,1-4,1.24,16,16,0,0,1-2,0c-.3,0-.61,0-.92,0s-.59,0-.88,0a27.11,27.11,0,0,0-3.93.34,24.5,24.5,0,0,1-5.63.19,51.68,51.68,0,0,1-5.24-.84,44.76,44.76,0,0,1-5-1.32,15,15,0,0,0-4.59-1.13,19.89,19.89,0,0,0-4.3.59c-1.4.29-2.86.34-4.19.58a33.46,33.46,0,0,0-4,1,23,23,0,0,1-5.4,1,35.21,35.21,0,0,1-5.35-.12,31.3,31.3,0,0,1-5.29-1,29.85,29.85,0,0,0-4.18-.92,38.76,38.76,0,0,0-8.12.08c-2.78.27-5.59.83-8.67,1.29Z" transform="translate(0 0)"/><path class="cls-2" d="M446.24,1043.11a24.79,24.79,0,0,1,20-5.08,42.61,42.61,0,0,1,5,1.26,23,23,0,0,0,4,.73,26.85,26.85,0,0,0,4.1,0,21.58,21.58,0,0,0,3.91-.68,26.8,26.8,0,0,1,5.23-.87,18.57,18.57,0,0,1,5.27.29,24.72,24.72,0,0,1,5,1.89,16.47,16.47,0,0,0,4.5,1.49,13.32,13.32,0,0,0,4.32,0,19.83,19.83,0,0,0,4.22-1.12,17.78,17.78,0,0,0,1.81-.85c.57-.31,1.11-.67,1.76-1a18.3,18.3,0,0,1,5.21-2.09,21.68,21.68,0,0,1,2.9-.44,15.18,15.18,0,0,1,2.78,0,11.42,11.42,0,0,1,5.38,2.45,22.12,22.12,0,0,0,4.34,3,15.37,15.37,0,0,0,4.15,1,20.33,20.33,0,0,0,4.34-.1,12.72,12.72,0,0,0,3.94-1.11c1.22-.55,2.47-1.35,4.15-2.14a22.82,22.82,0,0,1,5.31-1.69,27.25,27.25,0,0,1,5.39-.45,24.52,24.52,0,0,1,5.49.73c3.49.92,5.88,2.09,8.72,3,5.62,2,12,2.85,17.91,1.51l.65,4.58c-6.53.44-13,1.22-19.8,1.08a36,36,0,0,1-5.1-.58c-1.66-.31-3.2-.73-4.51-1a28.85,28.85,0,0,0-3.85-.7,39.67,39.67,0,0,0-4.07-.24,18.34,18.34,0,0,0-3.9.32c-1.31.23-2.93.78-4.73,1.13a23.54,23.54,0,0,1-5.38.41,48.26,48.26,0,0,1-5.1-.43,30.5,30.5,0,0,1-5-1.2,7.34,7.34,0,0,0-4.66.07,18.19,18.19,0,0,1-4,1.25c-.65.07-1.3,0-1.95,0-.31,0-.62,0-.93,0s-.58,0-.88,0a28.36,28.36,0,0,0-3.92.33,24.58,24.58,0,0,1-5.64.2c-1.85-.18-3.53-.51-5.23-.84a44.38,44.38,0,0,1-5-1.32,15,15,0,0,0-4.59-1.13,19.89,19.89,0,0,0-4.3.59c-1.4.29-2.85.33-4.18.58a33.59,33.59,0,0,0-4,1,22.94,22.94,0,0,1-5.39,1,36.5,36.5,0,0,1-5.35-.13,29.43,29.43,0,0,1-5.29-1,31.61,31.61,0,0,0-4.19-.91,39.34,39.34,0,0,0-8.11.07c-2.78.27-5.59.84-8.68,1.3Z" transform="translate(0 0)"/><path class="cls-2" d="M425.59,1034.85a24.79,24.79,0,0,1,20-5.08,42.61,42.61,0,0,1,5,1.26,23,23,0,0,0,4,.73,26.85,26.85,0,0,0,4.1,0,21.58,21.58,0,0,0,3.91-.68,27.56,27.56,0,0,1,5.23-.88,18.94,18.94,0,0,1,5.27.29,26,26,0,0,1,5.05,1.89,15.88,15.88,0,0,0,4.51,1.49,13.26,13.26,0,0,0,4.31,0,19.83,19.83,0,0,0,4.22-1.12A15.13,15.13,0,0,0,493,1032c.57-.3,1.11-.66,1.76-1a18,18,0,0,1,5.21-2.09,21.68,21.68,0,0,1,2.9-.44,15.3,15.3,0,0,1,2.79,0,11.59,11.59,0,0,1,5.38,2.44,21.47,21.47,0,0,0,4.33,3,15.37,15.37,0,0,0,4.15,1,21,21,0,0,0,4.34-.1,13,13,0,0,0,3.94-1.11c1.22-.55,2.47-1.35,4.15-2.14a22.75,22.75,0,0,1,5.32-1.69,27.09,27.09,0,0,1,5.38-.45,24,24,0,0,1,5.49.73c3.49.92,5.88,2.09,8.72,3,5.62,2,11.95,2.85,17.91,1.51l.65,4.57c-6.53.45-13,1.23-19.8,1.09a36,36,0,0,1-5.1-.58c-1.66-.31-3.2-.74-4.51-1a28.85,28.85,0,0,0-3.85-.7,39.48,39.48,0,0,0-4.06-.24,18.38,18.38,0,0,0-3.91.32c-1.31.23-2.93.78-4.73,1.13a24.73,24.73,0,0,1-5.38.41,46,46,0,0,1-5.1-.44,29.5,29.5,0,0,1-5-1.19,7.34,7.34,0,0,0-4.66.07,18.19,18.19,0,0,1-4,1.25c-.65.07-1.3,0-1.95,0-.31,0-.62,0-.93,0s-.58,0-.88,0a30.3,30.3,0,0,0-3.92.34,24.59,24.59,0,0,1-5.64.19,51.51,51.51,0,0,1-5.23-.83,44.93,44.93,0,0,1-5-1.32,15.2,15.2,0,0,0-4.59-1.14,20.54,20.54,0,0,0-4.3.6c-1.4.29-2.85.33-4.18.57a31.92,31.92,0,0,0-4,1,23.37,23.37,0,0,1-5.39,1,36.5,36.5,0,0,1-5.35-.13,30.33,30.33,0,0,1-5.29-1,33.51,33.51,0,0,0-4.19-.92,39.35,39.35,0,0,0-8.11.08c-2.78.27-5.59.84-8.68,1.29Z" transform="translate(0 0)"/><path class="cls-2" d="M431.62,1027.83a24.79,24.79,0,0,1,20-5.07,40.83,40.83,0,0,1,5,1.25,21.22,21.22,0,0,0,4,.73,27,27,0,0,0,4.11.06,21.48,21.48,0,0,0,3.9-.68,27.56,27.56,0,0,1,5.23-.88,18.57,18.57,0,0,1,5.27.29,24.72,24.72,0,0,1,5.05,1.89,16.2,16.2,0,0,0,4.51,1.49,13.26,13.26,0,0,0,4.31,0,19.26,19.26,0,0,0,4.22-1.12,14.41,14.41,0,0,0,1.81-.85c.57-.3,1.11-.67,1.77-1a18.11,18.11,0,0,1,5.2-2.09,21.76,21.76,0,0,1,2.91-.43,14.35,14.35,0,0,1,2.78,0,11.49,11.49,0,0,1,5.38,2.44,21.89,21.89,0,0,0,4.33,3,15.73,15.73,0,0,0,4.15,1,20.32,20.32,0,0,0,4.34-.09,12.65,12.65,0,0,0,3.94-1.12c1.22-.55,2.47-1.35,4.15-2.13a22.29,22.29,0,0,1,5.32-1.69,27.13,27.13,0,0,1,5.39-.46,24.52,24.52,0,0,1,5.48.74c3.49.92,5.88,2.08,8.73,3,5.61,1.95,11.94,2.84,17.9,1.5l.65,4.58c-6.53.44-13,1.22-19.8,1.08a36.18,36.18,0,0,1-5.1-.57c-1.66-.31-3.2-.74-4.51-1.06a28.81,28.81,0,0,0-3.85-.69,39.5,39.5,0,0,0-4.06-.25,18.45,18.45,0,0,0-3.91.33c-1.31.23-2.93.77-4.73,1.12a23.5,23.5,0,0,1-5.37.41,45.93,45.93,0,0,1-5.11-.43,29.52,29.52,0,0,1-5-1.2,7.34,7.34,0,0,0-4.66.08,18.69,18.69,0,0,1-4,1.24,15.86,15.86,0,0,1-1.95,0c-.3,0-.61,0-.92,0s-.59,0-.89,0a27.1,27.1,0,0,0-3.92.34,24.59,24.59,0,0,1-5.64.19,51.47,51.47,0,0,1-5.23-.84,45.5,45.5,0,0,1-5-1.32,14.89,14.89,0,0,0-4.58-1.13,19.89,19.89,0,0,0-4.3.59c-1.41.3-2.86.34-4.19.58a33,33,0,0,0-4,1,23,23,0,0,1-5.4,1,35.18,35.18,0,0,1-5.35-.12,30.33,30.33,0,0,1-5.29-1,30.27,30.27,0,0,0-4.19-.92,38.67,38.67,0,0,0-8.11.08c-2.78.27-5.59.83-8.68,1.29Z" transform="translate(0 0)"/><path class="cls-16" d="M463.29,1024.25a45.35,45.35,0,0,0,16.12-10.49c6.35-6.49,8.59-13,11.87-12.45,2.6.41,2.86,4.75,6.49,11a42.45,42.45,0,0,0,10.56,12.06l-12,0Z" transform="translate(0 0)"/><path class="cls-17" d="M492.79,1006.4a26.63,26.63,0,0,0,3.14,9.13,27,27,0,0,0,8.05,8.84" transform="translate(0 0)"/><path class="cls-18" d="M492.79,1006.4A26.52,26.52,0,0,0,504.26,1024l-.57.82a27.3,27.3,0,0,1-7.37-8.11A26.84,26.84,0,0,1,492.79,1006.4Z" transform="translate(0 0)"/><path class="cls-17" d="M486.69,1007.86a37.67,37.67,0,0,1-17.9,16.41" transform="translate(0 0)"/><path class="cls-18" d="M486.69,1007.86a38,38,0,0,1-17.7,16.87l-.4-.92A37.41,37.41,0,0,0,486.69,1007.86Z" transform="translate(0 0)"/><path class="cls-17" d="M488.92,1007.67a18.62,18.62,0,0,1-13.18,16.62" transform="translate(0 0)"/><path class="cls-18" d="M488.92,1007.67a18.92,18.92,0,0,1-3.8,10.52,18.61,18.61,0,0,1-4.1,4,19.25,19.25,0,0,1-5.13,2.61l-.29-1a18.47,18.47,0,0,0,5-2.27,18.21,18.21,0,0,0,4.13-3.66A18.74,18.74,0,0,0,488.92,1007.67Z" transform="translate(0 0)"/><path class="cls-16" d="M491.08,1007.6" transform="translate(0 0)"/><path class="cls-17" d="M491.48,1007a21.37,21.37,0,0,0,4.39,13.51,19.67,19.67,0,0,0,4.13,3.84" transform="translate(0 0)"/><path class="cls-18" d="M491.48,1007a21.89,21.89,0,0,0,2.29,9.66,18.82,18.82,0,0,0,6.51,7.28l-.57.82a19.59,19.59,0,0,1-6.39-7.88A22.17,22.17,0,0,1,491.48,1007Z" transform="translate(0 0)"/><path class="cls-16" d="M490.62,1014.35" transform="translate(0 0)"/><path class="cls-16" d="M476.45,1024.14a45.43,45.43,0,0,0,16.13-10.49c6.35-6.5,8.59-13,11.87-12.46,2.6.41,2.86,4.75,6.49,11a42.74,42.74,0,0,0,10.55,12.06l-12,0Z" transform="translate(0 0)"/><path class="cls-17" d="M506,1006.28a26.74,26.74,0,0,0,3.14,9.14,27.14,27.14,0,0,0,8,8.84" transform="translate(0 0)"/><path class="cls-18" d="M506,1006.28a26.51,26.51,0,0,0,11.47,17.57l-.57.82a27.34,27.34,0,0,1-7.37-8.12A26.84,26.84,0,0,1,506,1006.28Z" transform="translate(0 0)"/><path class="cls-17" d="M499.86,1007.75a37.71,37.71,0,0,1-17.9,16.4" transform="translate(0 0)"/><path class="cls-18" d="M499.86,1007.75a37.94,37.94,0,0,1-17.7,16.86l-.4-.91A37.51,37.51,0,0,0,499.86,1007.75Z" transform="translate(0 0)"/><path class="cls-17" d="M502.09,1007.55a18.66,18.66,0,0,1-13.18,16.62" transform="translate(0 0)"/><path class="cls-18" d="M502.09,1007.55a18.84,18.84,0,0,1-7.9,14.5,19.67,19.67,0,0,1-5.13,2.6l-.29-1a18.58,18.58,0,0,0,5-2.27,18.31,18.31,0,0,0,4.14-3.67A18.71,18.71,0,0,0,502.09,1007.55Z" transform="translate(0 0)"/><path class="cls-16" d="M504.25,1007.49" transform="translate(0 0)"/><path class="cls-17" d="M504.65,1006.9a21.28,21.28,0,0,0,4.39,13.5,18.93,18.93,0,0,0,4.13,3.84" transform="translate(0 0)"/><path class="cls-18" d="M504.65,1006.9a21.89,21.89,0,0,0,2.29,9.66,18.8,18.8,0,0,0,6.51,7.27l-.57.83a19.73,19.73,0,0,1-6.4-7.89A22.26,22.26,0,0,1,504.65,1006.9Z" transform="translate(0 0)"/><path class="cls-16" d="M503.79,1014.24" transform="translate(0 0)"/><path class="cls-16" d="M489,1024.25a45.29,45.29,0,0,0,16.13-10.49c6.35-6.49,8.59-13,11.87-12.45,2.59.41,2.86,4.75,6.49,11a42.6,42.6,0,0,0,10.55,12.06l-12,0Z" transform="translate(0 0)"/><path class="cls-17" d="M518.54,1006.4a26.81,26.81,0,0,0,11.19,18" transform="translate(0 0)"/><path class="cls-18" d="M518.54,1006.4A26.58,26.58,0,0,0,530,1024l-.57.82a27.3,27.3,0,0,1-7.37-8.11A26.86,26.86,0,0,1,518.54,1006.4Z" transform="translate(0 0)"/><path class="cls-17" d="M512.45,1007.86a37.67,37.67,0,0,1-17.9,16.41" transform="translate(0 0)"/><path class="cls-18" d="M512.45,1007.86a38.05,38.05,0,0,1-17.7,16.87l-.4-.92A37.46,37.46,0,0,0,512.45,1007.86Z" transform="translate(0 0)"/><path class="cls-17" d="M514.68,1007.67a18.66,18.66,0,0,1-13.18,16.62" transform="translate(0 0)"/><path class="cls-18" d="M514.68,1007.67a18.92,18.92,0,0,1-3.8,10.52,18.65,18.65,0,0,1-4.11,4,19.19,19.19,0,0,1-5.12,2.61l-.3-1a18.57,18.57,0,0,0,9.14-5.93A18.74,18.74,0,0,0,514.68,1007.67Z" transform="translate(0 0)"/><path class="cls-16" d="M516.84,1007.6" transform="translate(0 0)"/><path class="cls-17" d="M517.23,1007a21.33,21.33,0,0,0,4.4,13.51,19.43,19.43,0,0,0,4.13,3.84" transform="translate(0 0)"/><path class="cls-18" d="M517.23,1007a22,22,0,0,0,2.3,9.66A18.75,18.75,0,0,0,526,1024l-.57.82a19.7,19.7,0,0,1-6.4-7.88A22.45,22.45,0,0,1,517.23,1007Z" transform="translate(0 0)"/><path class="cls-16" d="M516.38,1014.35" transform="translate(0 0)"/><path class="cls-16" d="M503.24,1024.37a45.49,45.49,0,0,0,16.12-10.49c6.35-6.5,8.59-13,11.87-12.46,2.6.41,2.86,4.75,6.49,11a42.59,42.59,0,0,0,10.56,12.06l-12,0Z" transform="translate(0 0)"/><path class="cls-17" d="M532.74,1006.51a26.8,26.8,0,0,0,11.19,18" transform="translate(0 0)"/><path class="cls-18" d="M532.74,1006.51a26.6,26.6,0,0,0,11.47,17.57l-.57.82a27.34,27.34,0,0,1-7.37-8.12A26.84,26.84,0,0,1,532.74,1006.51Z" transform="translate(0 0)"/><path class="cls-17" d="M526.64,1008a37.71,37.71,0,0,1-17.9,16.4" transform="translate(0 0)"/><path class="cls-18" d="M526.64,1008a37.89,37.89,0,0,1-17.7,16.86l-.4-.91A37.46,37.46,0,0,0,526.64,1008Z" transform="translate(0 0)"/><path class="cls-17" d="M528.87,1007.78a18.62,18.62,0,0,1-13.18,16.62" transform="translate(0 0)"/><path class="cls-18" d="M528.87,1007.78a18.84,18.84,0,0,1-7.9,14.5,19.52,19.52,0,0,1-5.13,2.6l-.29-1a18.64,18.64,0,0,0,5-2.27,18.26,18.26,0,0,0,4.13-3.67A18.63,18.63,0,0,0,528.87,1007.78Z" transform="translate(0 0)"/><path class="cls-16" d="M531,1007.72" transform="translate(0 0)"/><path class="cls-17" d="M531.43,1007.13a21.34,21.34,0,0,0,4.39,13.5,19.15,19.15,0,0,0,4.13,3.84" transform="translate(0 0)"/><path class="cls-18" d="M531.43,1007.13a21.89,21.89,0,0,0,2.29,9.66,18.8,18.8,0,0,0,6.51,7.27l-.56.83a19.56,19.56,0,0,1-6.4-7.89A22.27,22.27,0,0,1,531.43,1007.13Z" transform="translate(0 0)"/><path class="cls-16" d="M530.57,1014.47" transform="translate(0 0)"/><path class="cls-16" d="M517.43,1024.37a45.6,45.6,0,0,0,16.13-10.49c6.34-6.5,8.59-13,11.86-12.46,2.6.41,2.87,4.75,6.49,11a42.75,42.75,0,0,0,10.56,12.06l-12,0Z" transform="translate(0 0)"/><path class="cls-17" d="M546.93,1006.51a26.8,26.8,0,0,0,11.19,18" transform="translate(0 0)"/><path class="cls-18" d="M546.93,1006.51a26.57,26.57,0,0,0,11.48,17.57l-.58.82a27.61,27.61,0,0,1-7.37-8.12A27,27,0,0,1,546.93,1006.51Z" transform="translate(0 0)"/><path class="cls-17" d="M540.83,1008a37.63,37.63,0,0,1-17.89,16.4" transform="translate(0 0)"/><path class="cls-18" d="M540.83,1008a37.91,37.91,0,0,1-17.69,16.86l-.4-.91A37.48,37.48,0,0,0,540.83,1008Z" transform="translate(0 0)"/><path class="cls-17" d="M543.06,1007.78a18.63,18.63,0,0,1-13.17,16.62" transform="translate(0 0)"/><path class="cls-18" d="M543.06,1007.78a18.84,18.84,0,0,1-7.9,14.5,19.36,19.36,0,0,1-5.13,2.6l-.29-1a18.64,18.64,0,0,0,5-2.27,18.26,18.26,0,0,0,4.13-3.67A18.56,18.56,0,0,0,543.06,1007.78Z" transform="translate(0 0)"/><path class="cls-16" d="M545.23,1007.72" transform="translate(0 0)"/><path class="cls-17" d="M545.62,1007.13a21.34,21.34,0,0,0,4.39,13.5,19.39,19.39,0,0,0,4.13,3.84" transform="translate(0 0)"/><path class="cls-18" d="M545.62,1007.13a22.17,22.17,0,0,0,2.29,9.66,18.82,18.82,0,0,0,6.52,7.27l-.57.83a19.56,19.56,0,0,1-6.4-7.89A22.27,22.27,0,0,1,545.62,1007.13Z" transform="translate(0 0)"/><path class="cls-16" d="M544.77,1014.47" transform="translate(0 0)"/></g><polygon class="cls-19" points="512.6 937.01 452.95 1040.31 572.24 1040.31 512.6 937.01"/><path class="cls-3" d="M426.5,1036l1.78,3.68-7.44,11,0,.07,1.27-.7,1.27-.68,1.28-.68,6.42-3.12,1.26,2.58-13.66,6.63-1.77-3.65,7.35-10.9,0-.06-1.24.65-1.23.66-1.23.66-6.46,3.13-1.27-2.6Z" transform="translate(0 0)"/><path class="cls-3" d="M423.89,1027.86l2.19,6.55-1.73.58-1.4-1.48-9.31,3.11-.22,2-1.73.58-2.2-6.56,1.74-.58,1.39,1.49,9.32-3.12.22-2Z" transform="translate(0 0)"/><path class="cls-3" d="M409.57,1022.56a3.34,3.34,0,0,0,1.95,2.47,4.74,4.74,0,0,0,1.75.37,8.36,8.36,0,0,0,2.15-.21,8.8,8.8,0,0,0,2.61-1,3.48,3.48,0,0,0,1.43-1.58,3.67,3.67,0,0,0,.12-2.25,8,8,0,0,0-.6-1.77,16.3,16.3,0,0,0-1-1.84l2.64-.57a10.22,10.22,0,0,1,1.64,3.91,7,7,0,0,1-.13,4,5.75,5.75,0,0,1-2.19,2.77,10.62,10.62,0,0,1-3.85,1.57,10,10,0,0,1-3.18.2,6.87,6.87,0,0,1-2.71-.82,6,6,0,0,1-2.05-1.84,7.58,7.58,0,0,1-1.2-2.86,9,9,0,0,1-.2-2.27,12.48,12.48,0,0,1,.3-2.3l2.78.47a14.84,14.84,0,0,0-.33,1.82A5.17,5.17,0,0,0,409.57,1022.56Z" transform="translate(0 0)"/><path class="cls-3" d="M420.23,1004.68,416.7,1006l.39,5.51,3.68.85.24,3.46-15.58-4.28-.27-3.92,14.83-6.43Zm-9.61,3.66-.89.34-1.1.42-1,.34,1.07.21,1.21.26c.38.08.65.14.81.19l3.6.83-.28-3.94Z" transform="translate(0 0)"/><path class="cls-3" d="M405.33,994.86a10,10,0,0,1,.74-3.35,4,4,0,0,1,1.65-1.89,4.71,4.71,0,0,1,2.59-.47,4,4,0,0,1,3,1.66,6.17,6.17,0,0,1,.78,1.45l6.92-4-.26,3.56L414.7,995l-.13,1.72,5.81.42-.23,3.2L405,999.27Zm2.61.43-.07,1,4.09.3.08-1a3.79,3.79,0,0,0-.37-2.32,2.14,2.14,0,0,0-2.69-.55,1.78,1.78,0,0,0-.71,1A5.87,5.87,0,0,0,407.94,995.29Z" transform="translate(0 0)"/><path class="cls-3" d="M423.26,978.41l-3.77.3-1.19,5.4,3.29,1.86-.74,3.38-13.74-8.51L408,977l16-2ZM413,979.2l-1,.07-1.17.09c-.4,0-.74,0-1,0,.27.13.59.3,1,.51l1.09.59c.34.18.59.32.73.41l3.21,1.82.85-3.86Z" transform="translate(0 0)"/><path class="cls-3" d="M418.32,966.26l2.15-5.62,7.35,2.81a17.34,17.34,0,0,1-.29,2.54,16.57,16.57,0,0,1-.83,2.81,7.74,7.74,0,0,1-2.2,3.27,5.78,5.78,0,0,1-3.32,1.3,10.07,10.07,0,0,1-4.3-.77,8.74,8.74,0,0,1-3.53-2.34,6.53,6.53,0,0,1-1.56-3.47,9,9,0,0,1,.65-4.38,11.26,11.26,0,0,1,1.09-2.13,10.93,10.93,0,0,1,1.39-1.74l2,1.91a7.79,7.79,0,0,0-2,2.94,4.58,4.58,0,0,0-.27,2.5,4.23,4.23,0,0,0,1.11,2.13,6.1,6.1,0,0,0,2.35,1.5,7.74,7.74,0,0,0,2.61.57,3.69,3.69,0,0,0,2.13-.55,3.76,3.76,0,0,0,1.42-1.9,8.42,8.42,0,0,0,.35-1.1c.08-.31.13-.61.18-.88l-3-1.13-1,2.68Z" transform="translate(0 0)"/><path class="cls-3" d="M431,948.11a5.89,5.89,0,0,1,2.12,2,4.9,4.9,0,0,1,.68,2.8,7.5,7.5,0,0,1-1.12,3.42,6.29,6.29,0,0,1-3.64,3.2,5.43,5.43,0,0,1-4.31-.68L416.28,954l1.6-2.78,8.05,4.65a3.65,3.65,0,0,0,2.66.66,3.09,3.09,0,0,0,1.8-1.59,3.49,3.49,0,0,0,.55-1.67,2.14,2.14,0,0,0-.49-1.4,5.36,5.36,0,0,0-1.52-1.24l-8-4.64,1.6-2.77Z" transform="translate(0 0)"/><path class="cls-3" d="M442.86,941.63l-3.51-1.4-3.46,4.31,2.13,3.12-2.17,2.7-8.53-13.72,2.46-3.07L445,938.93Zm-9.54-3.85-.88-.35-1.09-.44-1-.41c.17.23.39.52.64.88l.71,1c.23.32.38.55.47.69l2.07,3.06,2.48-3.09Z" transform="translate(0 0)"/><path class="cls-3" d="M448.77,915.55l5.77,15-2.69,2.24-13.68-8.34,2.5-2.09,8,5.11c.14.08.39.25.74.5l1.09.8c.39.28.69.53.93.74-.17-.27-.36-.61-.58-1s-.41-.83-.59-1.22-.3-.67-.37-.81l-3.59-8.78Z" transform="translate(0 0)"/><path class="cls-3" d="M466.83,913.24a11,11,0,0,1,1.29,3,6.86,6.86,0,0,1,.15,2.8,5.64,5.64,0,0,1-1.1,2.53,8.5,8.5,0,0,1-2.47,2.14,8.34,8.34,0,0,1-3.05,1.19,5.88,5.88,0,0,1-2.75-.2,6.64,6.64,0,0,1-2.41-1.44,10.62,10.62,0,0,1-2-2.52,9.77,9.77,0,0,1-1.46-3.91,5.88,5.88,0,0,1,.63-3.55,9,9,0,0,1,7-4.22,5.89,5.89,0,0,1,3.44,1.1A9.94,9.94,0,0,1,466.83,913.24ZM457.36,919a8.5,8.5,0,0,0,1.76,2.14,3.63,3.63,0,0,0,2,.86,3.62,3.62,0,0,0,3.92-4.43,8.76,8.76,0,0,0-1.09-2.55,6.83,6.83,0,0,0-2.71-2.76,3.22,3.22,0,0,0-3.21.36,3.69,3.69,0,0,0-1.58,1.67,3.62,3.62,0,0,0-.16,2.16A8.45,8.45,0,0,0,457.36,919Z" transform="translate(0 0)"/><path class="cls-3" d="M472.71,919l-5.89-14,3-1.25,4.86,11.55,5.68-2.39,1,2.45Z" transform="translate(0 0)"/><path class="cls-3" d="M490,897.18l-.91,16-3.38.94-9-13.24,3.13-.87,5.17,7.94c.09.13.25.39.46.76l.67,1.18c.24.42.41.77.54,1.06,0-.31-.08-.71-.1-1.18s0-.92,0-1.36,0-.73,0-.89l.35-9.47Z" transform="translate(0 0)"/><path class="cls-3" d="M503.63,910.56,495,911.79l-2.14-15,8.65-1.23.37,2.61-5.47.78.47,3.31,5.09-.73.37,2.61-5.09.73.55,3.87,5.47-.78Z" transform="translate(0 0)"/><path class="cls-3" d="M510,895.15a9.64,9.64,0,0,1,3.41.44,3.91,3.91,0,0,1,2,1.48,4.5,4.5,0,0,1,.7,2.53,3.9,3.9,0,0,1-.36,1.82,4.08,4.08,0,0,1-1,1.34,6.18,6.18,0,0,1-1.38.9L518,910.2l-3.57.06-3.7-5.77-1.73,0,.1,5.82-3.21,0-.25-15.17Zm-.19,2.64h-1l.07,4.1h1a3.85,3.85,0,0,0,2.28-.57,2.19,2.19,0,0,0,.32-2.74,2,2,0,0,0-1-.62A5.7,5.7,0,0,0,509.83,897.79Z" transform="translate(0 0)"/><path class="cls-3" d="M528,911.61l-.62-3.73-5.48-.72-1.57,3.43-3.44-.45,7.31-14.41,3.9.52,3.34,15.81Zm-1.66-10.15-.15-.94c-.07-.38-.13-.77-.19-1.16s-.11-.74-.15-1l-.42,1c-.17.39-.34.77-.49,1.13s-.27.61-.35.76L523,904.59l3.92.51Zm4.85-9.24c-.23.17-.52.37-.88.61l-1.16.75c-.41.26-.82.5-1.21.73l-1,.56-2.09-.28,0-.27.91-.84c.35-.31.7-.65,1-1s.64-.67.87-1l3.52.47Z" transform="translate(0 0)"/><path class="cls-3" d="M545.9,916.68l.15-3.77-5.22-1.82-2.23,3L535.33,913l10.08-12.62,3.71,1.29.06,16.17Zm.44-10.27c0-.25,0-.57,0-.95s0-.78,0-1.18,0-.74.07-1l-.62.9-.71,1c-.23.32-.39.54-.5.67l-2.18,3,3.73,1.31Z" transform="translate(0 0)"/><path class="cls-3" d="M564.37,921.48a4.18,4.18,0,0,1-1.74,1.7,4.32,4.32,0,0,1-2.42.38,7.79,7.79,0,0,1-2.89-1,12,12,0,0,1-1.28-.87,9.55,9.55,0,0,1-1.1-1,8.94,8.94,0,0,1-.88-1.09l1.5-2.59c.47.63,1,1.25,1.51,1.87a7.22,7.22,0,0,0,1.8,1.49,2.89,2.89,0,0,0,1.2.45,1.54,1.54,0,0,0,.9-.14,1.47,1.47,0,0,0,.6-.61,1.32,1.32,0,0,0,.16-1,4.33,4.33,0,0,0-.54-1.18c-.26-.42-.57-.89-.92-1.41a11.74,11.74,0,0,1-.69-1.1A6.34,6.34,0,0,1,559,914a4.16,4.16,0,0,1-.16-1.55,4,4,0,0,1,.58-1.73,4.17,4.17,0,0,1,1.71-1.7,4,4,0,0,1,2.29-.38,6.69,6.69,0,0,1,2.62.93,9.33,9.33,0,0,1,1.82,1.37,15,15,0,0,1,1.54,1.81l-2.16,1.65a16.83,16.83,0,0,0-1.29-1.51,6,6,0,0,0-1.35-1.06,2.4,2.4,0,0,0-1-.34,1.44,1.44,0,0,0-.83.13,1.4,1.4,0,0,0-.59.59,1.32,1.32,0,0,0-.18.94,3.17,3.17,0,0,0,.47,1.09c.25.41.58.91,1,1.5a13.33,13.33,0,0,1,1.15,2,4.43,4.43,0,0,1,.39,1.85A4.11,4.11,0,0,1,564.37,921.48Z" transform="translate(0 0)"/><path class="cls-3" d="M570.78,931.45l-7-5.24,9.11-12.14,7,5.24-1.58,2.11-4.42-3.32-2,2.67,4.12,3.09L574.41,926l-4.11-3.09L568,926l4.42,3.32Z" transform="translate(0 0)"/><path class="cls-3" d="M586.23,925.1a9.79,9.79,0,0,1,2.08,2.73,4,4,0,0,1,.38,2.48,4.55,4.55,0,0,1-1.31,2.28,4,4,0,0,1-1.55,1,4.12,4.12,0,0,1-1.66.22,6.24,6.24,0,0,1-1.62-.35l-1.43,7.85-2.55-2.49,1.49-6.7-1.23-1.2-4.08,4.17-2.29-2.25L583.07,922Zm-2,1.72-.7-.68-2.87,2.93.75.73a3.86,3.86,0,0,0,2,1.22,1.9,1.9,0,0,0,1.6-.65,1.68,1.68,0,0,0,.3-2.21A5.65,5.65,0,0,0,584.22,926.82Z" transform="translate(0 0)"/><path class="cls-3" d="M599.85,941.1a9.76,9.76,0,0,1,1.51,3.08,4,4,0,0,1-.11,2.51,4.58,4.58,0,0,1-1.73,2,4,4,0,0,1-1.72.7,3.91,3.91,0,0,1-1.67-.12,6,6,0,0,1-1.52-.64L591.68,956l-2-2.95,2.76-6.27-1-1.42-4.8,3.29L584.83,946l12.52-8.58Zm-2.31,1.29-.55-.8-3.38,2.32.59.86a3.79,3.79,0,0,0,1.73,1.58,1.85,1.85,0,0,0,1.68-.32,1.81,1.81,0,0,0,.77-.93,1.84,1.84,0,0,0,0-1.18A6.39,6.39,0,0,0,597.54,942.39Z" transform="translate(0 0)"/><path class="cls-3" d="M596,964.71l-4-7.78,13.53-6.88,4,7.79L607.13,959l-2.5-4.93-3,1.52L604,960.2l-2.35,1.2-2.33-4.59-3.48,1.77,2.5,4.93Z" transform="translate(0 0)"/><path class="cls-3" d="M612.75,966.21a6.11,6.11,0,0,1,.25,4.46,4.54,4.54,0,0,1-2.82,2.44,6.32,6.32,0,0,1-1.89.36,4.35,4.35,0,0,1-1.86-.39,4.77,4.77,0,0,1-1.66-1.34,8.37,8.37,0,0,1-1.31-2.49L603,968l-5.08,1.82-1.08-3,14.3-5.09Zm-2.54.73-.49-1.39-4.24,1.52.35,1a5,5,0,0,0,.75,1.4,2.06,2.06,0,0,0,1,.71,2.2,2.2,0,0,0,1.37-.1,2.1,2.1,0,0,0,1.36-1.14A2.85,2.85,0,0,0,610.21,966.94Z" transform="translate(0 0)"/><path class="cls-3" d="M608.47,989.39a5.85,5.85,0,0,1-2.92-.13,4.91,4.91,0,0,1-2.36-1.66,7.47,7.47,0,0,1-1.39-3.31,6.29,6.29,0,0,1,.63-4.81,5.41,5.41,0,0,1,3.69-2.32l9.6-1.88.61,3.15-9.11,1.79a3.63,3.63,0,0,0-2.44,1.25,3.07,3.07,0,0,0-.32,2.38,3.57,3.57,0,0,0,.69,1.62,2.16,2.16,0,0,0,1.29.74,5.31,5.31,0,0,0,2-.07l9.09-1.78.62,3.15Zm13.69-4.45c-.24-.16-.52-.37-.87-.63l-1.07-.87c-.38-.3-.74-.61-1.08-.91s-.63-.57-.86-.8l-.41-2.06.28-.06c.3.18.66.38,1.08.61s.84.45,1.28.67.83.39,1.17.52l.68,3.49Z" transform="translate(0 0)"/><path class="cls-3" d="M618.79,997.1a9.65,9.65,0,0,1-.66,4.62,3.13,3.13,0,0,1-2.93,1.67,4.34,4.34,0,0,1-1.56-.21,2.92,2.92,0,0,1-1.18-.75,2.66,2.66,0,0,1-.63-1.24h-.1a4,4,0,0,1-.48,1.4,2.63,2.63,0,0,1-1.06,1,4.43,4.43,0,0,1-1.9.44,4,4,0,0,1-4-2.44,7.6,7.6,0,0,1-.64-3l-.23-5.67,15.16-.62Zm-8.62-1.16-3.95.16.09,2.1a2.89,2.89,0,0,0,.64,2,2.05,2.05,0,0,0,1.52.51,2,2,0,0,0,1-.29,1.56,1.56,0,0,0,.63-.86,4.55,4.55,0,0,0,.16-1.63Zm2.63,1.76a3.19,3.19,0,0,0,.52,1.93,1.59,1.59,0,0,0,1.32.49,1.38,1.38,0,0,0,1.23-.69,4.05,4.05,0,0,0,.3-2l-.07-1.69-3.38.13Z" transform="translate(0 0)"/><path class="cls-3" d="M603.72,1006.29l15.12,1.36-.29,3.2-12.47-1.12-.55,6.14-2.65-.24Z" transform="translate(0 0)"/><path class="cls-3" d="M601.38,1023l1.32-6.78,1.79.35.49,2,9.64,1.87,1.18-1.65,1.8.35-1.32,6.78-1.79-.35-.48-2-9.65-1.87-1.18,1.65Z" transform="translate(0 0)"/><path class="cls-3" d="M611.24,1034.69a3.54,3.54,0,0,0,.14-1.66,3.4,3.4,0,0,0-.62-1.45,4.74,4.74,0,0,0-1.34-1.19,9.07,9.07,0,0,0-2-.87,8.58,8.58,0,0,0-2.74-.45,3.36,3.36,0,0,0-2,.68,3.65,3.65,0,0,0-1.22,1.89,8.68,8.68,0,0,0-.35,1.84,17.77,17.77,0,0,0,0,2.09l-2.58-.8a11,11,0,0,1,0-2.07,12.06,12.06,0,0,1,.47-2.14,7.13,7.13,0,0,1,2.08-3.4,5.7,5.7,0,0,1,3.26-1.33,10.8,10.8,0,0,1,4.12.53,9.88,9.88,0,0,1,2.88,1.39,7,7,0,0,1,1.95,2,6,6,0,0,1,.88,2.62,7.7,7.7,0,0,1-.36,3.08,8.78,8.78,0,0,1-.95,2.07,11.62,11.62,0,0,1-1.39,1.85l-2.18-1.77c.42-.46.81-.94,1.18-1.42A5,5,0,0,0,611.24,1034.69Z" transform="translate(0 0)"/><path class="cls-3" d="M593.16,1045l3.74.56,2.38-5-2.79-2.55,1.5-3.13,11.44,11.4-1.69,3.55-16.07-1.71Zm10.17,1.55.94.15,1.16.18q.6.09,1,.18l-.82-.71-.93-.82c-.29-.26-.5-.45-.61-.57l-2.72-2.5-1.71,3.57Z" transform="translate(0 0)"/><path class="cls-3" d="M451.61,1079.32l-2,1.67,1.82,1.51-.87,1-2-1.68-2.88,2.36-1.11-.93,2.87-2.35-1.76-1.46-2.85,2.38-1.09-.91,2.84-2.39-1.68-1.39.87-1,1.88,1.56,2.05-1.66-1.77-1.47.87-1,2,1.63,2.89-2.4,1.13.94-2.9,2.38,1.79,1.49,2.88-2.4,1.09.91-2.9,2.38,1.69,1.4-.87,1.05Zm-4.91-.71,1.76,1.46,2-1.67-1.76-1.46Z" transform="translate(0 0)"/><path class="cls-3" d="M458.91,1089.5a3.32,3.32,0,0,1-1.53,1.3,3.56,3.56,0,0,1-2,.16,6.24,6.24,0,0,1-2.28-1,10.88,10.88,0,0,1-1.06-.8,11.7,11.7,0,0,1-.87-.84,5.31,5.31,0,0,1-.61-.83l1-1.51a9.87,9.87,0,0,0,1.07,1.4,7.35,7.35,0,0,0,1.48,1.3,3.81,3.81,0,0,0,1.31.59,1.87,1.87,0,0,0,1.06-.06,1.68,1.68,0,0,0,.76-.64,1.56,1.56,0,0,0,.3-1,2.73,2.73,0,0,0-.34-1.12,11.2,11.2,0,0,0-1-1.52,9.38,9.38,0,0,1-.74-1.21,4.49,4.49,0,0,1-.41-1.2,3.13,3.13,0,0,1,0-1.22,3.81,3.81,0,0,1,.57-1.27,3,3,0,0,1,1.42-1.2,3.34,3.34,0,0,1,1.84-.15,5.43,5.43,0,0,1,2,.85,8.71,8.71,0,0,1,1.48,1.23,8.94,8.94,0,0,1,1.08,1.39l-1.37,1a10.57,10.57,0,0,0-.95-1.23,6.21,6.21,0,0,0-1.19-1,3.06,3.06,0,0,0-1.11-.48,1.56,1.56,0,0,0-.92.09,1.53,1.53,0,0,0-.68.59,1.67,1.67,0,0,0-.32,1,2.63,2.63,0,0,0,.31,1.07,16.1,16.1,0,0,0,.89,1.45,9.53,9.53,0,0,1,1,1.74,3.39,3.39,0,0,1,.32,1.58A3.22,3.22,0,0,1,458.91,1089.5Z" transform="translate(0 0)"/><path class="cls-3" d="M472.61,1093.4a9.06,9.06,0,0,1-1.53,2.22,5.76,5.76,0,0,1-1.91,1.35,4.81,4.81,0,0,1-2.24.35,6.7,6.7,0,0,1-2.51-.75,6.62,6.62,0,0,1-2.12-1.59,4.9,4.9,0,0,1-1.05-2,5.52,5.52,0,0,1,0-2.33,9,9,0,0,1,.89-2.55,8.24,8.24,0,0,1,2.1-2.75,4.94,4.94,0,0,1,2.77-1.14,6.2,6.2,0,0,1,3.33.76,6.11,6.11,0,0,1,2.54,2.19,5.09,5.09,0,0,1,.73,2.9A8.35,8.35,0,0,1,472.61,1093.4Zm-8.72-4.4a7.35,7.35,0,0,0-.81,2.52,3.39,3.39,0,0,0,.38,2.08,4.35,4.35,0,0,0,3.92,2,3.44,3.44,0,0,0,1.88-.94,7.34,7.34,0,0,0,1.54-2.15,6.12,6.12,0,0,0,.8-3.6,3.33,3.33,0,0,0-2-2.46,3.83,3.83,0,0,0-2.24-.48,3.36,3.36,0,0,0-1.89.91A7.47,7.47,0,0,0,463.89,1089Z" transform="translate(0 0)"/><path class="cls-3" d="M481,1099.56a3.29,3.29,0,0,1-1.17,1.63,3.5,3.5,0,0,1-1.9.62,6.29,6.29,0,0,1-2.45-.42,10.43,10.43,0,0,1-1.22-.53,9.2,9.2,0,0,1-1-.61,5,5,0,0,1-.8-.67l.62-1.69a10.41,10.41,0,0,0,1.37,1.1,7.59,7.59,0,0,0,1.74.91,3.79,3.79,0,0,0,1.41.26,1.74,1.74,0,0,0,1-.31,1.57,1.57,0,0,0,.59-.8,1.51,1.51,0,0,0,.06-1,2.84,2.84,0,0,0-.59-1,13.17,13.17,0,0,0-1.29-1.25,9.52,9.52,0,0,1-1-1,4.63,4.63,0,0,1-.69-1.07,3.08,3.08,0,0,1-.27-1.19,3.73,3.73,0,0,1,.25-1.37,3,3,0,0,1,1.1-1.5,3.26,3.26,0,0,1,1.74-.58,5.29,5.29,0,0,1,2.15.35,8.18,8.18,0,0,1,1.73.84,9.25,9.25,0,0,1,1.38,1.1l-1.1,1.27a12.24,12.24,0,0,0-1.22-1,6.37,6.37,0,0,0-1.4-.72,2.83,2.83,0,0,0-1.19-.2,1.57,1.57,0,0,0-.87.3,1.61,1.61,0,0,0-.52.74,1.71,1.71,0,0,0-.08,1,2.52,2.52,0,0,0,.55,1,15.3,15.3,0,0,0,1.21,1.2,10.38,10.38,0,0,1,1.4,1.45,3.31,3.31,0,0,1,.69,1.46A3.21,3.21,0,0,1,481,1099.56Z" transform="translate(0 0)"/><path class="cls-3" d="M493.07,1106.11l-2.26-.52-3.91-11.41h-.07c-.05.3-.11.64-.17,1s-.15.76-.22,1.17-.17.82-.26,1.25l-1.53,6.56-1.69-.4,2.86-12.32,2.25.52,3.91,11.35h0c.05-.24.1-.55.18-.92l.23-1.19c.08-.43.16-.82.23-1.19l1.54-6.63,1.73.4Z" transform="translate(0 0)"/><path class="cls-3" d="M500.92,1107.12l-4.87-.62.14-1.09,1.55-.24,1.21-9.48-1.44-.64.14-1.09,4.87.62-.14,1.09-1.53.27-1.21,9.47,1.42.63Z" transform="translate(0 0)"/><path class="cls-3" d="M509.67,1096.48a4,4,0,0,0-1.69.26,3.41,3.41,0,0,0-1.31.91,4.43,4.43,0,0,0-.85,1.51,6.93,6.93,0,0,0-.36,2,6.73,6.73,0,0,0,.34,2.59,3.55,3.55,0,0,0,1.26,1.72,4,4,0,0,0,2.21.68,8.09,8.09,0,0,0,1.57-.09,15.46,15.46,0,0,0,1.55-.34l-.07,1.65a8.07,8.07,0,0,1-1.53.35,10.48,10.48,0,0,1-1.82.06,6.06,6.06,0,0,1-3.18-.92,5,5,0,0,1-1.83-2.34,8.73,8.73,0,0,1-.5-3.46,8.47,8.47,0,0,1,.5-2.61,6,6,0,0,1,1.24-2,5,5,0,0,1,1.94-1.26,6.53,6.53,0,0,1,2.61-.37,9,9,0,0,1,1.87.28,6.92,6.92,0,0,1,1.64.64l-.77,1.57a9.21,9.21,0,0,0-1.31-.56A5,5,0,0,0,509.67,1096.48Z" transform="translate(0 0)"/><path class="cls-3" d="M523.62,1107.11l-1.61-3.54-4.87.35-1.08,3.74-2,.15,3.86-13,2-.15,5.7,12.32Zm-3.79-8.62-.23-.58c-.11-.26-.22-.52-.32-.8l-.24-.66c0,.24-.09.5-.15.78s-.11.54-.17.78-.09.42-.13.57l-1,3.64,3.78-.28Z" transform="translate(0 0)"/><path class="cls-3" d="M529.13,1093.45a7.48,7.48,0,0,1,2.71-.1,3.2,3.2,0,0,1,1.76.9,3.74,3.74,0,0,1,.88,1.9,3.43,3.43,0,0,1-.05,1.67,3.17,3.17,0,0,1-.71,1.24,5.65,5.65,0,0,1-1,.87l4.53,4.86-2.16.41-3.95-4.46-2.16.41,1,5-1.88.36-2.37-12.43Zm.19,1.62-1.48.29.8,4.22,1.57-.29a3.38,3.38,0,0,0,2-1,2,2,0,0,0,.35-1.76,2.1,2.1,0,0,0-.53-1.13A1.71,1.71,0,0,0,531,1095,5.37,5.37,0,0,0,529.32,1095.07Z" transform="translate(0 0)"/><path class="cls-3" d="M547.24,1101.72l-2.38-3.08-4.67,1.47L540,1104l-1.89.59.78-13.55,1.89-.6,8.37,10.69Zm-5.67-7.52c-.07-.12-.19-.29-.35-.51s-.33-.46-.49-.7l-.39-.6c0,.25,0,.51,0,.8s0,.55,0,.79v.59l-.15,3.78,3.61-1.14Z" transform="translate(0 0)"/><path class="cls-3" d="M553.12,1091.94l4.16-1.88,2.6,5.74a12.34,12.34,0,0,1-1.67,1.31,15.31,15.31,0,0,1-2.12,1.15,6.37,6.37,0,0,1-3.3.63,5.1,5.1,0,0,1-2.78-1.19,8.12,8.12,0,0,1-2.07-2.9,7.14,7.14,0,0,1-.71-3.45,5.51,5.51,0,0,1,1.12-3,7.26,7.26,0,0,1,2.9-2.2,9.48,9.48,0,0,1,3.75-.86l0,1.74a9.57,9.57,0,0,0-1.54.14,7.14,7.14,0,0,0-1.63.51,4.71,4.71,0,0,0-2,1.54,3.87,3.87,0,0,0-.73,2.17,5.8,5.8,0,0,0,.57,2.59,6.66,6.66,0,0,0,1.44,2.11,3.53,3.53,0,0,0,2,1,4.52,4.52,0,0,0,2.54-.46,7.72,7.72,0,0,0,1.13-.6,9.46,9.46,0,0,0,.81-.57l-1.42-3.13-2.44,1.1Z" transform="translate(0 0)"/><path class="cls-3" d="M569.48,1085.46a5,5,0,0,1,.78,2.29,3.86,3.86,0,0,1-.53,2.29,5.7,5.7,0,0,1-2.07,2,4.84,4.84,0,0,1-3.78.84,4.65,4.65,0,0,1-2.85-2.23l-4.3-6.92,1.63-1,4.25,6.85a3.19,3.19,0,0,0,1.88,1.59,3.08,3.08,0,0,0,2.39-.55,3.46,3.46,0,0,0,1.27-1.25,2.32,2.32,0,0,0,.26-1.44,4.19,4.19,0,0,0-.62-1.59l-4.24-6.83,1.61-1Z" transform="translate(0 0)"/><path class="cls-3" d="M581.09,1082l-3.33-2L574,1083.1l1.24,3.68-1.55,1.25-4.22-12.91,1.55-1.24,11.68,6.9Zm-8-4.94-.52-.34-.71-.48-.58-.41.32.73c.12.27.22.51.31.73l.21.55,1.24,3.57,2.95-2.37Z" transform="translate(0 0)"/></svg>