<?xml version="1.0" encoding="utf-8"?>
<!-- Generator: Adobe Illustrator 27.1.0, SVG Export Plug-In . SVG Version: 6.00 Build 0)  -->
<svg version="1.1" id="Layer_1" xmlns="http://www.w3.org/2000/svg" xmlns:xlink="http://www.w3.org/1999/xlink" x="0px" y="0px"
	 viewBox="0 0 435.2 424.6" style="enable-background:new 0 0 435.2 424.6;" xml:space="preserve">
<style type="text/css">
	.st0{fill:#FFFFFF;}
</style>
<g id="Layer_2">
	<g id="Surfaces">
		<g id="Photo_Surface">
			<g id="Outline_no_shadow">
				<path d="M80.3,5h274.6c41.5,0,75.3,33.6,75.3,75.2c0,0,0,0.1,0,0.1v264c0,41.5-33.6,75.3-75.2,75.3c0,0-0.1,0-0.1,0H80.3
					C38.8,419.6,5,386,5,344.4c0,0,0-0.1,0-0.1v-264C5,38.7,38.6,5,80.2,5C80.2,5,80.3,5,80.3,5z"/>
			</g>
		</g>
	</g>
	<path class="st0" d="M217.7,272.4h-71.4l-14.6,45.1c-0.3,1.7-1.9,2.9-3.6,2.7H92c-2.1,0-2.7-1.1-2.1-3.5l61.8-177.9
		c0.6-1.9,1.1-4,1.9-6.3c0.8-4.1,1.2-8.3,1.1-12.5c-0.1-1,0.5-1.9,1.5-2.1H206c1.5,0,2.3,0.6,2.5,1.5l70,197.6
		c0.6,2.1,0,3.1-1.9,3.1h-40.1c-1.4,0.1-2.7-0.8-3.1-2.1L217.7,272.4z M157.4,233.4h48.8c-1.2-4-2.7-8.8-4.4-13.8
		c-1.7-5.2-3.5-10.8-5.2-16.5c-1.9-5.9-3.6-11.7-5.6-17.6s-3.6-11.5-5.2-17.1c-1.5-5.4-2.9-10.4-4.2-15h-0.4
		c-1.7,8.4-3.9,16.6-6.5,24.8c-2.9,9.2-5.8,18.8-8.8,28.4C163.2,216.3,160.3,225.4,157.4,233.4L157.4,233.4z M321.3,151.5
		c-6.4,0.1-12.5-2.3-17.1-6.7c-4.4-4.8-6.7-11.1-6.5-17.7c-0.2-6.4,2.3-12.6,6.9-17c4.6-4.4,10.7-6.8,17.1-6.7
		c7.5,0,13.2,2.3,17.5,6.7c8.6,10,8.4,24.9-0.4,34.7C334.2,149.5,327.8,151.9,321.3,151.5L321.3,151.5z M299.8,318.1V170.4
		c0-1.9,0.8-2.7,2.5-2.7h38c1.7,0,2.5,1,2.5,2.7v147.8c0,2.1-0.8,3.1-2.5,3.1h-37.6C300.8,321.2,299.8,320,299.8,318.1z"/>
</g>
</svg>
