<svg xmlns="http://www.w3.org/2000/svg" xml:space="preserve" style="enable-background:new 0 0 435.2 424.6" viewBox="0 0 435.2 424.6"><path d="M80.3 5h274.6c41.5 0 75.3 33.6 75.3 75.2v264.1c0 41.5-33.6 75.3-75.2 75.3H80.3C38.8 419.6 5 386 5 344.4V80.3C5 38.7 38.6 5 80.2 5h.1z"/><path d="M217.7 272.4h-71.4l-14.6 45.1c-.3 1.7-1.9 2.9-3.6 2.7H92c-2.1 0-2.7-1.1-2.1-3.5l61.8-177.9c.6-1.9 1.1-4 1.9-6.3.8-4.1 1.2-8.3 1.1-12.5-.1-1 .5-1.9 1.5-2.1H206c1.5 0 2.3.6 2.5 1.5l70 197.6c.6 2.1 0 3.1-1.9 3.1h-40.1c-1.4.1-2.7-.8-3.1-2.1l-15.7-45.6zm-60.3-39h48.8c-1.2-4-2.7-8.8-4.4-13.8-1.7-5.2-3.5-10.8-5.2-16.5-1.9-5.9-3.6-11.7-5.6-17.6s-3.6-11.5-5.2-17.1c-1.5-5.4-2.9-10.4-4.2-15h-.4c-1.7 8.4-3.9 16.6-6.5 24.8-2.9 9.2-5.8 18.8-8.8 28.4-2.7 9.7-5.6 18.8-8.5 26.8zm163.9-81.9c-6.4.1-12.5-2.3-17.1-6.7-4.4-4.8-6.7-11.1-6.5-17.7-.2-6.4 2.3-12.6 6.9-17 4.6-4.4 10.7-6.8 17.1-6.7 7.5 0 13.2 2.3 17.5 6.7 8.6 10 8.4 24.9-.4 34.7-4.6 4.7-11 7.1-17.5 6.7zm-21.5 166.6V170.4c0-1.9.8-2.7 2.5-2.7h38c1.7 0 2.5 1 2.5 2.7v147.8c0 2.1-.8 3.1-2.5 3.1h-37.6c-1.9-.1-2.9-1.3-2.9-3.2z" style="fill:#fff"/></svg>