<svg xmlns="http://www.w3.org/2000/svg" id="Capa_1" data-name="Capa 1" viewBox="0 0 190 210"><defs><style>.cls-1{fill:#fff}.cls-1,.cls-2{fill-rule:evenodd}</style></defs><path d="M89.51 1.43c3.4-1.91 7.57-1.91 10.97 0 16.77 9.42 67.26 37.75 84.03 47.17 3.4 1.9 5.49 5.42 5.49 9.23v94.33c0 3.81-2.09 7.33-5.49 9.24-16.77 9.41-67.26 37.75-84.03 47.17-3.4 1.91-7.57 1.91-10.97 0-16.77-9.41-67.26-37.75-84.03-47.17-3.39-1.91-5.48-5.42-5.48-9.23V57.84c0-3.81 2.09-7.33 5.49-9.24 16.77-9.41 67.25-37.75 84.02-47.17Z" class="cls-2"/><path d="M1.52 157.02C.19 155.24 0 153.55 0 151.28v-93.8c0-3.79 2.08-7.29 5.47-9.18C22.19 38.94 72.5 10.77 89.21 1.4c3.39-1.89 7.97-1.86 11.35.04 16.72 9.36 66.86 37.3 83.57 46.65 1.35.76 2.38 1.68 3.3 2.88L1.52 157.02Z" class="cls-2"/><path d="M95 35c38.64 0 70 31.36 70 70s-31.36 70-70 70-70-31.36-70-70 31.37-70 70-70Zm0 35c19.31 0 35 15.68 35 35s-15.69 35-35 35-35-15.69-35-35 15.68-35 35-35Z" class="cls-1"/><path d="M187.43 51.03c2.58 2.41 2.53 6.06 2.53 8.92 0 18.98-.16 72.94.04 91.92.02 1.98-.63 4.06-1.62 5.63L92.96 105l94.46-53.98Z" class="cls-2"/><path d="M130 90h10v30h-10V90Zm35 0h10v30h-10V90Z" class="cls-1"/><path d="M120 100h30v10h-30v-10Zm35 0h30v10h-30v-10Z" class="cls-1"/></svg>