<svg xmlns="http://www.w3.org/2000/svg" id="Layer_1" data-name="Layer 1" viewBox="0 0 372.6 418.77"><defs><style>.cls-1{fill:#fff}</style></defs><path d="M372.58 123.12a37 37 0 0 0-4.55-18.6 35.56 35.56 0 0 0-13.48-13.13Q280.14 48.49 205.7 5.64c-13.36-7.72-26.33-7.43-39.6.39-19.74 11.65-118.59 68.28-148 85.34-12.14 7-18 17.77-18 31.74v172.56a37 37 0 0 0 4.36 18.25 35.41 35.41 0 0 0 13.58 13.47c29.46 17.06 128.32 73.69 148.06 85.33 13.27 7.84 26.24 8.12 39.61.4q74.38-42.92 148.85-85.73a35.51 35.51 0 0 0 13.74-13.49 37.23 37.23 0 0 0 4.35-18.25s0-115 0-172.53"/><path d="M186.87 208.83 4.36 313.92a35.41 35.41 0 0 0 13.68 13.47c29.46 17.06 128.32 73.69 148.06 85.33 13.27 7.84 26.24 8.12 39.61.4q74.38-42.92 148.85-85.73a35.51 35.51 0 0 0 13.74-13.49ZM372.58 123.12a37 37 0 0 0-4.55-18.6L186.87 208.83 368.3 313.9a37.23 37.23 0 0 0 4.35-18.25s0-115 0-172.53"/><path d="M294.3 169.54v19.65h19.64v-19.65h9.82v19.65h19.65v9.82h-19.62v19.64h19.65v9.82h-19.65v19.64h-9.82v-19.64H294.3v19.64h-9.82v-19.64h-19.62v-9.82h19.65v-19.64h-19.65v-9.82h19.65v-19.65Zm19.64 29.47H294.3v19.64h19.64Z" class="cls-1"/><path d="M187.3 70.89a138.45 138.45 0 0 1 119.9 69.19l-.24-.4-60.28 34.71a68.92 68.92 0 0 0-58.62-34h-.76a69 69 0 1 0 60.09 102.78l-.28.51 60.19 34.9a138.47 138.47 0 0 1-118.46 69.3h-1.54a138.5 138.5 0 0 1 0-277Z" class="cls-1"/></svg>