<svg id="Layer_1" data-name="Layer 1" xmlns="http://www.w3.org/2000/svg" viewBox="0 0 372.6 418.77"><defs><style>.cls-1{fill:#fff;}</style></defs><path d="M436.28,163.73a37,37,0,0,0-4.55-18.6A35.56,35.56,0,0,0,418.25,132Q343.84,89.1,269.4,46.25c-13.36-7.72-26.33-7.43-39.6.39-19.74,11.65-118.59,68.28-148,85.34-12.14,7-18,17.77-18,31.74q0,86.28,0,172.56a37,37,0,0,0,4.36,18.25A35.41,35.41,0,0,0,81.74,368c29.46,17.06,128.32,73.69,148.06,85.33,13.27,7.84,26.24,8.12,39.61.4Q343.79,410.81,418.26,368A35.51,35.51,0,0,0,432,354.51a37.23,37.23,0,0,0,4.35-18.25s0-115,0-172.53" transform="translate(-63.7 -40.61)"/><path d="M250.57,249.44,68.06,354.53A35.41,35.41,0,0,0,81.74,368c29.46,17.06,128.32,73.69,148.06,85.33,13.27,7.84,26.24,8.12,39.61.4Q343.79,410.81,418.26,368A35.51,35.51,0,0,0,432,354.51Z" transform="translate(-63.7 -40.61)"/><path d="M436.28,163.73a37,37,0,0,0-4.55-18.6L250.57,249.44,432,354.51a37.23,37.23,0,0,0,4.35-18.25s0-115,0-172.53" transform="translate(-63.7 -40.61)"/><path class="cls-1" d="M358,210.15V229.8h19.64V210.15h9.82V229.8h19.65v9.82H387.49v19.64h19.65v9.82H387.49v19.64h-9.82V269.08H358v19.64h-9.82V269.08H328.56v-9.82h19.65V239.62H328.56V229.8h19.65V210.15Zm19.64,29.47H358v19.64h19.64Z" transform="translate(-63.7 -40.61)"/><path class="cls-1" d="M251,111.5A138.45,138.45,0,0,1,370.9,180.69l-.24-.4L310.38,215a68.92,68.92,0,0,0-58.62-34H251a69,69,0,1,0,60.09,102.78l-.28.51L371,319.19a138.47,138.47,0,0,1-118.46,69.3H251a138.5,138.5,0,0,1,0-277Z" transform="translate(-63.7 -40.61)"/></svg>