<?xml version="1.0" encoding="UTF-8"?>
<svg id="Capa_1" data-name="Capa 1" xmlns="http://www.w3.org/2000/svg" viewBox="0 0 511.17 512">
  <path d="m285.17,512h-20c-10.89-3.53-20.64-8.85-28.86-17.05-70.58-70.45-141.19-140.89-211.96-211.15-11.46-11.38-21.17-23.51-24.35-39.8.18-5.65-.13-11.36.62-16.92,1.76-12.99,8.76-23.15,17.9-32.25,48.39-48.23,96.66-96.59,144.98-144.89,1.18-1.18,2.4-2.31,3.57-3.49,8.01-8.13,25.88-8.48,35.18-2.14,7.63,5.21,10.94,12.35,12.74,20.77,1.11,64.31-.31,128.66.34,192.98.56,2.7,1.09,5.41,1.68,8.1,3.28,15.02,19.29,28.31,35.14,29.67,11.8.06,23.61.18,35.41.18,52.88,0,105.75-.05,158.63-.08,4.38,1.74,9.09,2.92,13.08,5.31,16.18,9.73,16.6,34.41,4.37,46.09-23.37,22.31-45.87,45.53-68.7,68.41-26.95,27.01-53.71,54.21-80.96,80.92-4.94,4.84-11.71,7.91-17.9,11.33-3.35,1.85-7.25,2.72-10.91,4.03Z"/>
  <path d="m511.17,19v204c-.56.23-1.52.35-1.63.71-2.77,9.83-9.88,14.5-19.34,16.41-66.35-.02-132.7-.04-199.05-.06-8.18.38-20.15-11.66-20.07-20.04.03-59.38.06-118.75.08-178.13,0-6.98-.1-13.96-.15-20.95.54-9.36,6.41-14.77,14-18.93,1.09-.6,2.11-1.35,3.16-2.02,68,0,136,0,204,0,3.74,2.24,8.1,3.86,11.05,6.88,3.32,3.39,5.36,8.03,7.95,12.12Z"/>
</svg>