<?xml version="1.0" encoding="utf-8"?>
<!-- Generator: Adobe Illustrator 27.1.0, SVG Export Plug-In . SVG Version: 6.00 Build 0)  -->
<svg version="1.1" id="Capa_1" xmlns="http://www.w3.org/2000/svg" xmlns:xlink="http://www.w3.org/1999/xlink" x="0px" y="0px"
	 viewBox="0 0 109.6 92" style="enable-background:new 0 0 109.6 92;" xml:space="preserve">
<style type="text/css">
	.st0{fill:#100F0D;}
	.st1{clip-path:url(#SVGID_00000065787940727942487250000005715747624210451597_);}
	.st2{clip-path:url(#SVGID_00000122718534392503941480000013315467239676391596_);}
</style>
<g>
	<path class="st0" d="M22.1,32.8c-4.8,0-8.4,2.4-8.4,8c0,4.3,2.3,7.2,8.1,7.2c4.9,0,8.2-2.9,8.2-7.4C30,35.5,27.1,32.8,22.1,32.8z
		 M12.5,72.8c-1.1,1.4-2.3,2.9-2.3,4.6c0,3.5,4.4,4.5,10.5,4.5c5.1,0,11.9-0.4,11.9-5c0-2.8-3.3-3-7.5-3.2L12.5,72.8z M38.3,33.1
		c1.6,2,3.2,4.8,3.2,8.8c0,9.7-7.6,15.3-18.5,15.3c-2.8,0-5.3-0.3-6.9-0.8L13.2,61l8.5,0.5c15.1,1,23.9,1.4,23.9,13
		c0,10-8.8,15.7-23.9,15.7C6,90.2,0,86.2,0,79.3c0-3.9,1.7-6,4.8-8.9C1.9,69.2,1,67.1,1,64.7c0-1.9,1-3.7,2.5-5.3
		c1.6-1.7,3.3-3.3,5.4-5.2c-4.3-2.1-7.5-6.6-7.5-13.1c0-10,6.6-16.9,19.9-16.9c3.7,0,6,0.3,8,0.9h17v7.4L38.3,33.1"/>
	<g>
		<defs>
			<rect id="SVGID_1_" x="50.2" y="1.8" width="25" height="68.2"/>
		</defs>
		<clipPath id="SVGID_00000100372102007725072600000014353637686512059036_">
			<use xlink:href="#SVGID_1_"  style="overflow:visible;"/>
		</clipPath>
		<g style="clip-path:url(#SVGID_00000100372102007725072600000014353637686512059036_);">
			<path class="st0" d="M61.6,17.3c-5,0-7.8-2.9-7.8-7.8c0-5,2.9-7.7,7.8-7.7c5.1,0,7.9,2.7,7.9,7.7C69.5,14.4,66.7,17.3,61.6,17.3z
				 M50.4,69.6v-6.9l4.4-0.6c1.2-0.2,1.4-0.4,1.4-1.7V34.8c0-1-0.3-1.6-1.1-1.8l-4.7-1.7l1-7h18v36.1c0,1.4,0.1,1.6,1.4,1.7l4.4,0.6
				v6.9L50.4,69.6"/>
		</g>
	</g>
	<g>
		<defs>
			<rect id="SVGID_00000150793646764288117970000015705762289890606721_" x="74.2" y="10" width="35.4" height="60"/>
		</defs>
		<clipPath id="SVGID_00000170983454093889011500000009124869681536611743_">
			<use xlink:href="#SVGID_00000150793646764288117970000015705762289890606721_"  style="overflow:visible;"/>
		</clipPath>
		<g style="clip-path:url(#SVGID_00000170983454093889011500000009124869681536611743_);">
			<path class="st0" d="M109.6,66.2c-3.7,1.8-9.2,3.5-14.2,3.5c-10.4,0-14.3-4.2-14.3-14V32.9c0-0.5,0-0.9-0.7-0.9h-6.1v-7.7
				C82,23.4,85.1,19.6,86,10.1h8.3v12.4c0,0.6,0,0.9,0.7,0.9h12.3V32h-13v20.8c0,5.1,1.2,7.1,5.9,7.1c2.4,0,5-0.6,7-1.4L109.6,66.2"
				/>
		</g>
	</g>
</g>
</svg>
