<?xml version="1.0" encoding="UTF-8"?>
<svg id="Capa_1" data-name="Capa 1" xmlns="http://www.w3.org/2000/svg" viewBox="0 0 1840.5 2495.53">
  <path d="m592.75,1929.93s-95.36,55.46,67.87,74.22c197.75,22.56,298.81,19.33,516.74-21.92,0,0,57.3,35.92,137.3,67.04-488.52,209.37-1105.63-12.13-721.91-119.34m-59.7-273.22s-106.96,79.18,56.39,96.07c211.24,21.79,378.06,23.58,666.73-32.01,0,0,39.93,40.48,102.71,62.62-590.66,172.72-1248.54,13.62-825.84-126.68"/>
  <path d="m1036.31,1193.24c120.38,138.58-31.63,263.29-31.63,263.29,0,0,305.64-157.78,165.27-355.37-131.1-184.25-231.64-275.81,312.63-591.46,0,0-854.32,213.37-446.28,683.53"/>
  <path d="m1682.42,2132.02s70.57,58.14-77.72,103.13c-281.98,85.43-1173.64,111.22-1421.34,3.4-89.04-38.73,77.94-92.49,130.46-103.77,54.78-11.88,86.08-9.66,86.08-9.66-99.02-69.76-640.05,136.97-274.81,196.17,996.05,161.53,1815.69-72.73,1557.33-189.27m-1043.81-758.4s-453.55,107.73-160.61,146.84c123.68,16.56,370.25,12.82,599.93-6.43,187.7-15.82,376.18-49.49,376.18-49.49,0,0-66.18,28.35-114.07,61.04-460.58,121.13-1350.33,64.78-1094.18-59.13,216.63-104.71,392.76-92.83,392.76-92.83m813.62,454.78c468.21-243.29,251.73-477.1,100.63-445.59-37.04,7.7-53.55,14.38-53.55,14.38,0,0,13.75-21.53,40.01-30.85,298.92-105.09,528.81,309.95-96.5,474.33,0,0,7.25-6.47,9.41-12.26"/>
  <path d="m1169.96,0s259.3,259.39-245.93,658.24c-405.14,319.96-92.38,502.38-.17,710.82-236.49-213.37-410.04-401.2-293.61-576.01C801.14,536.43,1274.58,412.02,1169.96,0"/>
  <path d="m684.62,2487.68c449.41,28.77,1139.54-15.96,1155.88-228.61,0,0-31.42,80.62-371.42,144.64-383.58,72.18-856.68,63.76-1137.28,17.49,0,0,57.44,47.54,352.82,66.48"/>
</svg>