<svg xmlns="http://www.w3.org/2000/svg" data-name="Layer 1" viewBox="0 0 414.57 414.57"><path d="M21.41 0h371.74a21.4 21.4 0 0 1 21.41 21.41v371.74a21.4 21.4 0 0 1-21.41 21.41H21.41A21.4 21.4 0 0 1 0 393.15V21.41A21.4 21.4 0 0 1 21.41 0Z"/><path d="M423.35 358.41c-5.61-51.93-91.92-46-83.7-81.37 6.6-19.85 36.09-14.1 43.11 4.37 17.89-11.59 17.86-11.51 30.35-19.47-14.34-25.54-38.81-35.19-71.11-29.55-45 8-55.32 70.38-19.55 94.61 23.53 17.66 58.09 21.68 62.5 38.19 4.3 20.21-14.86 26.76-33.89 24.43-14-2.91-21.83-10.05-30.26-23-15.53 9-15.53 9-31.49 18.16 25.35 58.71 148.97 53.95 134.04-26.37ZM268.09 233.25h-38.78c-1.86 42.67 3.59 109.4-2.52 147.11-5.68 11.78-20.37 10.32-27.07 8-7.75-3.29-12.29-11.62-16.52-18.4q-15.78 9.63-31.52 19.31c14.11 29.87 44.71 40.56 78.26 33 37.8-10.14 40.2-46.81 38.15-82.28.2-35.55 0-71.09 0-106.76Z" style="fill:#fff" transform="translate(-42.72 -42.72)"/></svg>