<svg id="Layer_1" data-name="Layer 1" xmlns="http://www.w3.org/2000/svg" viewBox="0 0 414.57 414.57"><defs><style>.cls-1{fill:#fff;}</style></defs><path d="M64.13,42.72H435.87a21.4,21.4,0,0,1,21.41,21.41V435.87a21.4,21.4,0,0,1-21.41,21.41H64.13a21.4,21.4,0,0,1-21.41-21.41V64.13A21.4,21.4,0,0,1,64.13,42.72Z" transform="translate(-42.72 -42.72)"/><path class="cls-1" d="M423.35,358.41c-5.61-51.93-91.92-46-83.7-81.37,6.6-19.85,36.09-14.1,43.11,4.37,17.89-11.59,17.86-11.51,30.35-19.47C398.77,236.4,374.3,226.75,342,232.39c-45,8-55.32,70.38-19.55,94.61,23.53,17.66,58.09,21.68,62.5,38.19,4.3,20.21-14.86,26.76-33.89,24.43-14-2.91-21.83-10.05-30.26-23-15.53,9-15.53,9-31.49,18.16C314.66,443.49,438.28,438.73,423.35,358.41ZM268.09,233.25H229.31c-1.86,42.67,3.59,109.4-2.52,147.11-5.68,11.78-20.37,10.32-27.07,8-7.75-3.29-12.29-11.62-16.52-18.4q-15.78,9.63-31.52,19.31c14.11,29.87,44.71,40.56,78.26,33,37.8-10.14,40.2-46.81,38.15-82.28.2-35.55,0-71.09,0-106.76Z" transform="translate(-42.72 -42.72)"/></svg>