<?xml version="1.0" encoding="UTF-8"?>
<svg id="Layer_1" data-name="Layer 1" xmlns="http://www.w3.org/2000/svg" viewBox="0 0 256.09 280.14">
  <defs>
    <style>
      .cls-1 {
        fill: #fff;
      }
    </style>
  </defs>
  <path d="m161.64,130.81l-56.12,18.32-48.82,21.55-13.66,3.61c-3.47,3.31-7.12,6.66-11.07,10.05-4.32,3.73-8.35,7.13-11.45,9.59-4.03,3.32-7.75,7-11.11,11-3.86,4.84-6.91,10-8.23,13.92-2.33,7.12-1.19,14.33,3.31,21,5.77,8.48,17.26,17.14,30.67,23,8.77,3.65,17.79,6.66,27,9,14.38,3.64,42.2,7.59,57.52,8.18,2.47.14,4.95.14,7.42,0,.34-.21,2.71-4.75,5.47-10.39,9.42-19.21,16.2-37.24,19.89-52.64,2.21-9.33,3.95-21.75,5.09-36.47.3-4.12.43-17.9.17-22.57-.29-6.67-.99-13.31-2.12-19.89-.15-.57-.19-1.16-.13-1.74.17-.13.68-.3,7.6-2.29l-1.4-3.31-.03.08Zm-12.81,7.51c.51,0,1.86,13,2.2,21.25.13.96.13,1.92,0,2.88-.34,0-7.17-4-12-7.08-4.25-2.67-12.3-8-13.58-9-.42-.3-.38-.34,3.1-1.53,5.81-2.03,19.81-6.52,20.28-6.52h0Zm-28.59,9.42c.38,0,1.36.55,3.69,2,8.74,5.47,20.61,12.09,25.7,14.29,1.57.68,1.74.43-1.86,2.89-9.23,6.08-18.98,11.31-29.14,15.65-2.08.93-3.82,1.65-3.86,1.65.08-.79.25-1.58.51-2.33,2.71-9.72,4.23-19.73,4.54-29.82q0-4.24.42-4.37c-.08.05,0,.05,0,.05h0Zm-5.9,2.25c.26.26.09,9.76-.25,12.35-.76,6.25-2.06,12.43-3.9,18.45-.28,1.02-.61,2.02-1,3-.17.21-6-5.48-7.89-7.68-3.05-3.46-5.67-7.28-7.8-11.37-.96-1.85-1.75-3.78-2.38-5.77.68-.46,23-9.12,23.2-9l.02.02Zm-27.74,10.9s.1.01.13.05c.27.48.48.99.64,1.52,1.8,4.48,4.15,8.71,7,12.6,2.9,3.84,6.18,7.38,9.8,10.56,1,.85,1.95,1.66,2.07,1.78s.34.22-6.57,2.85c-8,3-16.75,6.1-26.76,9.33-2.39.77-4.78,1.54-7.17,2.33-.38.13-.26-.09.85-1.82,5-7.77,12.51-23,16.75-33.77.72-1.86,1.44-3.73,1.57-4.15.11-.5.45-.92.93-1.11.24-.08.48-.13.72-.17h.04Zm-8.46,3.5c-1.23,3-2.61,5.93-4.15,8.78-4.12,8-8.62,15.91-14.64,25.5-1,1.65-2,3.18-2.12,3.35s-.3.21-1-1.11c-1.53-3.12-2.63-6.43-3.27-9.84-.61-4.2-.54-8.47.21-12.64.55-2.63.51-2.58,1.78-3.22,5.43-2.76,23-11,23.16-10.82h.03Zm73.17,3v1.78c-.1,10.68-.93,21.34-2.5,31.9-.26,1.66-.47,3-.51,3.06s-1.23-.34-2.68-.77c-6.75-2.15-13.27-4.96-19.48-8.37-4.11-2.25-10.09-5.94-9.92-6.11s1.82-1,3.9-2.08c7.97-4.12,15.72-8.67,23.2-13.62,2.59-1.73,6.49-4.53,7.34-5.3l.68-.51-.03.02Zm-105.17,12.53c.17,0,.13.34-.13,1.86-.17,1.11-.38,3.14-.46,4.54-.35,6.2.67,10.78,3.73,17,.55,1.05,1.04,2.13,1.48,3.23-.3.25-28.37,8.48-37.2,10.9l-5.09,1.4c-.29.08-.34,0-.21-.68,1-6.24,5.73-14.38,12.34-21.25,4.06-4.29,8.79-7.9,14-10.69,4.33-2.46,11-6.15,11.49-6.32h.09-.04Zm66.17,11.84c.79.35,1.56.76,2.29,1.23,10.2,5.68,21.13,9.93,32.49,12.64l1,.21-1.36.77c-5.64,3.14-24.17,10.86-43.13,17.94-2.76,1-5.47,2-6,2.25-.31.16-.65.26-1,.29,0,0,.77-1.52,1.74-3.35,5.25-9.77,9.72-19.93,13.36-30.41.34-.8.55-1.53.6-1.57h.01Zm-6.79,2.24c-.18.67-.42,1.32-.72,1.95-4.29,10.18-9.21,20.08-14.72,29.65-1.57,2.8-2.88,5.05-2.92,5.05s-1.32-.77-2.85-1.7c-9-5.52-17-12.3-22.18-18.88l-.76-.93,3.86-1.06c12.7-3.4,25.14-7.69,37.24-12.85,1.67-.71,3.01-1.23,3.05-1.23Zm41.91,14.63h0c0,1-2.12,9.71-3.9,16-1.49,5.31-2.76,9.46-5.09,16.8-1,3.22-1.91,5.9-1.95,5.9-.19-.03-.38-.07-.56-.13-11.79-2.06-23.34-5.32-34.48-9.71-3-1.19-7.21-3.1-7.46-3.31,1.83-1.02,3.73-1.91,5.68-2.68,19.3-8.44,39.32-18,46.19-22.14.48-.33,1.01-.59,1.57-.76v.03Zm-96.75,3.31c.08.08-5.3,7.85-12.85,18.41-2.63,3.69-5.69,8-6.83,9.63s-2.86,4.12-3.86,5.65l-1.78,2.76-1.91-1.62c-2.84-2.47-5.48-5.16-7.89-8.05-3.36-3.98-5.78-8.66-7.08-13.7-.47-2-.47-3.06-.05-3.18.64-.17,12-2.85,22.57-5.31,5.89-1.35,12.72-3,15.18-3.56s4.46-1.06,4.5-1.06v.03Zm5.46,2.06l1.36,1.52c5.7,6.47,12.42,11.98,19.89,16.29.82.4,1.59.9,2.29,1.49-.3.21-26.21,9.41-38.22,13.57-6.74,2.37-12.3,4.28-12.34,4.28-.3-.16-.58-.35-.85-.55l-.76-.55,1.23-1.78c4-5.77,9-12.09,19.89-25.24l7.51-9v-.03Zm33.85,24.22c0-.05,1.9.63,4.19,1.48,5.14,1.94,10.4,3.57,15.74,4.88,7.83,1.92,15.78,3.29,23.8,4.11.93.09,1.44.17,1.27.3s-6.53,2.25-11.11,3.69c-7.3,2.29-29.57,8.87-47.72,14.08-3.35,1-6.24,1.78-6.41,1.83-.64.02-1.27-.15-1.82-.47.69-.99,1.45-1.94,2.25-2.84,6.18-7.39,11.93-15.12,17.22-23.16,1.4-2.12,2.59-3.86,2.59-3.9h0Zm-7.47.21s-3,4.88-8.23,13.19c-2.25,3.52-4.75,7.51-5.64,8.91s-2.12,3.48-2.84,4.66l-1.23,2.17-.64-.17c-1.52-.43-12.26-4.2-15.1-5.35-3.37-1.34-6.67-2.85-9.88-4.54-3.39-1.82-7.63-4.54-7.3-4.62.09,0,5.9-1.61,12.9-3.52,18.58-5.05,28.88-8,35.63-10.09.76-.27,1.54-.48,2.33-.64h0Zm52.81,12.38h0c.17.43-6.7,19.52-9.2,25.54-.56,1.36-.77,1.69-1.06,1.65-.73,0-10.69-1.44-16.76-2.33-10.56-1.61-28.29-4.71-32.74-5.73l-1-.21,6.32-1.44c13.57-3.06,20.1-4.71,26.72-6.75,8.55-2.61,16.91-5.82,25-9.62.88-.43,1.79-.8,2.72-1.11Z"/>
  <path d="m103.78,0c-.93-.12-16,5.3-25.7,9.25-13.11,5.34-23.29,10.43-29.56,14.84-2.34,1.66-5.26,4.59-5.73,5.73-.17.46-.26.95-.25,1.44l5.68,5.39,13.53,4.35,32.19,5.76,36.82,6.32.38-3.18h-.34l-4.83-.76-1-1.74c-5-8.82-10.52-19.77-13.74-27.15-2.43-5.58-4.49-11.3-6.17-17.15-.73-2.89-.81-3.05-1.28-3.1Zm-.64,2.17h0s.21,1.23.38,2.63c.75,6.08,2.13,12.06,4.11,17.85,1.57,4.67,1.57,4.41-.25,3.86-4.32-1.19-23.7-4.51-37.74-6.51-2.25-.29-4.16-.59-4.16-.63-.17-.17,10.14-5.56,14.68-7.68,5.81-2.69,21.76-9.31,22.98-9.52Zm-40.88,19l1.65.55c9,3.05,31.6,7.38,44.07,8.4,1.4.12,2.59.25,2.63.25-.85.53-1.75,1-2.67,1.4-6,3-12.64,6.7-17.22,9.55-.87.59-1.8,1.09-2.76,1.52-.17,0-1.06-.17-2-.29l-1.7-.26-4.24-4.16c-7.47-7.25-13.32-12.85-15.57-15l-2.19-1.96Zm-1.7,1.31l6,7.47c3.27,4.11,6.57,8.14,7.3,9,.47.52.89,1.07,1.27,1.66-.17.12-8.65-1.53-13.15-2.55s-6.53-1.57-9.37-2.46l-2.34-.76v-.6c.05-2.84,3.65-7.08,9.76-11.41l.55-.38-.02.03Zm50.81,10.18c.17,0,.38.38.89,1.53,1.45,3.18,5.94,11.75,7,13.4.34.55.94.6-5-.38-14.38-2.33-19-3.1-19-3.18.3-.26.64-.47,1-.64,4.59-2.58,8.92-5.6,12.94-9,1-.8,1.86-1.57,2-1.69s.13-.13.17-.09v.05Z"/>
  <path class="cls-1" d="m43.14,29.23c-.57,1.16-.57,2.53,0,3.69.56,1.35,2.17,3,4,4.71,0,0,18.88,18.4,21.17,21,10.43,12,15,23.93,15.39,40.3.26,10.52-1.74,19.76-6.7,30.49-8.82,19.26-27.44,40.51-56.16,64.09l4.2-1.4c2.72-2,6.41-4.19,15.06-8.95,20-10.94,42.46-21,70-31.34,39.7-14.93,105-32.41,142.13-38.09l3.86-.59-.59-.94c-2.62-4.16-5.47-8.16-8.53-12-8.32-10.23-18.55-18.74-30.11-25.07-16.72-9.26-38.22-16.51-65.44-21.9-5.14-1-16.42-3-25.58-4.36-19.43-3-32-5.09-45.81-7.47-5-.85-12.39-2.12-17.31-3.18-3.79-.8-7.54-1.8-11.23-3-3.06-1.19-7.47-2.38-8.4-6h.05Zm10.94,10.61c.55.13,1.09.3,1.61.51,1.61.55,3.69,1.19,6.15,1.87,1.86.51,3.73,1,5.6,1.48,2.55.64,4.67,1.23,4.71,1.23.3.3,4.58,14,6,19.26.55,2,1,3.69.94,3.69-.42-.51-.78-1.07-1.07-1.66-5-8.74-12.8-17.6-21.88-24.73-.73-.5-1.43-1.05-2.08-1.65h.02Zm20.87,5.77c.77.08,1.54.2,2.29.38,7.21,1.61,20.15,4.07,28.42,5.47.85.08,1.68.27,2.48.55-.34.31-.73.55-1.15.72-1.4.73-7,4.08-8.9,5.35-4.29,2.81-8.31,6.02-12,9.58-1.23,1.23-2.29,2.25-2.29,2.25,0,0-.25-.72-.46-1.61-1.97-7.12-4.51-14.07-7.6-20.78-.31-.63-.6-1.29-.84-1.95,0,.08,0,0,0,0l.05.04Zm36.73,7c.25.08.68,1.52,1.53,4.71,1.58,6.35,2.25,12.88,2,19.42-.08,1.78-.17,3.44-.25,3.65l-.13.42-2.2-.72c-4.54-1.44-11.92-3.6-18.24-5.38-3.61-1-6.53-1.87-6.53-2,2.37-2.63,4.87-5.13,7.5-7.5,4.29-3.78,15.91-12.77,16.29-12.64l.03.04Zm2.93.42c.12-.13,17.56,2.89,25.49,4.41,5.89,1.15,14.46,2.93,15,3.14.26.09-.64.6-3.48,1.87-9.68,4.23-18.97,9.28-27.78,15.1-2.16,1.44-4,2.63-4,2.63-.08-.9-.1-1.81-.08-2.72.03-7.92-1.53-15.76-4.58-23.07-.27-.43-.47-.9-.62-1.38l.05.02Zm45.08,8.91c-.14,1.89-.45,3.77-.93,5.6-1.62,6.32-5.69,15.69-10.74,24.47-.53,1-1.13,1.96-1.78,2.89-.88-.39-1.73-.84-2.54-1.36-5.35-3.08-10.91-5.8-16.63-8.14-1.7-.72-3.18-1.32-3.22-1.4-.3-.26,13.36-9.29,20.57-13.62,5.72-3.48,15.05-8.65,15.22-8.48l.05.04Zm3.23.51c.38,0,8.1,2.12,12.13,3.31,9.84,2.92,19.48,6.45,28.88,10.56l3.1,1.4-2.16.51c-16.69,3.72-33.04,8.78-48.91,15.14-1.23.51-2.33.93-2.42.93.22-.75.52-1.47.89-2.16,4.54-9.63,7.47-19.68,8.19-28.25,0-.81.17-1.44.3-1.44Zm-76.91,17.64c.13-.12,6,1.28,9.21,2.17,4.83,1.35,15.09,4.79,15.09,5,0,0-1.14,1-2.5,2.21-5.55,4.62-10.9,9.5-17.3,15.69-1.91,1.83-3.52,3.31-3.61,3.31s-.12-.25-.08-.59c.94-8.52.74-17.12-.6-25.58-.08-1.15-.25-2.17-.21-2.21Zm123.9.13c.08.08-2.72,4.5-4.5,7-2.54,3.65-6.28,8.48-14.72,19.09-4.45,5.59-9.46,11.91-11.11,14s-3.1,3.91-3.14,3.91c-.43-.54-.83-1.11-1.19-1.7-4.76-7.14-10.55-13.54-17.18-19-1.27-1.06-2.67-2.21-3.13-2.54-.31-.2-.6-.45-.85-.73,0-.12,7.21-3.22,12.68-5.42,9.59-3.91,22.65-8.57,32.45-11.58,5.13-1.62,10.6-3.19,10.69-3.1v.07Zm3.26.85c.86.28,1.67.68,2.42,1.19,10.3,5.9,19.84,13.05,28.38,21.29,2.24,2.2,7.8,8,7.71,8s-2,.17-4.24.34c-17.85,1.36-40.71,5.14-62.69,10.44-1.48.34-2.8.63-2.88.63s1.57-1.65,3.65-3.64c12.89-12.42,18.79-20.31,25.74-34.31,1-2.07,1.83-3.85,1.91-4v.06Zm-94.46,9.67c.6.13,6.11,2.71,10.27,4.79,3.82,1.91,9.54,5,9.84,5.22,0,0-2,1.1-4.5,2.33-8,4-14.8,7.76-21.93,12.09-2,1.23-3.73,2.25-3.77,2.25s-.13-.17,1-2.25c3.95-7.35,6.85-15.21,8.61-23.37.17-.64.34-1.06.46-1.06h.02Zm-5.51,1c-.59,2.76-1.33,5.49-2.21,8.18-1.98,5.95-4.49,11.72-7.5,17.22-.68,1.19-1.7,2.93-2.25,3.91l-1.1,1.71-2.38-2.29c-2.31-2.34-4.97-4.3-7.89-5.81-.71-.32-1.38-.72-2-1.19,0-.34,7.25-6.91,12.81-11.66,4-3.44,12.38-10.18,12.51-10v-.07Zm33.73,13.87l2.08,1.35c5.08,3.33,9.96,6.94,14.63,10.82,2.42,2,7.08,6.19,8,7.21l.51.55-3.44,1c-19.43,5.38-34.44,10.18-52,16.62-1.95.72-3.6,1.32-3.73,1.32s-.47.21,3.9-3.82c10.75-9.76,20.31-20.75,28.5-32.74l1.49-2.29.06-.02Zm-8.87,2.2c.09.09-5.72,8.27-9.2,12.9-4.16,5.51-11.54,14.76-16.63,20.78-2.12,2.5-3.94,4.58-4,4.62s-.17-.59-.17-1.57c-.05-5.29-1.28-10.51-3.6-15.27-1-2-1.15-2.41-.93-2.63.8-.72,13.15-7.76,20.95-12,5.26-2.8,13.49-7,13.61-6.87l-.03.04Zm-53.61,13.2c.76.32,1.5.69,2.21,1.1,2.58,1.4,5.02,3.04,7.29,4.9-.73.77-1.56,1.44-2.46,2-4,2.88-10.13,7.51-13.7,10.35-3.73,3-3.86,3.05-3.43,2.42,3.96-5.75,7.07-12.04,9.24-18.67.17-.76.45-1.49.85-2.16v.06Zm14.3,11.2c.21,0,.46.34,1.61,2,2.48,3.72,4.11,7.93,4.79,12.35l.08.85-5.81,2.24c-10.39,4-20,8-26.47,11-1.82.85-5,2.37-7.08,3.39s-3.77,1.87-3.77,1.83,1.31-1,2.92-2.21c12.69-9.2,23.67-19.3,31.9-29.39.89-1.06,1.7-2,1.78-2.08l.05.02Zm-6.6,1.58c.17.17-4.66,5.64-8,9-7.88,8.1-16.71,15.23-26.29,21.22l-2.55,1.61c-.29.17.09-.25,4.5-5,2.8-3,4.92-5.56,7.34-8.7,1.13-1.61,2.57-2.97,4.24-4,6.23-4.54,20.61-14.3,20.76-14.13Z"/>
</svg>