<svg xmlns="http://www.w3.org/2000/svg" xml:space="preserve" style="enable-background:new 0 0 424.8 424.8" viewBox="0 0 424.8 424.8"><path d="M419.8 212.4c.1 114.5-92.6 207.3-207.1 207.4h-.3C97.9 419.8 5.1 327.1 5 212.7v-.3C4.9 97.9 97.6 5.1 212.1 5h.3c114.4-.1 207.3 92.6 207.4 207v.4"/><path d="m288.9 128.1-46.1 158.2c-.8 2.8-2.5 5.4-4.8 7.3-2.4 2-5.4 3.1-8.5 3h-34.2c-3.1.1-6.2-1-8.6-3-2.2-1.9-3.8-4.4-4.5-7.3l-46.4-158.2h38.6L209 265.9c0 .2.1.5.3.6l.7.2h4.8c.5 0 .9-.3 1-.8l34.4-137.8h38.7" style="fill-rule:evenodd;clip-rule:evenodd;fill:#fff"/></svg>