<?xml version="1.0" encoding="utf-8"?>
<!-- Generator: Adobe Illustrator 27.1.0, SVG Export Plug-In . SVG Version: 6.00 Build 0)  -->
<svg version="1.1" id="Layer_1" xmlns="http://www.w3.org/2000/svg" xmlns:xlink="http://www.w3.org/1999/xlink" x="0px" y="0px"
	 viewBox="0 0 424.8 424.8" style="enable-background:new 0 0 424.8 424.8;" xml:space="preserve">
<style type="text/css">
	.st0{fill-rule:evenodd;clip-rule:evenodd;fill:#FFFFFF;}
</style>
<path d="M419.8,212.4c0.1,114.5-92.6,207.3-207.1,207.4c-0.1,0-0.2,0-0.3,0C97.9,419.8,5.1,327.1,5,212.7c0-0.1,0-0.2,0-0.3
	C4.9,97.9,97.6,5.1,212.1,5c0.1,0,0.2,0,0.3,0c114.4-0.1,207.3,92.6,207.4,207C419.8,212.1,419.8,212.2,419.8,212.4"/>
<path class="st0" d="M288.9,128.1l-46.1,158.2c-0.8,2.8-2.5,5.4-4.8,7.3c-2.4,2-5.4,3.1-8.5,3h-34.2c-3.1,0.1-6.2-1-8.6-3
	c-2.2-1.9-3.8-4.4-4.5-7.3l-46.4-158.2h38.6l34.6,137.8c0,0.2,0.1,0.5,0.3,0.6l0.7,0.2h4.8c0.5,0,0.9-0.3,1-0.8l34.4-137.8H288.9"/>
</svg>
