<svg xmlns="http://www.w3.org/2000/svg" xml:space="preserve" style="enable-background:new 0 0 2500 2461" viewBox="0 0 2500 2461"><path d="M2301.2 1896.6c-135.9-3.4-241.3 10.2-329.6 47.6-25.5 10.2-66.3 10.2-69.7 42.5 13.6 13.6 15.3 35.7 27.2 54.4 20.4 34 56.1 79.9 88.3 103.7 35.7 27.2 71.4 54.4 108.7 78.1 66.3 40.8 141 64.6 205.6 105.3 37.4 23.8 74.7 54.4 112.1 79.9 18.7 13.6 30.6 35.7 54.4 44.2v-5.1c-11.9-15.3-15.3-37.4-27.2-54.4-17-17-34-32.3-51-49.3-49.3-66.2-110.4-124-176.7-171.6-54.4-37.4-173.3-88.3-195.4-151.2l-3.4-3.4c37.4-3.4 81.5-17 117.2-27.2 57.8-15.3 110.4-11.9 169.9-27.2 27.2-6.8 54.4-15.3 81.5-23.8v-15.3c-30.6-30.6-52.7-71.4-84.9-100.2-86.7-74.8-181.8-147.8-280.3-209-52.7-34-120.6-56.1-176.7-85-20.4-10.2-54.4-15.3-66.2-32.3-30.6-37.4-47.6-86.6-69.7-130.8-49.3-93.5-96.8-197.1-139.3-295.6-30.6-66.3-49.3-132.5-86.6-193.7-175-288.8-365.3-463.8-657.5-635.4-62.9-35.7-137.6-51-217.5-69.6-42.5-1.7-85-5.1-127.4-6.8-27.2-11.9-54.4-44.2-78.2-59.5C332.1 44.7 82.3-87.9 11 87.1c-45.9 110.4 68 219.2 107 275.2 28.9 39.1 66.3 83.2 86.7 127.4 11.9 28.9 15.3 59.5 27.2 90 27.2 74.7 52.7 158 88.4 227.7 18.7 35.7 39.1 73 62.9 105.3 13.6 18.7 37.4 27.2 42.5 57.8-23.8 34-25.5 85-39.1 127.4-61.2 192-37.4 429.9 49.3 570.9 27.2 42.5 91.7 135.9 178.4 100.2 76.5-30.6 59.5-127.4 81.5-212.4 5.1-20.4 1.7-34 11.9-47.6v3.4c23.8 47.6 47.6 93.4 69.7 141 52.7 83.2 144.4 169.9 220.9 227.7 40.8 30.6 73.1 83.2 124 101.9v-5.1h-3.4c-10.2-15.3-25.5-22.1-39.1-34-30.6-30.6-64.6-67.9-88.3-101.9-71.5-94.9-134.4-200.3-190.5-309-27.2-52.7-51-110.4-73.1-163.1-10.2-20.4-10.2-51-27.2-61.2-25.5 37.4-62.9 69.7-81.6 115.5-32.3 73.1-35.7 163.1-47.6 256.5-6.8 1.7-3.4 0-6.8 3.4-54.4-13.6-73-69.7-93.4-117.2-51-120.6-59.5-314.3-15.3-453.6 11.9-35.7 62.9-147.8 42.5-181.8-10.2-32.3-44.2-51-62.9-76.5-22.1-32.3-45.9-73-61.2-108.7-40.8-95.1-61.2-200.5-105.3-295.6-20.4-44.2-56.1-90-85-130.8-32.3-45.9-68-78.2-93.4-132.5-8.5-18.7-20.4-49.3-6.8-69.7 3.4-13.6 10.2-18.7 23.8-22.1 22.1-18.7 85 5.1 107 15.3 62.9 25.5 115.5 49.3 168.2 85 23.8 17 49.3 49.3 79.8 57.8h35.7c54.4 11.9 115.5 3.4 166.5 18.7 90.1 28.9 171.6 71.4 244.7 117.2 222.6 141 406.1 341.5 530.1 581.1 20.4 39.1 28.9 74.8 47.6 115.5 35.7 83.3 79.9 168.2 115.5 249.8 35.7 79.8 69.7 161.4 120.6 227.7 25.5 35.7 127.4 54.4 173.3 73.1 34 15.3 86.7 28.9 117.2 47.6 57.8 35.7 115.5 76.5 169.9 115.5 27.4 20.2 112.3 62.7 117.4 96.7z"/><path d="M568.2 420.1c-28.9 0-49.3 3.4-69.6 8.5v3.4h3.4c13.6 27.2 37.4 45.9 54.4 69.7 13.6 27.2 25.5 54.4 39.1 81.6l3.4-3.4c23.8-17 35.7-44.2 35.7-85-10.2-11.9-11.9-23.8-20.4-35.7-10.3-17-32.4-25.5-46-39.1z"/></svg>