<svg xmlns="http://www.w3.org/2000/svg" data-name="Capa 1" viewBox="0 0 2500 1301.37"><ellipse cx="1250" cy="650.68" rx="1250" ry="650.68"/><path d="m351.03 1032.14 136.99-693.5h316.77c136.98 8.56 205.48 77.05 205.48 196.92 0 205.48-162.67 325.34-308.22 316.78H547.96l-34.25 179.79H351.03Zm231.16-308.21L625 467.07h111.3c59.93 0 102.73 25.68 102.73 77.05-8.55 145.56-77.05 171.24-154.1 179.8H582.19Zm396.25 128.42 136.98-693.49h162.68l-34.25 179.79h154.1c136.99 8.56 188.36 77.05 171.24 162.68l-59.93 351.03h-171.23l59.93-316.78c8.55-42.81 8.55-68.5-51.37-68.5h-128.43l-77.05 385.27H978.43Zm519.85 179.79 136.98-693.5h316.78c136.99 8.56 205.49 77.05 205.49 196.92 0 205.48-162.68 325.34-308.22 316.78h-154.11l-34.25 179.79h-162.67Zm231.15-308.21 42.81-256.86h111.31c59.93 0 102.73 25.68 102.73 77.05-8.55 145.56-77.05 171.24-154.1 179.8h-102.75Z" style="fill:#fff;fill-rule:evenodd;stroke:#fff;stroke-miterlimit:10"/></svg>