<?xml version="1.0" encoding="utf-8"?>
<!-- Generator: Adobe Illustrator 27.1.0, SVG Export Plug-In . SVG Version: 6.00 Build 0)  -->
<svg version="1.1" id="Layer_1" xmlns="http://www.w3.org/2000/svg" xmlns:xlink="http://www.w3.org/1999/xlink" x="0px" y="0px"
	 viewBox="0 0 435.2 424.6" style="enable-background:new 0 0 435.2 424.6;" xml:space="preserve">
<style type="text/css">
	.st0{fill:#FFFFFF;}
</style>
<g id="Layer_2">
	<g id="Surfaces">
		<g id="Photo_Surface">
			<g id="Outline_no_shadow">
				<path d="M80.3,5h274.6c41.5,0,75.3,33.6,75.3,75.2c0,0,0,0.1,0,0.1v264c0,41.5-33.6,75.3-75.2,75.3c0,0-0.1,0-0.1,0H80.3
					C38.8,419.6,5,386,5,344.4c0,0,0-0.1,0-0.1v-264C5,38.7,38.6,5,80.2,5C80.2,5,80.3,5,80.3,5z"/>
			</g>
		</g>
	</g>
	<g id="Outlined_Mnemonics_Logos">
		<g id="Ps">
			<path class="st0" d="M100.7,295.7V113.4c0-1.2,0.5-1.9,1.8-1.9c3,0,5.9,0,9.9-0.2c4.3-0.2,8.7-0.2,13.5-0.4
				c4.8-0.2,9.9-0.2,15.4-0.4c5.5-0.2,10.8-0.2,16.1-0.2c14.5,0,26.6,1.8,36.5,5.5c8.9,3,17,8,23.7,14.5
				c5.7,5.7,10.1,12.6,12.9,20.2c2.7,7.4,4.1,15.2,4.1,23c0,15.2-3.5,27.8-10.6,37.7c-7.1,9.9-17.1,17.4-28.5,21.6
				c-12,4.4-25.3,6-39.9,6c-4.2,0-7.1,0-8.9-0.2s-4.2-0.2-7.6-0.2v56.9c0.2,1.2-0.7,2.3-1.9,2.5c0,0-0.1,0-0.1,0h-34.3
				C101.4,298,100.7,297.3,100.7,295.7z M139.3,145.7v59.5c2.5,0.2,4.8,0.4,6.9,0.4h9.4c6.9,0,13.8-1.1,20.4-3.2
				c5.6-1.7,10.7-4.9,14.5-9.4c3.7-4.4,5.5-10.4,5.5-18.2c0.2-5.5-1.3-11-4.1-15.8c-3-4.6-7.3-8.1-12.4-10.1
				c-6.7-2.6-13.8-3.9-20.9-3.6c-4.6,0-8.7,0-12,0.2C144.2,145.3,141.7,145.4,139.3,145.7L139.3,145.7z"/>
			<path class="st0" d="M345.2,194.4c-5.3-2.8-11.1-4.8-17-6c-6.5-1.5-13.2-2.2-19.8-2.3c-3.6-0.1-7.2,0.3-10.6,1.2
				c-2.2,0.5-4.2,1.7-5.5,3.5c-0.9,1.4-1.4,3.1-1.4,4.8c0.1,1.7,0.7,3.3,1.8,4.6c1.7,2,3.7,3.6,6,4.8c4.1,2.1,8.3,4.1,12.6,5.8
				c9.6,3.2,18.7,7.6,27.3,12.9c5.8,3.7,10.6,8.7,14,14.7c2.8,5.7,4.2,11.9,4.1,18.2c0.1,8.4-2.3,16.6-6.9,23.6
				c-4.9,7.1-11.8,12.6-19.8,15.8c-8.7,3.7-19.3,5.7-32.1,5.7c-8.1,0-16.2-0.7-24.1-2.3c-6.2-1.1-12.3-3-18.1-5.7
				c-1.3-0.6-2.1-1.9-2-3.4v-30.8c0-0.6,0.2-1.2,0.7-1.6c0.5-0.3,1.2-0.2,1.6,0.2c6.8,4,14.3,7,22,8.7c6.8,1.8,13.8,2.7,20.9,2.6
				c6.7,0,11.5-0.9,14.7-2.5c2.9-1.3,4.8-4.2,4.8-7.4c0-2.5-1.4-4.8-4.2-7.1s-8.7-5-17.4-8.3c-8.9-3.1-17.4-7.4-25.2-12.8
				c-5.6-4-10.2-9.1-13.5-15.1c-2.8-5.6-4.2-11.8-4.1-18.1c0-7.6,2.1-15,6-21.4c4.5-7.1,11-12.8,18.6-16.3
				c8.3-4.2,18.8-6.2,31.4-6.2c7.4,0,14.7,0.5,22,1.6c5.2,0.7,10.4,2.1,15.2,4.1c0.8,0.3,1.4,0.8,1.8,1.6c0.2,0.7,0.3,1.4,0.4,2.1
				v28.9c0,0.7-0.3,1.4-0.9,1.8C346.8,194.7,345.9,194.7,345.2,194.4z"/>
		</g>
	</g>
</g>
</svg>
