<svg xmlns="http://www.w3.org/2000/svg" xml:space="preserve" id="Layer_1" x="0" y="0" style="enable-background:new 0 0 435.2 424.6" version="1.1" viewBox="0 0 435.2 424.6"><style>.st0{fill:#fff}</style><g id="Layer_2"><g id="Surfaces"><g id="Photo_Surface"><path id="Outline_no_shadow" d="M80.3 5h274.6c41.5 0 75.3 33.6 75.3 75.2v264.1c0 41.5-33.6 75.3-75.2 75.3H80.3C38.8 419.6 5 386 5 344.4V80.3C5 38.7 38.6 5 80.2 5h.1z"/></g></g><g id="Outlined_Mnemonics_Logos"><g id="Ps"><path d="M100.7 295.7V113.4c0-1.2.5-1.9 1.8-1.9 3 0 5.9 0 9.9-.2 4.3-.2 8.7-.2 13.5-.4 4.8-.2 9.9-.2 15.4-.4s10.8-.2 16.1-.2c14.5 0 26.6 1.8 36.5 5.5 8.9 3 17 8 23.7 14.5 5.7 5.7 10.1 12.6 12.9 20.2 2.7 7.4 4.1 15.2 4.1 23 0 15.2-3.5 27.8-10.6 37.7-7.1 9.9-17.1 17.4-28.5 21.6-12 4.4-25.3 6-39.9 6-4.2 0-7.1 0-8.9-.2s-4.2-.2-7.6-.2v56.9c.2 1.2-.7 2.3-1.9 2.5h-34.4c-1.4.2-2.1-.5-2.1-2.1zm38.6-150v59.5c2.5.2 4.8.4 6.9.4h9.4c6.9 0 13.8-1.1 20.4-3.2 5.6-1.7 10.7-4.9 14.5-9.4 3.7-4.4 5.5-10.4 5.5-18.2.2-5.5-1.3-11-4.1-15.8-3-4.6-7.3-8.1-12.4-10.1-6.7-2.6-13.8-3.9-20.9-3.6-4.6 0-8.7 0-12 .2-2.4-.2-4.9-.1-7.3.2zM345.2 194.4c-5.3-2.8-11.1-4.8-17-6-6.5-1.5-13.2-2.2-19.8-2.3-3.6-.1-7.2.3-10.6 1.2-2.2.5-4.2 1.7-5.5 3.5-.9 1.4-1.4 3.1-1.4 4.8.1 1.7.7 3.3 1.8 4.6 1.7 2 3.7 3.6 6 4.8 4.1 2.1 8.3 4.1 12.6 5.8 9.6 3.2 18.7 7.6 27.3 12.9 5.8 3.7 10.6 8.7 14 14.7 2.8 5.7 4.2 11.9 4.1 18.2.1 8.4-2.3 16.6-6.9 23.6-4.9 7.1-11.8 12.6-19.8 15.8-8.7 3.7-19.3 5.7-32.1 5.7-8.1 0-16.2-.7-24.1-2.3-6.2-1.1-12.3-3-18.1-5.7-1.3-.6-2.1-1.9-2-3.4v-30.8c0-.6.2-1.2.7-1.6.5-.3 1.2-.2 1.6.2 6.8 4 14.3 7 22 8.7 6.8 1.8 13.8 2.7 20.9 2.6 6.7 0 11.5-.9 14.7-2.5 2.9-1.3 4.8-4.2 4.8-7.4 0-2.5-1.4-4.8-4.2-7.1s-8.7-5-17.4-8.3c-8.9-3.1-17.4-7.4-25.2-12.8-5.6-4-10.2-9.1-13.5-15.1-2.8-5.6-4.2-11.8-4.1-18.1 0-7.6 2.1-15 6-21.4 4.5-7.1 11-12.8 18.6-16.3 8.3-4.2 18.8-6.2 31.4-6.2 7.4 0 14.7.5 22 1.6 5.2.7 10.4 2.1 15.2 4.1.8.3 1.4.8 1.8 1.6.2.7.3 1.4.4 2.1v28.9c0 .7-.3 1.4-.9 1.8-1.7.4-2.6.4-3.3.1z" class="st0"/></g></g></g></svg>