<svg id="Layer_1" data-name="Layer 1" xmlns="http://www.w3.org/2000/svg" viewBox="0 0 465.52 414.57"><path d="M482.76,250.05c0-30.84-38.62-60.07-97.83-78.19,13.67-60.35,7.59-108.36-19.17-123.73a41.54,41.54,0,0,0-21.25-5.32V64a22.05,22.05,0,0,1,10.82,2.47c12.9,7.4,18.5,35.58,14.13,71.83-1,8.92-2.75,18.31-4.83,27.9a459.52,459.52,0,0,0-60.26-10.35,463.32,463.32,0,0,0-39.47-47.44c30.93-28.75,60-44.5,79.7-44.5V42.72c-26.09,0-60.25,18.59-94.79,50.86C215.27,61.5,181.11,43.1,155,43.1V64.26c19.64,0,48.77,15.65,79.7,44.21a449.29,449.29,0,0,0-39.19,47.35,443.21,443.21,0,0,0-60.34,10.44c-2.19-9.49-3.8-18.69-4.94-27.52-4.46-36.24,1-64.43,13.85-71.92,2.85-1.71,6.55-2.47,10.92-2.47V43.19a42.38,42.38,0,0,0-21.45,5.31C106.91,63.88,100.93,111.8,114.69,172c-59,18.22-97.45,47.35-97.45,78.1s38.62,60.06,97.83,78.19C101.4,388.58,107.48,436.6,134.24,452c6.16,3.61,13.38,5.31,21.35,5.31,26.09,0,60.25-18.59,94.79-50.86,34.54,32.08,68.7,50.48,94.79,50.48a42.28,42.28,0,0,0,21.45-5.31c26.66-15.37,32.64-63.29,18.88-123.45,58.83-18.12,97.26-47.35,97.26-78.09ZM359.22,186.76c-3.51,12.24-7.88,24.86-12.81,37.48-3.89-7.59-8-15.18-12.43-22.78s-9-15-13.67-22.2c13.48,2,26.48,4.46,38.91,7.5ZM315.76,287.81c-7.4,12.81-15,25-22.87,36.25-14.14,1.23-28.47,1.9-42.89,1.9s-28.66-.67-42.7-1.8q-11.82-16.95-23-36.06-10.82-18.64-19.74-37.77c5.88-12.71,12.53-25.43,19.64-37.86,7.4-12.81,15-24.95,22.87-36.25,14.14-1.23,28.47-1.89,42.89-1.89s28.66.66,42.7,1.8q11.82,16.94,23,36.06c7.21,12.43,13.76,25.05,19.74,37.76-6,12.72-12.53,25.43-19.64,37.86Zm30.65-12.33c5.12,12.71,9.49,25.43,13.09,37.76-12.43,3-25.52,5.6-39.09,7.59,4.65-7.3,9.3-14.8,13.66-22.48s8.45-15.28,12.34-22.87ZM250.19,376.72a392.65,392.65,0,0,1-26.38-30.36c8.54.38,17.27.66,26.1.66s17.74-.19,26.37-.66A370.67,370.67,0,0,1,250.19,376.72Zm-70.6-55.89c-13.47-2-26.47-4.46-38.9-7.49,3.51-12.24,7.87-24.86,12.81-37.48,3.89,7.59,8,15.18,12.43,22.77S174.94,313.62,179.59,320.83Zm70.13-197.46a391,391,0,0,1,26.37,30.37c-8.54-.38-17.27-.67-26.09-.67s-17.74.19-26.38.67A369.25,369.25,0,0,1,249.72,123.37ZM179.5,179.26c-4.65,7.31-9.3,14.8-13.67,22.49s-8.44,15.18-12.33,22.77c-5.13-12.71-9.49-25.43-13.1-37.76,12.43-2.94,25.53-5.51,39.1-7.5ZM93.62,298.06C60,283.73,38.3,264.94,38.3,250.05S60,216.27,93.62,202c8.16-3.51,17.08-6.64,26.29-9.58a455,455,0,0,0,21.35,57.79,450,450,0,0,0-21.07,57.5c-9.39-2.94-18.31-6.17-26.57-9.68Zm51,135.6c-12.9-7.4-18.5-35.59-14.13-71.83,1-8.92,2.75-18.32,4.83-27.9a461.23,461.23,0,0,0,60.26,10.34,462.4,462.4,0,0,0,39.47,47.45c-30.93,28.75-60,44.5-79.7,44.5a22.79,22.79,0,0,1-10.73-2.56Zm225.08-72.31c4.46,36.25-1,64.43-13.85,71.93-2.85,1.7-6.55,2.46-10.92,2.46-19.64,0-48.77-15.65-79.7-44.21a449.29,449.29,0,0,0,39.19-47.35,443.21,443.21,0,0,0,60.34-10.44A262.74,262.74,0,0,1,369.75,361.35Zm36.53-63.29c-8.16,3.51-17.08,6.64-26.28,9.58a456.94,456.94,0,0,0-21.35-57.78,449,449,0,0,0,21.06-57.5c9.4,2.94,18.32,6.16,26.67,9.67,33.59,14.33,55.32,33.12,55.32,48s-21.83,33.78-55.42,48Z" transform="translate(-17.24 -42.72)"/><circle cx="232.67" cy="207.33" r="43.36"/></svg>