<svg id="Layer_1" data-name="Layer 1" xmlns="http://www.w3.org/2000/svg" viewBox="0 0 328.03 245.88"><path d="M368.37,268.25a67.67,67.67,0,0,0-29.73,6.92c-3.08-6.08-6.15-11.4-6.66-15.38-.58-4.61-1.29-7.43-.58-12.94s3.91-13.33,3.91-14-.71-3.39-7.31-3.46-12.3,1.28-12.94,3a74.85,74.85,0,0,0-2.76,9.81c-1.15,6-13.19,27.36-20.05,38.57-2.24-4.36-4.17-8.2-4.55-11.28-.58-4.61-1.28-7.43-.58-12.94s3.91-13.33,3.91-14-.7-3.39-7.3-3.46-12.3,1.28-13,3S269.44,248,268,252s-17.36,39.59-21.53,48.89c-2.11,4.74-4,8.52-5.32,11.08s-.06.19-.19.45l-1.79,3.39v.07c-.9,1.6-1.86,3.14-2.31,3.14s-1-4.29.13-10.19c2.37-12.37,8.13-31.65,8.07-32.36,0-.32,1.09-3.71-3.72-5.44s-6.34,1.15-6.72,1.15-.71,1-.71,1,5.19-21.72-9.93-21.72c-9.48,0-22.55,10.31-29,19.73-4.1,2.24-12.81,7-22,12.05-3.52,1.92-7.17,4-10.63,5.83l-.71-.77c-18.32-19.55-52.22-33.39-50.81-59.66.51-9.54,3.85-34.72,65.1-65.22,50.17-25,90.35-18.14,97.33-2.89,9.93,21.79-21.47,62.28-73.62,68.11-19.86,2.25-30.31-5.44-32.94-8.33s-3.14-3.14-4.16-2.56c-1.67.9-.64,3.59,0,5.19,1.54,4,7.94,11.21,18.84,14.8,9.54,3.14,32.87,4.87,61.06-6,31.59-12.24,56.26-46.2,49-74.58-7.37-28.9-55.3-38.38-100.6-22.3-27,9.61-56.19,24.6-77.21,44.27-25,23.33-29,43.7-27.29,52.16,5.83,30.18,47.41,49.85,64.07,64.4-.83.44-1.6.89-2.31,1.28-8.33,4.1-40,20.69-48,38.25-9,19.86,1.41,34.15,8.33,36.07,21.4,6,43.31-4.74,55.17-22.36S174,308.43,168.52,298l-.19-.38,6.53-3.85c4.23-2.5,8.4-4.8,12-6.79-2,5.57-3.52,12.17-4.29,21.79-.9,11.27,3.71,25.88,9.8,31.65,2.69,2.5,5.9,2.56,7.88,2.56,7,0,10.25-5.83,13.78-12.81,4.36-8.53,8.2-18.39,8.2-18.39s-4.81,26.72,8.33,26.72c4.81,0,9.61-6.22,11.79-9.42v.06s.13-.19.38-.64.53-.8.77-1.22v-.12c1.93-3.34,6.22-11,12.63-23.58,8.26-16.28,16.21-36.65,16.21-36.65a117.71,117.71,0,0,0,3.14,13.2c1.4,4.87,4.48,10.18,6.85,15.37-1.92,2.69-3.07,4.23-3.07,4.23l.06.07c-1.54,2.05-3.27,4.23-5.06,6.4-6.54,7.82-14.35,16.73-15.38,19.29-1.22,3-1,5.25,1.41,7,1.73,1.28,4.81,1.54,8.07,1.28a35.75,35.75,0,0,0,12-2.76,41.66,41.66,0,0,0,10.38-5.44c6.41-4.74,10.32-11.47,9.93-20.44A41,41,0,0,0,297,290.74c.58-.83,1.15-1.66,1.73-2.56a270.74,270.74,0,0,0,17.94-31.08,117.12,117.12,0,0,0,3.14,13.2c1.22,4.17,3.65,8.72,5.83,13.2-9.48,7.76-15.44,16.73-17.49,22.62-3.78,10.89-.83,15.83,4.74,17,2.5.51,6.09-.64,8.78-1.79a39.6,39.6,0,0,0,11.08-5.71c6.41-4.74,12.56-11.34,12.24-20.24a38.94,38.94,0,0,0-2.75-12c8.07-3.33,18.51-5.25,31.78-3.65,28.51,3.33,34.15,21.15,33.06,28.58s-7.05,11.53-9,12.81-2.63,1.67-2.44,2.57c.26,1.34,1.15,1.28,2.88,1,2.37-.38,15-6.08,15.51-19.79.77-17.63-15.95-36.85-45.62-36.66Zm-219.9,74.14c-9.42,10.31-22.69,14.22-28.32,10.89-6.09-3.53-3.72-18.71,7.88-29.67,7.05-6.66,16.21-12.81,22.23-16.59,1.35-.84,3.4-2,5.83-3.53.39-.25.64-.38.64-.38.45-.26,1-.58,1.48-.9,4.29,15.63.19,29.35-9.74,40.18Zm68.88-46.84c-3.27,8-10.19,28.57-14.36,27.42-3.58-1-5.76-16.53-.7-31.91,2.56-7.75,8-17,11.21-20.57,5.19-5.76,10.83-7.69,12.24-5.31C227.41,268.25,219.4,290.55,217.35,295.55Zm56.83,27.16c-1.41.71-2.69,1.22-3.27.84s.58-1.22.58-1.22,7.11-7.62,9.93-11.15c1.6-2.05,3.52-4.42,5.57-7.11v.77c0,9.22-8.84,15.38-12.81,17.87Zm43.83-10c-1-.77-.9-3.14,2.56-10.57a39.65,39.65,0,0,1,9.74-12.56,16,16,0,0,1,1,5.51C331.21,306.63,323,310.92,318,312.72Z" transform="translate(-85.98 -127.06)"/></svg>