<?xml version="1.0" encoding="utf-8"?>
<!-- Generator: Adobe Illustrator 27.1.0, SVG Export Plug-In . SVG Version: 6.00 Build 0)  -->
<svg version="1.1" baseProfile="tiny" id="Layer_1" xmlns="http://www.w3.org/2000/svg" xmlns:xlink="http://www.w3.org/1999/xlink"
	 x="0px" y="0px" viewBox="0 0 122.9 73.3" overflow="visible" xml:space="preserve">
<path fill-rule="evenodd" d="M61.4,0C45.1,0,34.8,8.1,30.7,24.4c6.1-8.1,13.3-11.2,21.5-9.2c4.7,1.2,8,4.5,11.7,8.3
	c6,6.1,13,13.1,28.2,13.1c16.4,0,26.6-8.1,30.7-24.4c-6.1,8.1-13.3,11.2-21.5,9.2c-4.7-1.2-8-4.5-11.7-8.3C83.6,7,76.7,0,61.4,0z
	 M30.7,36.6C14.3,36.6,4.1,44.8,0,61.1c6.2-8.1,13.3-11.2,21.5-9.2c4.7,1.2,8,4.5,11.7,8.3c6,6.1,13,13.1,28.2,13.1
	c16.4,0,26.6-8.1,30.7-24.4C86,57,78.9,60,70.7,58c-4.7-1.2-8-4.5-11.7-8.3C52.9,43.7,45.9,36.6,30.7,36.6L30.7,36.6z"/>
</svg>
