<?xml version="1.0" encoding="utf-8"?>
<!-- Generator: Adobe Illustrator 27.1.0, SVG Export Plug-In . SVG Version: 6.00 Build 0)  -->
<svg version="1.1" id="Capa_1" xmlns="http://www.w3.org/2000/svg" xmlns:xlink="http://www.w3.org/1999/xlink" x="0px" y="0px"
	 viewBox="0 0 414.4 414.8" style="enable-background:new 0 0 414.4 414.8;" xml:space="preserve">
<style type="text/css">
	.st0{fill:#FFFFFF;}
	.st1{fill:#110B09;}
</style>
<path class="st0" d="M351.8,378.1c-58.3-17.7-116.5-35.4-174.8-53.1L39.1,203.3c46.8-37.9,93.6-75.8,140.5-113.7
	c53.6-14.1,107.1-28.3,160.7-42.4c15.1,53.9,30.3,107.9,45.4,161.8C374.3,265.4,363.1,321.7,351.8,378.1z"/>
<path class="st1" d="M344.5,332.4l-74.4-125.1l74.4-125.2l35.9,125.2L344.5,332.4z M178.9,320.2l-93.5-92.8h148.8l74.4,125.2
	L178.9,320.2z M178.9,93.9l129.4-32.4l-74.4,125.1H85.1L178.9,93.9z M368.9,0l-169,43.9L174.8,87L124,86.7L0,207.2l124,120.6
	l50.7-0.4l25.2,43.1l169,44.3l45.4-164.5l-25.6-42.7l25.6-42.7L368.9,0z"/>
</svg>
