<svg xmlns="http://www.w3.org/2000/svg" xml:space="preserve" style="enable-background:new 0 0 414.4 414.8" viewBox="0 0 414.4 414.8"><path d="M351.8 378.1C293.5 360.4 235.3 342.7 177 325L39.1 203.3c46.8-37.9 93.6-75.8 140.5-113.7 53.6-14.1 107.1-28.3 160.7-42.4 15.1 53.9 30.3 107.9 45.4 161.8-11.4 56.4-22.6 112.7-33.9 169.1z" style="fill:#fff"/><path d="m344.5 332.4-74.4-125.1 74.4-125.2 35.9 125.2-35.9 125.1zm-165.6-12.2-93.5-92.8h148.8l74.4 125.2-129.7-32.4zm0-226.3 129.4-32.4-74.4 125.1H85.1l93.8-92.7zM368.9 0l-169 43.9L174.8 87l-50.8-.3L0 207.2l124 120.6 50.7-.4 25.2 43.1 169 44.3 45.4-164.5-25.6-42.7 25.6-42.7L368.9 0z" style="fill:#110b09"/></svg>