<?xml version="1.0" encoding="UTF-8"?>
<svg id="Layer_1" data-name="Layer 1" xmlns="http://www.w3.org/2000/svg" viewBox="0 0 64 64">
  <defs>
    <style>
      .cls-1 {
        fill: #fff;
      }
    </style>
  </defs>
  <circle cx="32" cy="32" r="32"/>
  <path class="cls-1" d="m33.29,19.4l-9.29,25.2h-3.29l-9.14-25.2h3.29l7,20c.24.73.41,1.47.51,2.23h.07c.1-.78.29-1.54.56-2.28l7.12-20,3.17.05Z"/>
  <path class="cls-1" d="m36.92,44.6v-25.2h7.17c1.86-.1,3.7.47,5.18,1.6,1.26,1.01,1.97,2.56,1.92,4.17.02,1.34-.4,2.64-1.19,3.72-.8,1.07-1.92,1.86-3.2,2.25v.07c1.55.12,3,.81,4.08,1.92,1.05,1.15,1.6,2.67,1.53,4.23.07,2.01-.79,3.94-2.32,5.24-1.64,1.37-3.72,2.08-5.85,2h-7.32Zm3-22.54v8.14h3c1.37.06,2.71-.36,3.79-1.2.95-.83,1.46-2.04,1.39-3.3,0-2.45-1.61-3.67-4.83-3.67l-3.35.03Zm0,10.79v9.07h4c1.44.08,2.86-.35,4-1.23.97-.85,1.49-2.09,1.43-3.37,0-2.97-2.03-4.46-6.08-4.46h-3.35Z"/>
</svg>