<svg id="Capa_1" data-name="Capa 1" xmlns="http://www.w3.org/2000/svg" viewBox="0 0 169.54 174.56"><defs><style>.cls-1{fill:#eb5b26;}.cls-2{fill:#fff;}.cls-3{fill:#ee731c;}</style></defs><circle class="cls-1" cx="59.41" cy="142.53" r="18.44"/><circle class="cls-2" cx="59.41" cy="142.53" r="12.79"/><circle class="cls-1" cx="18.44" cy="142.53" r="18.44"/><circle class="cls-2" cx="18.44" cy="142.53" r="12.79"/><circle class="cls-1" cx="100.38" cy="142.53" r="18.44"/><circle class="cls-2" cx="100.38" cy="142.53" r="12.79"/><path class="cls-1" d="M113.17,142.53h5.65a0,0,0,0,1,0,0v32a0,0,0,0,1,0,0h0a5.65,5.65,0,0,1-5.65-5.65V142.53A0,0,0,0,1,113.17,142.53Z"/><path class="cls-1" d="M122.92,126.81h0a5.65,5.65,0,0,1,5.65,5.65V161a0,0,0,0,1,0,0h0a5.65,5.65,0,0,1-5.65-5.65V126.81a0,0,0,0,1,0,0Z"/><path class="cls-1" d="M122.92,117.58h0a5.65,5.65,0,0,1,5.65,5.65v.87a0,0,0,0,1,0,0h0a5.65,5.65,0,0,1-5.65-5.65v-.87a0,0,0,0,1,0,0Z"/><circle class="cls-1" cx="151.1" cy="142.53" r="18.44"/><circle class="cls-2" cx="151.1" cy="142.53" r="12.79"/><path class="cls-1" d="M163.89,142.53h5.65a0,0,0,0,1,0,0V161a0,0,0,0,1,0,0h0a5.65,5.65,0,0,1-5.65-5.65V142.53A0,0,0,0,1,163.89,142.53Z"/><path class="cls-3" d="M39.25,26.58V79.74l45.52,26.58V0Z"/><path class="cls-1" d="M130.29,26.58V79.74L84.77,106.32V0Z"/><path class="cls-2" d="M84.06,27.05c-12.14,0-22,10.08-22,22.51A22.36,22.36,0,0,0,80.51,71.77V66.18a16.45,16.45,0,1,1,3.55.4c-.52,0-1,0-1.54-.07V72c.5,0,1,.06,1.54.06,12.13,0,22-10.07,22-22.5S96.19,27.05,84.06,27.05Z"/><path class="cls-2" d="M82.52,57.59h.11A5.37,5.37,0,0,1,88,63V80.2a0,0,0,0,1,0,0h-.11a5.37,5.37,0,0,1-5.37-5.37V57.59A0,0,0,0,1,82.52,57.59Z"/></svg>