<?xml version="1.0" encoding="UTF-8" standalone="no"?>
<!-- Created with Inkscape (http://www.inkscape.org/) -->

<svg
   xmlns:dc="http://purl.org/dc/elements/1.1/"
   xmlns:cc="http://creativecommons.org/ns#"
   xmlns:rdf="http://www.w3.org/1999/02/22-rdf-syntax-ns#"
   xmlns:svg="http://www.w3.org/2000/svg"
   xmlns="http://www.w3.org/2000/svg"
   xmlns:sodipodi="http://sodipodi.sourceforge.net/DTD/sodipodi-0.dtd"
   xmlns:inkscape="http://www.inkscape.org/namespaces/inkscape"
   width="57.358471mm"
   height="35.123676mm"
   viewBox="0 0 57.358471 35.123676"
   version="1.1"
   id="svg12776"
   inkscape:version="0.92.1 r15371"
   sodipodi:docname="uca.svg">
  <defs
     id="defs12770" />
  <sodipodi:namedview
     id="base"
     pagecolor="#ffffff"
     bordercolor="#666666"
     borderopacity="1.0"
     inkscape:pageopacity="0.0"
     inkscape:pageshadow="2"
     inkscape:zoom="3.3396695"
     inkscape:cx="108.39396"
     inkscape:cy="66.375449"
     inkscape:document-units="mm"
     inkscape:current-layer="layer1"
     showgrid="false"
     fit-margin-top="0"
     fit-margin-left="0"
     fit-margin-right="0"
     fit-margin-bottom="0"
     inkscape:window-width="1366"
     inkscape:window-height="704"
     inkscape:window-x="0"
     inkscape:window-y="27"
     inkscape:window-maximized="1" />
  <metadata
     id="metadata12773">
    <rdf:RDF>
      <cc:Work
         rdf:about="">
        <dc:format>image/svg+xml</dc:format>
        <dc:type
           rdf:resource="http://purl.org/dc/dcmitype/StillImage" />
        <dc:title></dc:title>
      </cc:Work>
    </rdf:RDF>
  </metadata>
  <g
     inkscape:label="Capa 1"
     inkscape:groupmode="layer"
     id="layer1"
     transform="translate(-0.80290442,-57.188157)">
    <g
       id="g12699"
       transform="matrix(0.35277777,0,0,-0.35277777,-239.84491,200.28356)"
       style="fill:#011834;fill-opacity:1">
      <g
         transform="matrix(1.045,0,0,-1.04138,683.8193,331.78926)"
         id="g10055"
         style="fill:#011834;fill-opacity:1">
        <path
           inkscape:connector-curvature="0"
           id="path10057"
           style="fill:#011834;fill-opacity:1;fill-rule:nonzero;stroke:none"
           d="m 0,0 v -7.982 h 2.68 v 5.555 0.88 c 0,0.496 0.002,0.984 0.006,1.468 C 2.695,0.4 2.735,0.886 2.822,1.374 2.903,1.864 3.003,2.262 3.117,2.568 3.229,2.872 3.44,3.194 3.754,3.518 4.302,4.081 4.983,4.356 5.798,4.356 6.64,4.356 7.302,4.183 7.775,3.834 8.253,3.481 8.654,2.866 8.977,1.995 9.119,1.611 9.212,1.08 9.242,0.388 c 0.039,-0.69 0.06,-1.499 0.06,-2.443 v -5.927 h 1.427 v 6.963 c 0,1.436 -0.083,2.489 -0.248,3.149 C 10.221,3.187 9.67,4.03 8.835,4.653 8.381,5.02 7.864,5.282 7.279,5.446 6.69,5.611 6.086,5.687 5.454,5.687 4.212,5.687 3.164,5.461 2.305,5.005 1.266,4.448 0.594,3.576 0.283,2.407 0.187,2.057 0.115,1.666 0.067,1.239 0.019,0.816 0,0.405 0,0" />
      </g>
      <g
         transform="matrix(1.045,0,0,-1.04138,702.0063,326.14626)"
         id="g10059"
         style="fill:#011834;fill-opacity:1">
        <path
           inkscape:connector-curvature="0"
           id="path10061"
           style="fill:#011834;fill-opacity:1;fill-rule:nonzero;stroke:none"
           d="m 0,0 v -13.4 h 1.769 c 0.788,0.938 1.643,1.944 2.56,3.013 0.509,0.593 1.382,1.616 2.62,3.081 1.237,1.46 2.084,2.484 2.548,3.072 V -13.4 h 1.432 V 0.041 L 9.407,0.018 C 8.396,-1.209 7.387,-2.44 6.384,-3.683 5.337,-4.964 4.333,-6.152 3.378,-7.25 L 1.433,-9.485 v 9.526 z" />
      </g>
      <g
         transform="matrix(1.045,0,0,-1.04138,595.8583,120.48426)"
         id="g10063"
         style="fill:#011834;fill-opacity:1">
        <path
           inkscape:connector-curvature="0"
           id="path10065"
           style="fill:#011834;fill-opacity:1;fill-rule:nonzero;stroke:none"
           d="m 119.194,-210.89 h 2.685 v 13.44 h -2.685 z" />
      </g>
      <g
         transform="matrix(1.045,0,0,-1.04138,735.6203,326.10726)"
         id="g10067"
         style="fill:#011834;fill-opacity:1">
        <path
           inkscape:connector-curvature="0"
           id="path10069"
           style="fill:#011834;fill-opacity:1;fill-rule:nonzero;stroke:none"
           d="m 0,0 c -0.167,-0.032 -1.437,-0.017 -1.523,0 -0.454,-1.388 -0.964,-2.896 -1.539,-4.537 -0.574,-1.647 -1.1,-3.123 -1.593,-4.459 -0.344,-0.94 -0.896,-2.422 -1.661,-4.444 h 3.146 c 0.375,1.356 0.872,2.968 1.507,4.84 0.546,1.623 1.103,3.239 1.663,4.862 0.532,-1.41 0.936,-2.484 1.198,-3.22 0.393,-1.072 0.766,-2.15 1.127,-3.235 0.309,-0.938 0.651,-2.024 1.02,-3.247 h 1.641 c -0.58,1.473 -1.166,2.962 -1.753,4.473 -0.58,1.506 -1.139,2.982 -1.662,4.415 C 1.012,-3.008 0.486,-1.49 0,0" />
      </g>
      <g
         transform="matrix(1.045,0,0,-1.04138,746.3473,340.10126)"
         id="g10071"
         style="fill:#011834;fill-opacity:1">
        <path
           inkscape:connector-curvature="0"
           id="path10073"
           style="fill:#011834;fill-opacity:1;fill-rule:nonzero;stroke:none"
           d="m 0,0 h 6.817 c -0.025,0.145 -0.01,1.575 0,1.682 C 6.208,1.592 5.576,1.52 4.93,1.48 4.283,1.429 3.531,1.408 2.687,1.408 V 5.621 H 4.546 C 5.012,5.621 5.374,5.611 5.628,5.59 5.886,5.571 6.258,5.526 6.748,5.442 6.72,5.59 6.732,7.025 6.748,7.131 6.457,7.092 6.105,7.053 5.686,7.008 5.258,6.974 4.881,6.957 4.546,6.957 H 2.687 v 4.973 c 0.844,0 1.596,-0.02 2.243,-0.066 0.646,-0.048 1.278,-0.12 1.887,-0.209 -0.025,0.144 -0.01,1.582 0,1.689 H 0 Z" />
      </g>
      <g
         transform="matrix(1.045,0,0,-1.04138,762.1863,338.97826)"
         id="g10075"
         style="fill:#011834;fill-opacity:1">
        <path
           inkscape:connector-curvature="0"
           id="path10077"
           style="fill:#011834;fill-opacity:1;fill-rule:nonzero;stroke:none"
           d="m 0,0 v 5.23 c 0.08,0.011 0.155,0.017 0.229,0.017 h 0.23 C 2.023,5.247 2.801,4.31 2.801,2.439 2.801,2.125 2.772,1.804 2.714,1.46 2.607,0.849 2.334,0.436 1.894,0.216 1.596,0.072 1.138,0 0.517,0 Z m -2.686,12.362 v -13.44 h 3.81 c 0.823,0 1.421,0.014 1.809,0.047 0.381,0.034 0.739,0.147 1.087,0.345 1.04,0.6 1.555,1.535 1.555,2.798 0,0.93 -0.248,1.696 -0.748,2.318 -0.499,0.613 -1.18,1.013 -2.039,1.209 0.466,0.891 1.117,2.039 1.95,3.449 0.559,0.944 0.963,1.627 1.219,2.058 l 0.694,1.216 H 3.413 L 1.28,8.25 0.122,6.071 H 0 v 6.291 z" />
      </g>
      <g
         transform="matrix(1.045,0,0,-1.04138,780.6923,337.47326)"
         id="g10079"
         style="fill:#011834;fill-opacity:1">
        <path
           inkscape:connector-curvature="0"
           id="path10081"
           style="fill:#011834;fill-opacity:1;fill-rule:nonzero;stroke:none"
           d="m 0,0 h -0.268 c -0.18,-0.53 -0.446,-0.949 -0.791,-1.25 -0.344,-0.301 -0.769,-0.453 -1.271,-0.453 -0.668,0 -1.159,0.175 -1.488,0.517 -0.316,0.346 -0.479,0.814 -0.479,1.394 0,0.714 0.47,1.347 1.397,1.906 1.691,1.012 2.569,1.552 2.632,1.6 0.938,0.812 1.409,1.855 1.409,3.133 0,1.248 -0.441,2.278 -1.32,3.091 -0.885,0.811 -2.02,1.208 -3.413,1.208 -0.531,0 -1.041,-0.066 -1.535,-0.201 C -5.62,10.804 -6.07,10.596 -6.476,10.308 -6.334,9.765 -6.227,9.322 -6.155,8.987 -6.088,8.651 -6.019,8.269 -5.96,7.839 h 0.34 c 0.13,0.675 0.418,1.195 0.859,1.573 0.442,0.374 0.978,0.56 1.614,0.56 0.592,0 1.088,-0.17 1.49,-0.527 0.4,-0.353 0.598,-0.854 0.598,-1.507 0,-0.833 -0.456,-1.526 -1.378,-2.075 -0.856,-0.491 -1.708,-0.983 -2.558,-1.482 -0.929,-0.77 -1.391,-1.82 -1.391,-3.15 0,-1.188 0.341,-2.151 1.035,-2.896 0.75,-0.808 1.782,-1.214 3.096,-1.214 0.596,0 1.157,0.101 1.691,0.292 0.526,0.199 0.91,0.415 1.135,0.65 -0.132,0.379 -0.234,0.691 -0.3,0.938 C 0.146,-0.554 0.056,-0.217 0,0" />
      </g>
      <g
         transform="matrix(1.045,0,0,-1.04138,595.8583,120.48426)"
         id="g10083"
         style="fill:#011834;fill-opacity:1">
        <path
           inkscape:connector-curvature="0"
           id="path10085"
           style="fill:#011834;fill-opacity:1;fill-rule:nonzero;stroke:none"
           d="m 183.795,-210.89 h 2.684 v 13.44 h -2.684 z" />
      </g>
      <g
         transform="matrix(1.045,0,0,-1.04138,800.5813,338.92026)"
         id="g10087"
         style="fill:#011834;fill-opacity:1">
        <path
           inkscape:connector-curvature="0"
           id="path10089"
           style="fill:#011834;fill-opacity:1;fill-rule:nonzero;stroke:none"
           d="M 0,0 V 11.07 H 1.522 C 2.879,11.07 3.91,10.659 4.615,9.834 5.448,8.851 5.868,7.291 5.868,5.136 5.868,3.354 5.5,2.042 4.757,1.194 4.066,0.4 3.063,0 1.754,0 Z m -2.686,-1.134 h 6.122 c 1.788,0 3.166,0.644 4.13,1.935 0.851,1.139 1.272,2.59 1.272,4.35 0,2.168 -0.623,3.898 -1.877,5.194 -1.198,1.242 -2.739,1.864 -4.636,1.864 h -5.011 z" />
      </g>
      <g
         transform="matrix(1.045,0,0,-1.04138,818.3073,331.61026)"
         id="g10091"
         style="fill:#011834;fill-opacity:1">
        <path
           inkscape:connector-curvature="0"
           id="path10093"
           style="fill:#011834;fill-opacity:1;fill-rule:nonzero;stroke:none"
           d="M 0,0 H 3.272 L 1.679,-4.574 Z M 3.679,1.185 H -0.489 C -0.868,2.375 -1.144,3.253 -1.317,3.808 -1.493,4.37 -1.631,4.862 -1.739,5.287 H -3.438 L 1.679,-8.332 H 3.037 L 8.033,5.287 H 4.952 C 4.687,4.357 4.485,3.663 4.34,3.184 4.117,2.431 3.896,1.765 3.679,1.185" />
      </g>
      <g
         transform="matrix(1.045,0,0,-1.04138,835.0763,338.92026)"
         id="g10095"
         style="fill:#011834;fill-opacity:1">
        <path
           inkscape:connector-curvature="0"
           id="path10097"
           style="fill:#011834;fill-opacity:1;fill-rule:nonzero;stroke:none"
           d="m 0,0 v 11.07 h 1.517 c 1.359,0 2.392,-0.411 3.097,-1.236 C 5.445,8.851 5.863,7.291 5.863,5.136 5.863,3.354 5.495,2.042 4.758,1.194 4.065,0.4 3.062,0 1.752,0 Z m -2.688,-1.134 h 6.12 c 1.788,0 3.166,0.644 4.133,1.935 0.846,1.139 1.268,2.59 1.268,4.35 0,2.168 -0.625,3.898 -1.875,5.194 -1.192,1.242 -2.74,1.864 -4.635,1.864 h -5.011 z" />
      </g>
      <g
         transform="matrix(1.045,0,0,-1.04138,691.5493,308.31826)"
         id="g10099"
         style="fill:#011834;fill-opacity:1">
        <path
           inkscape:connector-curvature="0"
           id="path10101"
           style="fill:#011834;fill-opacity:1;fill-rule:nonzero;stroke:none"
           d="M 0,0 -0.133,1.476 C -0.557,1.708 -1.019,1.884 -1.525,2 c -0.497,0.116 -1.008,0.167 -1.532,0.167 -1.618,0 -2.935,-0.493 -3.954,-1.469 -1.069,-1.012 -1.597,-2.335 -1.597,-3.971 0,-2.019 0.574,-3.568 1.728,-4.652 1.054,-0.992 2.434,-1.488 4.148,-1.488 0.524,0 1.046,0.066 1.571,0.205 0.53,0.133 1.008,0.325 1.441,0.59 -0.05,0.214 -0.547,1.667 -0.547,1.667 -0.271,-0.442 -0.631,-0.805 -1.078,-1.077 -0.44,-0.273 -0.898,-0.414 -1.374,-0.414 -1.137,0 -2.018,0.526 -2.638,1.584 -0.537,0.906 -0.802,2.021 -0.802,3.356 0,1.423 0.305,2.557 0.921,3.416 0.607,0.855 1.474,1.281 2.595,1.281 0.462,0 0.934,-0.106 1.411,-0.326 C -0.758,0.65 -0.347,0.362 0,0" />
      </g>
      <g
         transform="matrix(1.045,0,0,-1.04138,694.5573,317.81926)"
         id="g10103"
         style="fill:#011834;fill-opacity:1">
        <path
           inkscape:connector-curvature="0"
           id="path10105"
           style="fill:#011834;fill-opacity:1;fill-rule:nonzero;stroke:none"
           d="m 0,0 h 5.627 c -0.02,0.121 -0.011,1.305 0,1.394 C 5.127,1.318 4.603,1.262 4.069,1.227 3.535,1.184 2.909,1.167 2.218,1.167 v 3.478 h 1.533 c 0.386,0 0.682,-0.01 0.894,-0.023 0.21,-0.024 0.517,-0.06 0.926,-0.123 -0.02,0.123 -0.013,1.304 0,1.388 C 5.33,5.855 5.036,5.824 4.687,5.79 4.341,5.759 4.024,5.741 3.751,5.741 H 2.218 v 4.11 c 0.691,0 1.317,-0.02 1.851,-0.058 0.534,-0.041 1.058,-0.094 1.558,-0.17 -0.02,0.12 -0.011,1.305 0,1.392 H 0 Z" />
      </g>
      <g
         transform="matrix(1.045,0,0,-1.04138,703.2763,306.29426)"
         id="g10107"
         style="fill:#011834;fill-opacity:1">
        <path
           inkscape:connector-curvature="0"
           id="path10109"
           style="fill:#011834;fill-opacity:1;fill-rule:nonzero;stroke:none"
           d="m 0,0 v -11.067 h 1.459 c 0.652,0.78 1.355,1.613 2.116,2.492 0.419,0.486 1.147,1.33 2.159,2.539 1.02,1.208 1.725,2.059 2.106,2.538 v -7.569 H 9.026 V 0.031 L 7.768,0.012 C 6.929,-1 6.099,-2.021 5.273,-3.045 4.407,-4.101 3.58,-5.082 2.79,-5.988 L 1.181,-7.831 v 7.862 z" />
      </g>
      <g
         transform="matrix(1.045,0,0,-1.04138,720.3913,316.62426)"
         id="g10111"
         style="fill:#011834;fill-opacity:1">
        <path
           inkscape:connector-curvature="0"
           id="path10113"
           style="fill:#011834;fill-opacity:1;fill-rule:nonzero;stroke:none"
           d="M 0,0 V 9.951 H -2.215 V 0 c -0.524,0 -0.976,0.021 -1.368,0.061 -0.391,0.037 -0.849,0.092 -1.378,0.169 0.017,-0.148 0.007,-1.301 0,-1.377 H 2.64 c -0.016,0.15 -0.012,1.3 0,1.377 C 1.922,0.133 1.491,0.082 1.342,0.067 0.903,0.027 0.451,0 0,0" />
      </g>
      <g
         transform="matrix(1.045,0,0,-1.04138,727.8563,316.89026)"
         id="g10115"
         style="fill:#011834;fill-opacity:1">
        <path
           inkscape:connector-curvature="0"
           id="path10117"
           style="fill:#011834;fill-opacity:1;fill-rule:nonzero;stroke:none"
           d="M 0,0 V 4.32 C 0.072,4.329 0.135,4.332 0.192,4.332 H 0.387 C 1.677,4.332 2.321,3.56 2.321,2.014 2.321,1.756 2.294,1.486 2.245,1.207 2.16,0.705 1.933,0.36 1.567,0.179 1.321,0.059 0.94,0 0.428,0 Z M -2.215,10.207 V -0.892 h 3.148 c 0.681,0 1.175,0.018 1.493,0.041 0.312,0.03 0.613,0.124 0.899,0.289 0.859,0.495 1.284,1.259 1.284,2.311 0,0.766 -0.208,1.397 -0.619,1.907 -0.416,0.506 -0.98,0.838 -1.683,1.002 0.382,0.734 0.92,1.683 1.608,2.846 0.462,0.777 0.798,1.345 1.004,1.7 l 0.577,1.003 H 2.821 L 1.068,6.811 0.105,5.012 H 0 v 5.195 z" />
      </g>
      <g
         transform="matrix(1.045,0,0,-1.04138,741.2533,317.10926)"
         id="g10119"
         style="fill:#011834;fill-opacity:1">
        <path
           inkscape:connector-curvature="0"
           id="path10121"
           style="fill:#011834;fill-opacity:1;fill-rule:nonzero;stroke:none"
           d="m 0,0 c -1.056,0 -1.858,0.432 -2.409,1.293 -0.579,0.903 -0.87,2.244 -0.87,4.02 0,1.183 0.238,2.168 0.708,2.956 0.55,0.912 1.342,1.368 2.379,1.368 C 0.881,9.637 1.711,9.114 2.3,8.076 2.833,7.124 3.1,5.924 3.1,4.474 3.1,3.277 2.862,2.269 2.393,1.45 1.833,0.485 1.033,0 0,0 m 5.554,4.776 c 0,1.639 -0.521,3.009 -1.554,4.106 -1.08,1.152 -2.508,1.726 -4.266,1.726 -1.668,0 -2.989,-0.502 -3.98,-1.516 -0.992,-1.011 -1.485,-2.431 -1.485,-4.247 0,-1.672 0.505,-3.042 1.521,-4.117 1.064,-1.133 2.497,-1.699 4.295,-1.699 1.913,0 3.351,0.648 4.314,1.94 0.765,1.035 1.155,2.302 1.155,3.807" />
      </g>
      <g
         transform="matrix(1.045,0,0,-1.04138,751.6533,310.80826)"
         id="g10123"
         style="fill:#011834;fill-opacity:1">
        <path
           inkscape:connector-curvature="0"
           id="path10125"
           style="fill:#011834;fill-opacity:1;fill-rule:nonzero;stroke:none"
           d="M 0,0 H 2.702 L 1.386,-3.773 Z m 3.041,0.983 h -3.44 c -0.317,0.982 -0.544,1.699 -0.689,2.16 -0.141,0.465 -0.259,0.874 -0.343,1.223 H -2.838 L 1.386,-6.872 H 2.51 L 6.631,4.366 H 4.092 C 3.873,3.6 3.706,3.02 3.59,2.632 3.399,2.006 3.217,1.457 3.041,0.983" />
      </g>
      <g
         transform="matrix(1.045,0,0,-1.04138,766.6193,309.90426)"
         id="g10127"
         style="fill:#011834;fill-opacity:1">
        <path
           inkscape:connector-curvature="0"
           id="path10129"
           style="fill:#011834;fill-opacity:1;fill-rule:nonzero;stroke:none"
           d="m 0,0 c 0.413,-0.897 0.785,-1.689 1.11,-2.38 0.407,-0.863 0.79,-1.706 1.165,-2.535 0.531,-1.189 0.92,-2.082 1.163,-2.689 0.14,0.025 1.178,0.014 1.257,0 0.139,1.368 0.282,2.736 0.422,4.095 0.233,2.132 0.368,3.348 0.407,3.655 C 5.65,1.144 5.812,2.263 5.996,3.49 H 3.571 C 3.571,2.466 3.5,1.271 3.349,-0.104 3.204,-1.479 3.069,-2.791 2.938,-4.038 2.565,-3.21 2.194,-2.38 1.825,-1.555 1.454,-0.733 1.09,0.089 0.725,0.908 0.477,1.466 0.127,2.306 -0.336,3.414 c -0.16,-0.02 -0.466,-0.02 -0.563,0 -0.335,-0.775 -0.671,-1.548 -1,-2.313 -0.431,-0.949 -0.79,-1.764 -1.095,-2.445 -0.384,-0.842 -0.766,-1.682 -1.138,-2.518 -0.147,1.215 -0.253,2.106 -0.312,2.668 -0.094,0.897 -0.175,1.731 -0.229,2.506 -0.054,0.777 -0.082,1.503 -0.082,2.186 -0.153,-0.023 -1.264,-0.026 -1.372,-0.008 0.181,-1.056 0.35,-2.192 0.515,-3.41 0.102,-0.682 0.261,-1.897 0.482,-3.656 0.222,-1.755 0.392,-3.098 0.507,-4.028 0.143,0.025 1.16,0.014 1.23,0 0.245,0.595 0.606,1.435 1.09,2.524 0.373,0.839 0.754,1.692 1.137,2.542 C -0.781,-1.689 -0.394,-0.847 0,0" />
      </g>
      <g
         transform="matrix(1.045,0,0,-1.04138,775.5183,317.81926)"
         id="g10131"
         style="fill:#011834;fill-opacity:1">
        <path
           inkscape:connector-curvature="0"
           id="path10133"
           style="fill:#011834;fill-opacity:1;fill-rule:nonzero;stroke:none"
           d="M 0,0 H 5.627 C 5.611,0.121 5.621,1.305 5.627,1.394 5.125,1.318 4.608,1.262 4.072,1.227 3.534,1.184 2.917,1.167 2.219,1.167 V 4.645 H 3.751 C 4.144,4.645 4.44,4.635 4.647,4.622 4.86,4.598 5.164,4.562 5.57,4.499 5.552,4.622 5.562,5.803 5.57,5.887 5.333,5.855 5.043,5.824 4.694,5.79 4.344,5.759 4.032,5.741 3.751,5.741 H 2.219 v 4.11 c 0.698,0 1.315,-0.02 1.853,-0.058 0.536,-0.041 1.053,-0.094 1.555,-0.17 -0.016,0.12 -0.006,1.305 0,1.392 H 0 Z" />
      </g>
      <g
         transform="matrix(1.045,0,0,-1.04138,786.4163,316.89026)"
         id="g10135"
         style="fill:#011834;fill-opacity:1">
        <path
           inkscape:connector-curvature="0"
           id="path10137"
           style="fill:#011834;fill-opacity:1;fill-rule:nonzero;stroke:none"
           d="M 0,0 V 4.32 C 0.068,4.329 0.134,4.332 0.189,4.332 H 0.38 C 1.676,4.332 2.317,3.56 2.317,2.014 2.317,1.756 2.295,1.486 2.246,1.207 2.157,0.705 1.93,0.36 1.56,0.179 1.318,0.059 0.937,0 0.431,0 Z M -2.224,10.207 V -0.892 H 0.93 c 0.682,0 1.175,0.018 1.493,0.041 0.311,0.03 0.613,0.124 0.897,0.289 0.862,0.495 1.289,1.259 1.289,2.311 0,0.766 -0.213,1.397 -0.625,1.907 -0.413,0.506 -0.971,0.838 -1.683,1.002 0.386,0.734 0.923,1.683 1.611,2.846 0.465,0.777 0.802,1.345 1.002,1.7 l 0.578,1.003 H 2.817 L 1.06,6.811 0.103,5.012 H 0 v 5.195 z" />
      </g>
      <g
         transform="matrix(1.045,0,0,-1.04138,595.8583,120.48426)"
         id="g10139"
         style="fill:#011834;fill-opacity:1">
        <path
           inkscape:connector-curvature="0"
           id="path10141"
           style="fill:#011834;fill-opacity:1;fill-rule:nonzero;stroke:none"
           d="m 190.268,-189.493 h 2.216 v 11.098 h -2.216 z" />
      </g>
      <g
         transform="matrix(1.045,0,0,-1.04138,808.7293,308.31826)"
         id="g10143"
         style="fill:#011834;fill-opacity:1">
        <path
           inkscape:connector-curvature="0"
           id="path10145"
           style="fill:#011834;fill-opacity:1;fill-rule:nonzero;stroke:none"
           d="M 0,0 -0.137,1.476 C -0.557,1.708 -1.016,1.884 -1.521,2 c -0.502,0.116 -1.012,0.167 -1.533,0.167 -1.618,0 -2.936,-0.493 -3.96,-1.469 -1.061,-1.012 -1.595,-2.335 -1.595,-3.971 0,-2.019 0.579,-3.568 1.729,-4.652 1.049,-0.992 2.434,-1.488 4.151,-1.488 0.517,0 1.047,0.066 1.571,0.205 0.525,0.133 1.004,0.325 1.437,0.59 -0.05,0.214 -0.544,1.667 -0.544,1.667 -0.277,-0.442 -0.633,-0.805 -1.081,-1.077 -0.442,-0.273 -0.9,-0.414 -1.368,-0.414 -1.144,0 -2.026,0.526 -2.648,1.584 -0.527,0.906 -0.792,2.021 -0.792,3.356 0,1.423 0.301,2.557 0.913,3.416 0.612,0.855 1.471,1.281 2.599,1.281 0.457,0 0.932,-0.106 1.41,-0.326 C -0.753,0.65 -0.348,0.362 0,0" />
      </g>
      <g
         transform="matrix(1.045,0,0,-1.04138,813.7013,310.80826)"
         id="g10147"
         style="fill:#011834;fill-opacity:1">
        <path
           inkscape:connector-curvature="0"
           id="path10149"
           style="fill:#011834;fill-opacity:1;fill-rule:nonzero;stroke:none"
           d="M 0,0 H 2.699 L 1.381,-3.773 Z m 3.04,0.983 h -3.441 c -0.317,0.982 -0.547,1.699 -0.691,2.16 -0.14,0.465 -0.258,0.874 -0.345,1.223 H -2.84 L 1.387,-6.872 h 1.12 L 6.627,4.366 H 4.087 C 3.868,3.6 3.698,3.02 3.587,2.632 3.397,2.006 3.212,1.457 3.04,0.983" />
      </g>
      <g
         transform="matrix(1.045,0,0,-1.04138,823.0373,306.29426)"
         id="g10151"
         style="fill:#011834;fill-opacity:1">
        <path
           inkscape:connector-curvature="0"
           id="path10153"
           style="fill:#011834;fill-opacity:1;fill-rule:nonzero;stroke:none"
           d="m 0,0 v -11.067 h 1.456 c 0.648,0.78 1.357,1.613 2.113,2.492 0.422,0.486 1.146,1.33 2.162,2.539 1.02,1.208 1.723,2.059 2.104,2.538 v -7.569 H 9.017 V 0.031 L 7.764,0.012 C 6.925,-1 6.095,-2.021 5.268,-3.045 4.405,-4.101 3.574,-5.082 2.789,-5.988 L 1.176,-7.831 v 7.862 z" />
      </g>
      <g
         transform="matrix(1.045,0,0,-1.04138,837.8233,310.80826)"
         id="g10155"
         style="fill:#011834;fill-opacity:1">
        <path
           inkscape:connector-curvature="0"
           id="path10157"
           style="fill:#011834;fill-opacity:1;fill-rule:nonzero;stroke:none"
           d="M 0,0 H 2.694 L 1.378,-3.773 Z m 3.036,0.983 h -3.44 c -0.316,0.982 -0.547,1.699 -0.69,2.16 -0.14,0.465 -0.255,0.874 -0.343,1.223 H -2.845 L 1.379,-6.872 H 2.503 L 6.621,4.366 H 4.082 C 3.868,3.6 3.699,3.02 3.582,2.632 3.396,2.006 3.211,1.457 3.036,0.983" />
      </g>
      <g
         transform="matrix(1.045,0,0,-1.04138,682.1513,371.13826)"
         id="g10159"
         style="fill:#011834;fill-opacity:1">
        <path
           inkscape:connector-curvature="0"
           id="path10161"
           style="fill:#011834;fill-opacity:1;fill-rule:nonzero;stroke:none"
           d="m 0,0 v -31.711 h 11.59 v 22.069 3.497 c 0,1.967 0.01,3.909 0.034,5.828 0.025,1.917 0.222,3.849 0.579,5.792 0.358,1.941 0.787,3.52 1.275,4.741 0.489,1.216 1.402,2.472 2.744,3.765 2.365,2.228 5.299,3.339 8.804,3.339 3.659,0 6.516,-0.696 8.574,-2.092 2.059,-1.402 3.786,-3.837 5.173,-7.307 0.619,-1.503 1.002,-3.627 1.161,-6.372 0.153,-2.747 0.231,-5.987 0.231,-9.719 v -23.541 h 6.181 v 27.667 c 0,5.701 -0.365,9.872 -1.085,12.513 -1.132,4.199 -3.5,7.542 -7.103,10.028 -1.961,1.45 -4.197,2.5 -6.722,3.144 -2.524,0.652 -5.152,0.973 -7.875,0.973 -5.355,0 -9.888,-0.906 -13.592,-2.717 C 5.482,17.667 2.575,14.223 1.238,9.561 0.819,8.16 0.518,6.622 0.312,4.936 0.101,3.25 0,1.605 0,0" />
      </g>
      <g
         transform="matrix(1.045,0,0,-1.04138,786.9183,358.45026)"
         id="g10163"
         style="fill:#011834;fill-opacity:1">
        <path
           inkscape:connector-curvature="0"
           id="path10165"
           style="fill:#011834;fill-opacity:1;fill-rule:nonzero;stroke:none"
           d="m 0,0 1.004,0.468 -1.699,6.643 c -2.211,1.131 -4.629,1.971 -7.258,2.509 -2.629,0.543 -5.305,0.81 -8.035,0.81 -8.446,0 -15.345,-2.352 -20.7,-7.069 -5.561,-4.871 -8.337,-11.247 -8.337,-19.127 0,-9.684 3.007,-17.148 9.032,-22.38 5.508,-4.773 12.747,-7.154 21.705,-7.154 2.727,0 5.472,0.326 8.226,0.976 2.755,0.646 5.267,1.594 7.531,2.837 -0.261,1.041 -0.554,2.295 -0.89,3.775 -0.336,1.481 -0.629,2.894 -0.887,4.243 h -1.08 c -1.446,-2.124 -3.323,-3.848 -5.638,-5.174 -2.318,-1.324 -4.712,-1.986 -7.187,-1.986 -5.972,0 -10.58,2.536 -13.822,7.613 -2.78,4.352 -4.175,9.739 -4.175,16.167 0,6.837 1.599,12.319 4.792,16.432 3.193,4.119 7.724,6.178 13.593,6.178 2.419,0 4.877,-0.525 7.379,-1.574 C -3.952,3.137 -1.802,1.745 0,0" />
      </g>
      <g
         transform="matrix(1.045,0,0,-1.04138,808.1623,370.44326)"
         id="g10167"
         style="fill:#011834;fill-opacity:1">
        <path
           inkscape:connector-curvature="0"
           id="path10169"
           style="fill:#011834;fill-opacity:1;fill-rule:nonzero;stroke:none"
           d="M 0,0 H 14.124 L 7.239,-18.146 Z M 15.898,4.749 H -2.1 c -1.649,4.714 -2.846,8.184 -3.591,10.408 -0.746,2.229 -1.348,4.187 -1.818,5.857 h -7.333 L 7.242,-33.08 h 5.877 L 34.668,21.014 H 21.383 C 20.247,17.333 19.375,14.554 18.755,12.686 17.775,9.679 16.824,7.032 15.898,4.749" />
      </g>
      <g
         transform="matrix(1.045,0,0,-1.04138,840.9693,309.75726)"
         id="g10171"
         style="fill:#011834;fill-opacity:1">
        <path
           inkscape:connector-curvature="0"
           id="path10173"
           style="fill:#011834;fill-opacity:1;fill-rule:nonzero;stroke:none"
           d="M 0,0 H -3.423 C -3.737,0.972 -3.961,1.691 -4.104,2.15 -4.247,2.614 -4.358,3.014 -4.447,3.361 L -5.143,3.279 -5.844,3.361 -1.641,-7.82 -1.087,-7.775 -0.526,-7.82 3.571,3.361 C 3.4,3.361 3.154,3.346 2.855,3.326 2.55,3.294 2.365,3.279 2.308,3.279 2.132,3.279 1.894,3.294 1.592,3.326 1.285,3.346 1.104,3.361 1.048,3.361 0.829,2.6 0.664,2.026 0.546,1.642 0.36,1.021 0.177,0.47 0,0 m -3.022,-0.985 h 2.687 l -1.306,-3.748 z" />
      </g>
    </g>
  </g>
</svg>
